#usda 1.0
(
    customLayerData = {
        dictionary cameraSettings = {
            dictionary Front = {
                double3 position = (0, 0, 50000)
                double radius = 500
            }
            dictionary Perspective = {
                double3 position = (500.0000000000001, 500.0000000000001, 499.9999999999998)
                double3 target = (0, 0, 0)
            }
            dictionary Right = {
                double3 position = (-50000, 0, -1.1102230246251565e-11)
                double radius = 500
            }
            dictionary Top = {
                double3 position = (-4.329780281177466e-12, 50000, 1.1102230246251565e-11)
                double radius = 500
            }
            string boundCamera = "/OmniverseKit_Persp"
        }
        dictionary omni_layer = {
            dictionary muteness = {
            }
        }
        dictionary renderSettings = {
        }
    }
    defaultPrim = "World"
    endTimeCode = 100
    metersPerUnit = 0.01
    startTimeCode = 0
    timeCodesPerSecond = 24
    upAxis = "Y"
)

def Xform "World"
{
    def DistantLight "defaultLight" (
        prepend apiSchemas = ["ShapingAPI"]
    )
    {
        float angle = 1
        float intensity = 3000
        float shaping:cone:angle = 180
        float shaping:cone:softness
        float shaping:focus
        color3f shaping:focusTint
        asset shaping:ies:file
        double3 xformOp:rotateXYZ = (315, 0, 0)
        double3 xformOp:scale = (1, 1, 1)
        double3 xformOp:translate = (0, 0, 0)
        uniform token[] xformOpOrder = ["xformOp:translate", "xformOp:rotateXYZ", "xformOp:scale"]
    }

    def Mesh "pCube1" (
        prepend apiSchemas = ["ShadowAPI"]
    )
    {
        uniform bool doubleSided = 1
        float3[] extent.timeSamples = {
            1: [(-0.5, -0.5, -0.5), (0.5, 0.5, 0.5)],
            30: [(-1.4098119, -0.25531188, -1.4098119), (1.4098119, 0.25531188, 1.4098119)],
        }
        int[] faceVertexCounts.timeSamples = {
            1: [4, 4, 4, 4, 4, 4],
        }
        int[] faceVertexIndices.timeSamples = {
            1: [0, 1, 3, 2, 2, 3, 5, 4, 4, 5, 7, 6, 6, 7, 1, 0, 1, 7, 5, 3, 6, 0, 2, 4],
        }
        rel material:binding = </World/cube_timesample/Looks/OmniPBR> (
            bindMaterialAs = "weakerThanDescendants"
        )
        normal3f[] normals (
            interpolation = "faceVarying"
        )
        normal3f[] normals.timeSamples = {
            1: [(0, 0, 1), (0, 0, 1), (0, 0, 1), (0, 0, 1), (0, 1, 0), (0, 1, 0), (0, 1, 0), (0, 1, 0), (0, 0, -1), (0, 0, -1), (0, 0, -1), (0, 0, -1), (0, -1, 0), (0, -1, 0), (0, -1, 0), (0, -1, 0), (1, 0, 0), (1, 0, 0), (1, 0, 0), (1, 0, 0), (-1, 0, 0), (-1, 0, 0), (-1, 0, 0), (-1, 0, 0)],
        }
        point3f[] points =  [(-0.5, -0.5, 0.5), (0.5, -0.5, 0.5), (-0.5, 0.5, 0.5), (0.5, 0.5, 0.5), (-0.5, 0.5, -0.5), (0.5, 0.5, -0.5), (-0.5, -0.5, -0.5), (0.5, -0.5, -0.5)]
        point3f[] points.timeSamples = {
            1: [(-0.5, -0.5, 0.5), (0.5, -0.5, 0.5), (-0.5, 0.5, 0.5), (0.5, 0.5, 0.5), (-0.5, 0.5, -0.5), (0.5, 0.5, -0.5), (-0.5, -0.5, -0.5), (0.5, -0.5, -0.5)],
            30: [(-1.4098119, -0.25531188, 1.4098119), (1.4098119, -0.25531188, 1.4098119), (-1.4098119, 0.25531188, 1.4098119), (1.4098119, 0.25531188, 1.4098119), (-1.4098119, 0.25531188, -1.4098119), (1.4098119, 0.25531188, -1.4098119), (-1.4098119, -0.25531188, -1.4098119), (1.4098119, -0.25531188, -1.4098119)],
        }
        color3f[] primvars:displayColor (
            customData = {
                dictionary Maya = {
                    bool generated = 1
                }
            }
        )
        color3f[] primvars:displayColor.timeSamples = {
            1: [(0.4, 0.4, 0.4)],
        }
        texCoord2f[] primvars:st (
            customData = {
                dictionary Maya = {
                    int UVSetIndex = 0
                }
            }
            interpolation = "faceVarying"
        )
        texCoord2f[] primvars:st.timeSamples = {
            1: [(0.375, 0), (0.625, 0), (0.375, 0.25), (0.625, 0.25), (0.375, 0.5), (0.625, 0.5), (0.375, 0.75), (0.625, 0.75), (0.375, 1), (0.625, 1), (0.875, 0), (0.875, 0.25), (0.125, 0), (0.125, 0.25)],
        }
        int[] primvars:st:indices.timeSamples = {
            1: [0, 1, 3, 2, 2, 3, 5, 4, 4, 5, 7, 6, 6, 7, 9, 8, 1, 10, 11, 3, 12, 0, 2, 13],
        }
        bool shadow:enable = 1
        uniform token subdivisionScheme = "none"
    }
}

