<svg width="16" height="16" viewBox="0 0 16 16" fill="none" xmlns="http://www.w3.org/2000/svg">
<path fill-rule="evenodd" clip-rule="evenodd" d="M12.799 2.25L11.5 1.5L10.334 3.51959C10.2066 3.46411 10.0775 3.41216 9.94682 3.36421C9.83109 3.32174 9.71412 3.2824 9.596 3.24652C9.11312 3.09981 8.61104 3.01076 8.0955 3.00091C8.06372 3.00031 8.03188 3 8 3C7.51208 3 7.03583 3.07168 6.57606 3.19694C5.86577 3.39046 5.19482 3.71186 4.58103 4.09445C4.3416 4.24369 4.11087 4.40225 3.88989 4.56615C3.85936 4.58879 3.82902 4.61154 3.79887 4.63438C3.53414 4.83487 3.28397 5.04244 3.05025 5.25C2.49716 5.7412 2.0362 6.2324 1.69235 6.62995C1.24868 7.14293 1 7.5 1 7.5C1 7.5 1.24868 7.85707 1.69235 8.37005C2.0362 8.7676 2.49716 9.2588 3.05025 9.75C3.79474 10.4112 4.70615 11.0724 5.72352 11.5052L4.75 13.1913L6.04904 13.9413L12.799 2.25ZM6.39464 10.3427L6.98321 9.3233C6.34858 9.09471 5.81322 8.65822 5.4593 8.096C5.40603 8.01138 5.35688 7.92392 5.31211 7.83388C5.23241 7.67359 5.16663 7.50515 5.11634 7.33016C5.04058 7.06652 5 6.788 5 6.5C5 6.20346 5.04303 5.91698 5.12317 5.64644C5.16645 5.50037 5.22054 5.35894 5.28453 5.2231C5.00645 5.39643 4.73532 5.58855 4.47338 5.7935C4.28855 5.93812 4.1083 6.08913 3.93342 6.24444C3.83739 6.32973 3.74432 6.41512 3.65439 6.5C3.57012 6.57955 3.4886 6.65864 3.40999 6.73679C3.21293 6.9327 3.03413 7.12263 2.87588 7.29863C2.81344 7.36809 2.75419 7.43537 2.6983 7.5C2.75419 7.56463 2.81344 7.63191 2.87588 7.70137C3.16461 8.0225 3.5218 8.39 3.93342 8.75556C3.97477 8.79228 4.01643 8.82877 4.05838 8.86499C4.66058 9.38498 5.32252 9.8497 6.01326 10.1773C6.13949 10.2372 6.26668 10.2925 6.39464 10.3427ZM8.88417 11.3968L9.10164 11.0201L9.46142 10.3969C9.50873 10.3799 9.55594 10.3621 9.60305 10.3436C10.4809 9.99959 11.3223 9.41652 12.0666 8.75556C12.4782 8.39 12.8354 8.0225 13.1241 7.70137C13.1866 7.63191 13.2458 7.56463 13.3017 7.5C13.2458 7.43537 13.1866 7.36809 13.1241 7.29863C12.8354 6.9775 12.4782 6.61 12.0666 6.24444C12.0453 6.22551 12.0239 6.20665 12.0024 6.18785C11.9779 6.16639 11.9533 6.14502 11.9286 6.12374L12.015 5.97408L12.6041 4.95362C12.6292 4.97439 12.6542 4.99518 12.679 5.01601C12.7185 5.04922 12.7576 5.0825 12.7963 5.11581C12.8482 5.16049 12.8994 5.20525 12.9497 5.25C13.265 5.52995 13.5503 5.80991 13.801 6.07253C13.9902 6.27069 14.1598 6.45898 14.3076 6.62995C14.7513 7.14293 15 7.5 15 7.5C15 7.5 14.7513 7.85707 14.3076 8.37005C13.9638 8.7676 13.5028 9.2588 12.9497 9.75C12.3379 10.2934 11.6133 10.8367 10.8099 11.2533C10.5205 11.4034 10.2209 11.537 9.91271 11.6482C9.51274 11.7925 9.0982 11.8992 8.67254 11.9553C8.63293 11.9606 8.59321 11.9653 8.55341 11.9697L8.88417 11.3968ZM6.08044 6.5H6C6 6.45867 6.00125 6.41763 6.00373 6.37693C6.01944 6.11802 6.08442 5.8724 6.1894 5.64934C6.24872 5.5233 6.32081 5.40447 6.404 5.2945C6.51554 5.14705 6.64705 5.01555 6.7945 4.904C6.89399 4.82873 7.00074 4.76256 7.11351 4.7067C7.18541 4.67109 7.25975 4.63968 7.33623 4.61278C7.54393 4.53973 7.76732 4.5 8 4.5V4.596V5.5C7.44772 5.5 7 5.94772 7 6.5H6.596H6.08044Z" fill="#E2E2E2"/>
</svg>
