<svg width="16" height="16" viewBox="0 0 16 16" fill="none" xmlns="http://www.w3.org/2000/svg">
<path fill-rule="evenodd" clip-rule="evenodd" d="M1 8C1 8 4.13401 12.5 8 12.5C11.866 12.5 15 8 15 8C15 8 11.866 3.5 8 3.5C4.13401 3.5 1 8 1 8ZM2.6983 8C3.01265 8.36345 3.43277 8.81093 3.93342 9.25556C5.12336 10.3123 6.56187 11.17 8 11.17C9.43813 11.17 10.8766 10.3123 12.0666 9.25556C12.5672 8.81093 12.9874 8.36345 13.3017 8C12.9874 7.63655 12.5672 7.18907 12.0666 6.74444C11.6439 6.36902 11.1898 6.01873 10.7155 5.7231C10.898 6.11053 11 6.54335 11 7C11 8.65685 9.65685 10 8 10C6.34315 10 5 8.65685 5 7C5 6.54335 5.10203 6.11053 5.28453 5.7231C4.81023 6.01873 4.35614 6.36902 3.93342 6.74444C3.43277 7.18907 3.01265 7.63655 2.6983 8ZM6 7C6 5.89543 6.89543 5 8 5V6C7.44772 6 7 6.44772 7 7H6Z" fill="#E2E2E2"/>
</svg>
