#usda 1.0
(
    defaultPrim = "Root"
    endTimeCode = 120
    startTimeCode = 0
    timeCodesPerSecond = 24
    upAxis = "Z"
)

def "Root" (
    kind = "component"
)
{
    def Mesh "base" (
        prepend apiSchemas = ["ShadowAPI"]
    )
    {
        uniform bool doubleSided = 1
        float3[] extent.timeSamples = {
            0: [(-2.5, -2.5, -0.020237144), (2.5, 2.5, 4.979763)],
            2: [(-2.5, -2.5, -0.020237144), (2.5, 2.5, 4.979763)],
            3: [(-2.5, -2.5, -0.020237144), (2.5494628, 2.5, 5.039878)],
            4: [(-2.5, -2.5, -0.020237144), (2.6279688, 2.5, 5.1352906)],
            5: [(-2.5, -2.5, -0.020237144), (2.729145, 2.5, 5.2582555)],
            6: [(-2.5, -2.5, -0.020237144), (2.8479536, 2.5, 5.40265)],
            7: [(-2.5, -2.5, -0.020237144), (2.9793565, 2.5, 5.562351)],
            8: [(-2.5, -2.5, -0.020237144), (3.1183162, 2.5, 5.731237)],
            9: [(-2.5, -2.5, -0.020237144), (3.1377037, 2.5, 5.938967)],
            10: [(-2.5, -2.5, -0.020237144), (2.9987438, 2.5, 6.1893067)],
            11: [(-2.5, -2.5, -0.020237144), (2.8673408, 2.5, 6.426033)],
            12: [(-2.5, -2.5, -0.020237144), (2.7485323, 2.5, 6.64007)],
            13: [(-2.5, -2.5, -0.020237144), (2.647356, 2.5, 6.822342)],
            14: [(-2.5, -2.5, -0.020237144), (2.5688503, 2.5, 6.9637723)],
            15: [(-2.5, -2.5, -0.020237144), (2.518052, 2.5, 7.055287)],
            16: [(-2.5, -2.5, -0.020237144), (2.5, 2.5, 7.087808)],
            17: [(-2.5, -2.5, -0.020237144), (2.5177717, 2.5, 7.055792)],
            18: [(-2.5, -2.5, -0.020237144), (2.566865, 2.5, 6.967349)],
            19: [(-2.5, -2.5, -0.020237144), (2.6409466, 2.5, 6.8338885)],
            20: [(-2.5, -2.5, -0.020237144), (2.733684, 2.5, 6.6668196)],
            21: [(-2.5, -2.5, -0.020237144), (2.8387442, 2.5, 6.477551)],
            22: [(-2.5, -2.5, -0.020237144), (2.9497938, 2.5, 6.277492)],
            23: [(-2.5, -2.5, -0.020237144), (3.0605001, 2.5, 6.078051)],
            24: [(-2.5, -2.5, -0.020237144), (3.1645305, 2.5, 5.890638)],
            25: [(-2.5, -2.5, -0.020237144), (3.141947, 2.5, 5.7599564)],
            26: [(-2.5, -2.5, -0.020237144), (3.070268, 2.5, 5.672841)],
            27: [(-2.5, -2.5, -0.020237144), (3.0242639, 2.5, 5.61693)],
            28: [(-2.5, -2.5, -0.020237144), (2.9936745, 2.5, 5.579753)],
            29: [(-2.5, -2.5, -0.020237144), (2.9640164, 2.5, 5.543708)],
            30: [(-2.5, -2.5, -0.020237144), (2.9352884, 2.5, 5.508793)],
            31: [(-2.5, -2.5, -0.020237144), (2.9074898, 2.5, 5.475008)],
            32: [(-2.5, -2.5, -0.020237144), (2.880619, 2.5, 5.4423504)],
            33: [(-2.5, -2.5, -0.020237144), (2.8546753, 2.5, 5.4108195)],
            34: [(-2.5, -2.5, -0.020237144), (2.8296573, 2.5, 5.3804135)],
            35: [(-2.5, -2.5, -0.020237144), (2.805564, 2.5, 5.3511314)],
            36: [(-2.5, -2.5, -0.020237144), (2.782394, 2.5, 5.322972)],
            37: [(-2.5, -2.5, -0.020237144), (2.7601464, 2.5, 5.2959332)],
            38: [(-2.5, -2.5, -0.020237144), (2.73882, 2.5, 5.2700143)],
            39: [(-2.5, -2.5, -0.020237144), (2.7184138, 2.5, 5.2452135)],
            40: [(-2.5, -2.5, -0.020237144), (2.6989267, 2.5, 5.2215295)],
            41: [(-2.5, -2.5, -0.020237144), (2.6803575, 2.5, 5.1989613)],
            42: [(-2.5, -2.5, -0.020237144), (2.6627052, 2.5, 5.1775074)],
            43: [(-2.5, -2.5, -0.020237144), (2.6459682, 2.5, 5.1571665)],
            44: [(-2.5, -2.5, -0.020237144), (2.630146, 2.5, 5.1379366)],
            45: [(-2.5, -2.5, -0.020237144), (2.615237, 2.5, 5.119817)],
            46: [(-2.5, -2.5, -0.020237144), (2.6012404, 2.5, 5.102806)],
            47: [(-2.5, -2.5, -0.020237144), (2.588155, 2.5, 5.0869026)],
            48: [(-2.5, -2.5, -0.020237144), (2.5759795, 2.5, 5.072105)],
            49: [(-2.5, -2.5, -0.020237144), (2.564713, 2.5, 5.058412)],
            50: [(-2.5, -2.5, -0.020237144), (2.5543542, 2.5, 5.0458226)],
            51: [(-2.5, -2.5, -0.020237144), (2.544902, 2.5, 5.034335)],
            52: [(-2.5, -2.5, -0.020237144), (2.5363555, 2.5, 5.0239477)],
            53: [(-2.5, -2.5, -0.020237144), (2.5287135, 2.5, 5.01466)],
            54: [(-2.5, -2.5, -0.020237144), (2.5219746, 2.5, 5.0064697)],
            55: [(-2.5, -2.5, -0.020237144), (2.5161378, 2.5, 4.9993763)],
            56: [(-2.5, -2.5, -0.020237144), (2.511202, 2.5, 4.9933777)],
            57: [(-2.5, -2.5, -0.020237144), (2.5071664, 2.5, 4.988473)],
            58: [(-2.5, -2.5, -0.020237144), (2.5040295, 2.5, 4.98466)],
            59: [(-2.5, -2.5, -0.020237144), (2.50179, 2.5, 4.981939)],
            60: [(-2.5, -2.5, -0.020237144), (2.5, 2.5, 4.979763)],
            61: [(-2.5, -2.5, -0.020237144), (2.5, 2.5, 4.979763)],
            62: [(-2.5, -2.5, -0.020237144), (2.5, 2.5, 4.9900694)],
            63: [(-2.5, -2.5, -0.020237144), (2.5, 2.5, 5.0198107)],
            64: [(-2.5, -2.5, -0.020237144), (2.5, 2.5, 5.0672197)],
            65: [(-2.5, -2.5, -0.020237144), (2.5, 2.5, 5.13053)],
            66: [(-2.5, -2.5, -0.020237144), (2.5, 2.5, 5.2079744)],
            67: [(-2.5, -2.5, -0.020237144), (2.5, 2.5, 5.2977867)],
            68: [(-2.5, -2.5, -0.020237144), (2.5, 2.5, 5.3981996)],
            69: [(-2.5, -2.5, -0.020237144), (2.5, 2.5, 5.507447)],
            70: [(-2.5, -2.5, -0.020237144), (2.5, 2.5, 5.6237607)],
            71: [(-2.5, -2.5, -0.020237144), (2.5, 2.5, 5.7453756)],
            72: [(-2.5, -2.5, -0.020237144), (2.5, 2.5, 5.8705235)],
            73: [(-2.5, -2.5, -0.020237144), (2.5, 2.5, 5.9974384)],
            74: [(-2.5, -2.5, -0.020237144), (2.5, 2.5, 6.1243534)],
            75: [(-2.5, -2.5, -0.020237144), (2.5, 2.5, 6.2495017)],
            76: [(-2.5, -2.5, -0.020237144), (2.5, 2.5, 6.3711166)],
            77: [(-2.5, -2.5, -0.020237144), (2.5, 2.5, 6.4874306)],
            78: [(-2.5, -2.5, -0.020237144), (2.5, 2.5, 6.596678)],
            79: [(-2.5, -2.5, -0.020237144), (2.5, 2.5, 6.6970906)],
            80: [(-2.5, -2.5, -0.020237144), (2.5, 2.5, 6.786903)],
            81: [(-2.5, -2.5, -0.020237144), (2.5, 2.5, 6.8643475)],
            82: [(-2.5, -2.5, -0.020237144), (2.5, 2.5, 6.927658)],
            83: [(-2.5, -2.5, -0.020237144), (2.5, 2.5, 6.975067)],
            84: [(-2.5, -2.5, -0.020237144), (2.5, 2.5, 7.004808)],
            85: [(-2.5, -2.5, -0.020237144), (2.5, 2.5, 7.0151143)],
            94: [(-2.5, -2.5, -0.020237144), (2.5, 2.5, 7.0151143)],
            95: [(-2.5, -2.5, -0.020237144), (2.501981, 2.5, 7.0119476)],
            96: [(-2.5, -2.5, -0.020237144), (2.5076873, 2.5, 7.0028257)],
            97: [(-2.5, -2.5, -0.020237144), (2.5167642, 2.5, 6.9883156)],
            98: [(-2.5, -2.5, -0.020237144), (2.528857, 2.5, 6.9689846)],
            99: [(-2.5, -2.5, -0.020237144), (2.5436106, 2.5, 6.9454)],
            100: [(-2.5, -2.5, -0.020237144), (2.5606706, 2.5, 6.918129)],
            101: [(-2.5, -2.5, -0.020237144), (2.5796819, 2.5, 6.887738)],
            102: [(-2.5, -2.5, -0.020237144), (2.6002898, 2.5, 6.8547955)],
            103: [(-2.5, -2.5, -0.020237144), (2.6221395, 2.5, 6.8198676)],
            104: [(-2.5, -2.5, -0.020237144), (2.6448762, 2.5, 6.7835217)],
            105: [(-2.5, -2.5, -0.020237144), (2.668145, 2.5, 6.746325)],
            106: [(-2.5, -2.5, -0.020237144), (2.6005075, 2.5, 6.7088447)],
            107: [(-2.5, -2.5, -0.020237144), (2.5, 2.5, 6.671648)],
            108: [(-2.5, -2.5, -0.020237144), (2.5, 2.5, 6.635302)],
            109: [(-2.5, -2.5, -0.020237144), (2.5, 2.5, 6.600374)],
            110: [(-2.5, -2.5, -0.020237144), (2.5, 2.5, 6.5674314)],
            111: [(-2.5, -2.5, -0.020237144), (2.5, 2.5, 6.5370407)],
            112: [(-2.5, -2.5, -0.020237144), (2.5, 2.5, 6.5097694)],
            113: [(-2.5, -2.5, -0.020237144), (2.5, 2.5, 6.486185)],
            114: [(-2.5, -2.5, -0.020237144), (2.5, 2.5, 6.466854)],
            115: [(-2.5, -2.5, -0.020237144), (2.5, 2.5, 6.452344)],
            116: [(-2.5, -2.5, -0.020237144), (2.5, 2.5, 6.443222)],
            117: [(-2.5, -2.5, -0.020237144), (2.5, 2.5, 6.4400554)],
        }
        int[] faceVertexCounts.timeSamples = {
            0: [4, 4, 4, 4, 4, 4],
        }
        int[] faceVertexIndices.timeSamples = {
            0: [0, 1, 3, 2, 2, 3, 5, 4, 4, 5, 7, 6, 6, 7, 1, 0, 1, 7, 5, 3, 6, 0, 2, 4],
        }
        rel material:binding = </Root/Looks/initialShadingGroup>
        normal3f[] normals (
            interpolation = "faceVarying"
        )
        normal3f[] normals.timeSamples = {
            0: [(0, -1, 0), (0, -1, 0), (0, -1, 0), (0, -1, 0), (0.0058487854, -0, 0.99998295), (0.0058487854, -0, 0.99998295), (0.0058487854, -0, 0.99998295), (0.0058487854, -0, 0.99998295), (0, 1, 0), (0, 1, 0), (0, 1, 0), (0, 1, 0), (0, -0, -1), (0, -0, -1), (0, -0, -1), (0, -0, -1), (1, -0, 0), (1, -0, 0), (1, -0, 0), (1, -0, 0), (-1, -0, 0), (-1, -0, 0), (-1, -0, 0), (-1, -0, 0)],
            1: [(0, -1, 0), (0, -1, 0), (0, -1, 0), (0, -1, 0), (0.0058487854, -0, 0.99998295), (0.0058487854, -0, 0.99998295), (0.0058487854, -0, 0.99998295), (0.0058487854, -0, 0.99998295), (0, 1, 0), (0, 1, 0), (0, 1, 0), (0, 1, 0), (0, -0, -1), (0, -0, -1), (0, -0, -1), (0, -0, -1), (1, -0, 0), (1, -0, 0), (1, -0, 0), (1, -0, 0), (-1, -0, 0), (-1, -0, 0), (-1, -0, 0), (-1, -0, 0)],
            2: [(0, -1, 0), (0, -1, 0), (0, -1, 0), (0, -1, 0), (0, -0, 1), (0, -0, 1), (0, -0, 1), (0, -0, 1), (0, 1, 0), (0, 1, 0), (0, 1, 0), (0, 1, 0), (0, -0, -1), (0, -0, -1), (0, -0, -1), (0, -0, -1), (1, -0, 0), (1, -0, 0), (1, -0, 0), (1, -0, 0), (-1, -0, 0), (-1, -0, 0), (-1, -0, 0), (-1, -0, 0)],
            3: [(0, -1, 0), (0, -1, 0), (0, -1, 0), (0, -1, 0), (-0.011904357, -0, 0.9999292), (-0.011904357, -0, 0.9999292), (-0.011904357, -0, 0.9999292), (-0.011904357, -0, 0.9999292), (0, 0.99999994, 0), (0, 1, 0), (0, 1, 0), (0, 0.99999994, 0), (0, -0, -1), (0, -0, -1), (0, -0, -1), (0, -0, -1), (0.9999522, -0, -0.009774585), (0.9999522, -0, -0.009774585), (0.9999522, -0, -0.009774585), (0.9999522, -0, -0.009774585), (-1, -0, 0), (-1, -0, 0), (-1, -0, 0), (-1, -0, 0)],
            4: [(0, -1, 0), (0, -1, 0), (0, -1, 0), (0, -1, 0), (-0.030315338, -0, 0.9995404), (-0.030315338, -0, 0.9995404), (-0.030315338, -0, 0.9995404), (-0.030315338, -0, 0.9995404), (0, 1, 0), (0, 1, 0), (0, 1, 0), (0, 1, 0), (0, -0, -1), (0, -0, -1), (0, -0, -1), (0, -0, -1), (0.99969214, -0, -0.024814026), (0.99969214, -0, -0.024814026), (0.99969214, -0, -0.024814026), (0.99969214, -0, -0.024814026), (-1, -0, 0), (-1, -0, 0), (-1, -0, 0), (-1, -0, 0)],
            5: [(0, -1, 0), (0, -1, 0), (0, -1, 0), (0, -1, 0), (-0.05318237, -0, 0.99858475), (-0.05318237, -0, 0.99858475), (-0.05318237, -0, 0.99858475), (-0.05318237, -0, 0.99858475), (0, 1, 0), (0, 1, 0), (0, 1, 0), (0, 1, 0), (0, -0, -1), (0, -0, -1), (0, -0, -1), (0, -0, -1), (0.99905914, -0, -0.043370232), (0.99905914, -0, -0.043370232), (0.99905914, -0, -0.043370232), (0.99905914, -0, -0.043370232), (-1, -0, 0), (-1, -0, 0), (-1, -0, 0), (-1, -0, 0)],
            6: [(0, -1, 0), (0, -0.99999994, 0), (0, -1, 0), (0, -0.99999994, 0), (-0.07882845, -0, 0.9968882), (-0.07882845, -0, 0.9968882), (-0.07882845, -0, 0.9968882), (-0.07882845, -0, 0.9968882), (0, 0.99999994, 0), (0, 1, 0), (0, 0.99999994, 0), (0, 1, 0), (0, -0, -1), (0, -0, -1), (0, -0, -1), (0, -0, -1), (0.9979479, -0, -0.06403224), (0.9979479, -0, -0.06403224), (0.9979479, -0, -0.06403224), (0.9979479, -0, -0.06403224), (-1, -0, 0), (-1, -0, 0), (-1, -0, 0), (-1, -0, 0)],
            7: [(0, -1, 0), (0, -1, 0), (0, -1, 0), (0, -1, 0), (-0.10572827, -0, 0.99439514), (-0.10572827, -0, 0.99439514), (-0.10572827, -0, 0.99439514), (-0.10572827, -0, 0.99439514), (0, 1, 0), (0, 1, 0), (0, 1, 0), (0, 1, 0), (0, -0, -1), (0, -0, -1), (0, -0, -1), (0, -0, -1), (0.99633366, -0, -0.08555155), (0.99633366, -0, -0.08555155), (0.99633366, -0, -0.08555155), (0.99633366, -0, -0.08555155), (-1, -0, 0), (-1, -0, 0), (-1, -0, 0), (-1, -0, 0)],
            8: [(0, -1, 0), (0, -1, 0), (0, -1, 0), (0, -1, 0), (-0.13257366, -0, 0.9911732), (-0.13257366, -0, 0.9911732), (-0.13257366, -0, 0.9911732), (-0.13257366, -0, 0.9911732), (0, 1, 0), (0, 1, 0), (0, 1, 0), (0, 1, 0), (0, -0, -1), (0, -0, -1), (0, -0, -1), (0, -0, -1), (0.99427086, -0, -0.10688979), (0.99427086, -0, -0.10688979), (0.99427086, -0, -0.10688979), (0.99427086, -0, -0.10688979), (-1, -0, 0), (-1, -0, 0), (-1, -0, 0), (-1, -0, 0)],
            9: [(0, -1, 0), (0, -1, 0), (0, -1, 0), (0, -0.99999994, 0), (-0.16773053, -0, 0.9858328), (-0.16773053, -0, 0.9858328), (-0.16773053, -0, 0.9858328), (-0.16773053, -0, 0.9858328), (0, 0.99999994, 0), (0, 1, 0), (0, 1, 0), (0, 1, 0), (0, -0, -1), (0, -0, -1), (0, -0, -1), (0, -0, -1), (0.994323, -0, -0.106404044), (0.994323, -0, -0.106404044), (0.994323, -0, -0.106404044), (0.994323, -0, -0.106404044), (-1, -0, 0), (-1, -0, 0), (-1, -0, 0), (-1, -0, 0)],
            10: [(0, -1, 0), (0, -0.99999994, 0), (0, -1, 0), (0, -0.99999994, 0), (-0.21483131, -0, 0.9766512), (-0.21483131, -0, 0.9766512), (-0.21483131, -0, 0.9766512), (-0.21483131, -0, 0.9766512), (0, 0.99999994, 0), (0, 1, 0), (0, 0.99999994, 0), (0, 1, 0), (0, -0, -1), (0, -0, -1), (0, -0, -1), (0, -0, -1), (0.99679005, -0, -0.0800611), (0.99679005, -0, -0.0800611), (0.99679005, -0, -0.0800611), (0.99679005, -0, -0.0800611), (-1, -0, 0), (-1, -0, 0), (-1, -0, 0), (-1, -0, 0)],
            11: [(0, -1, 0), (0, -0.99999994, 0), (0, -1, 0), (0, -1, 0), (-0.26017755, -0, 0.9655608), (-0.26017755, -0, 0.9655608), (-0.26017755, -0, 0.9655608), (-0.26017755, -0, 0.9655608), (0, 1, 0), (0, 1, 0), (0, 0.99999994, 0), (0, 1, 0), (0, -0, -1), (0, -0, -1), (0, -0, -1), (0, -0, -1), (0.9983803, -0, -0.056892734), (0.9983803, -0, -0.056892734), (0.9983803, -0, -0.056892734), (0.9983803, -0, -0.056892734), (-1, -0, 0), (-1, -0, 0), (-1, -0, 0), (-1, -0, 0)],
            12: [(-3.203249e-8, -1, 0), (-3.2032485e-8, -0.99999994, 0), (-3.203249e-8, -1, 0), (-3.2032485e-8, -1, 0), (-0.30160636, -0, 0.95343256), (-0.30160636, -0, 0.95343256), (-0.30160636, -0, 0.95343256), (-0.30160636, -0, 0.95343256), (-3.2032485e-8, 1, 0), (-3.203249e-8, 1, 0), (-3.2032485e-8, 0.99999994, 0), (-3.203249e-8, 1, 0), (0, -0, -1), (0, -0, -1), (0, -0, -1), (0, -0, -1), (0.99930453, -0, -0.037289485), (0.99930453, -0, -0.037289485), (0.99930453, -0, -0.037289485), (0.99930453, -0, -0.037289485), (-1, -0, 0), (-1, -0, 0), (-1, -0, 0), (-1, -0, 0)],
            13: [(0, -1, 0), (0, -0.99999994, 0), (0, -1, 0), (0, -0.99999994, 0), (-0.33702374, -0, 0.9414962), (-0.33702374, -0, 0.9414962), (-0.33702374, -0, 0.9414962), (-0.33702374, -0, 0.9414962), (0, 0.99999994, 0), (0, 1, 0), (0, 0.99999994, 0), (0, 1, 0), (0, -0, -1), (0, -0, -1), (0, -0, -1), (0, -0, -1), (0.9997682, -0, -0.021530168), (0.9997682, -0, -0.021530168), (0.9997682, -0, -0.021530168), (0.9997682, -0, -0.021530168), (-1, -0, 0), (-1, -0, 0), (-1, -0, 0), (-1, -0, 0)],
            14: [(-3.1649726e-8, -1, 0), (-3.1649723e-8, -0.99999994, 0), (-3.1649726e-8, -1, 0), (-3.1649726e-8, -0.99999994, 0), (-0.3644863, -0, 0.9312087), (-0.3644863, -0, 0.9312087), (-0.3644863, -0, 0.9312087), (-0.3644863, -0, 0.9312087), (-3.1649726e-8, 0.99999994, 0), (-3.164973e-8, 1, 0), (-3.1649726e-8, 1, 0), (-3.164973e-8, 1, 0), (0, -0, -1), (0, -0, -1), (0, -0, -1), (0, -0, -1), (0.9999514, -0, -0.009857802), (0.9999514, -0, -0.009857802), (0.9999514, -0, -0.009857802), (0.9999514, -0, -0.009857802), (-1, -0, 0), (-1, -0, 0), (-1, -0, 0), (-1, -0, 0)],
            15: [(-3.154317e-8, -1, 0), (-3.154317e-8, -0.99999994, 0), (-3.154317e-8, -1, 0), (-3.1543173e-8, -1, 0), (-0.3822084, -0, 0.9240761), (-0.3822084, -0, 0.9240761), (-0.3822084, -0, 0.9240761), (-0.3822084, -0, 0.9240761), (-3.1543173e-8, 1, 0), (-3.1543173e-8, 1, 0), (-3.1543173e-8, 1, 0), (-3.1543177e-8, 1, 0), (0, -0, -1), (0, -0, -1), (0, -0, -1), (0, -0, -1), (0.9999967, -0, -0.002551336), (0.9999967, -0, -0.002551336), (0.9999967, -0, -0.002551336), (0.9999967, -0, -0.002551336), (-1, -0, 0), (-1, -0, 0), (-1, -0, 0), (-1, -0, 0)],
            16: [(0, -1, 0), (0, -1, 0), (0, -1, 0), (0, -1, 0), (-0.38849244, -0, 0.92145187), (-0.38849244, -0, 0.92145187), (-0.38849244, -0, 0.92145187), (-0.38849244, -0, 0.92145187), (0, 1, 0), (0, 1, 0), (0, 1, 0), (0, 1, 0), (0, -0, -1), (0, -0, -1), (0, -0, -1), (0, -0, -1), (1, -0, 0), (1, -0, 0), (1, -0, 0), (1, -0, 0), (-1, -0, 0), (-1, -0, 0), (-1, -0, 0), (-1, -0, 0)],
            17: [(3.154258e-8, -1, 0), (3.1542584e-8, -0.99999994, 0), (3.154258e-8, -0.99999994, 0), (3.1542584e-8, -1, 0), (-0.3823061, -0, 0.9240357), (-0.3823061, -0, 0.9240357), (-0.3823061, -0, 0.9240357), (-0.3823061, -0, 0.9240357), (3.1542584e-8, 0.99999994, 0), (3.154259e-8, 1, 0), (3.1542584e-8, 0.99999994, 0), (3.1542587e-8, 1, 0), (0, -0, -1), (0, -0, -1), (0, -0, -1), (0, -0, -1), (0.9999969, -0, -0.002511531), (0.9999969, -0, -0.002511531), (0.9999969, -0, -0.002511531), (0.9999969, -0, -0.002511531), (-1, -0, 0), (-1, -0, 0), (-1, -0, 0), (-1, -0, 0)],
            18: [(0, -0.99999994, 0), (0, -1, 0), (0, -0.99999994, 0), (0, -1, 0), (-0.36517993, -0, 0.930937), (-0.36517993, -0, 0.930937), (-0.36517993, -0, 0.930937), (-0.36517993, -0, 0.930937), (0, 0.99999994, 0), (0, 1, 0), (0, 1, 0), (0, 1, 0), (0, -0, -1), (0, -0, -1), (0, -0, -1), (0, -0, -1), (0.99995416, -0, -0.00956867), (0.99995416, -0, -0.00956867), (0.99995416, -0, -0.00956867), (0.99995416, -0, -0.00956867), (-1, -0, 0), (-1, -0, 0), (-1, -0, 0), (-1, -0, 0)],
            19: [(3.18022e-8, -1, 0), (3.18022e-8, -1, 0), (3.1802205e-8, -1, 0), (3.1802205e-8, -1, 0), (-0.33926773, -0, 0.94068986), (-0.33926773, -0, 0.94068986), (-0.33926773, -0, 0.94068986), (-0.33926773, -0, 0.94068986), (3.1802205e-8, 1, 0), (3.1802205e-8, 1, 0), (3.1802205e-8, 1, 0), (3.1802205e-8, 1, 0), (0, -0, -1), (0, -0, -1), (0, -0, -1), (0, -0, -1), (0.99978864, -0, -0.020559413), (0.99978864, -0, -0.020559413), (0.99978864, -0, -0.020559413), (0.99978864, -0, -0.020559413), (-1, -0, 0), (-1, -0, 0), (-1, -0, 0), (-1, -0, 0)],
            20: [(0, -1, 0), (0, -1, 0), (0, -1, 0), (0, -1, 0), (-0.30680043, -0, 0.9517739), (-0.30680043, -0, 0.9517739), (-0.30680043, -0, 0.9517739), (-0.30680043, -0, 0.9517739), (0, 1, 0), (0, 1, 0), (0, 1, 0), (0, 1, 0), (0, -0, -1), (0, -0, -1), (0, -0, -1), (0, -0, -1), (0.99938995, -0, -0.034924425), (0.99938995, -0, -0.034924425), (0.99938995, -0, -0.034924425), (0.99938995, -0, -0.034924425), (-1, -0, 0), (-1, -0, 0), (-1, -0, 0), (-1, -0, 0)],
            21: [(-3.2228165e-8, -1, 0), (-3.222817e-8, -1, 0), (-3.2228165e-8, -1, 0), (-3.2228165e-8, -1, 0), (-0.27012148, -0, 0.9628262), (-0.27012148, -0, 0.9628262), (-0.27012148, -0, 0.9628262), (-0.27012148, -0, 0.9628262), (-3.222817e-8, 1, 0), (-3.222817e-8, 1, 0), (-3.222817e-8, 1, 0), (-3.222817e-8, 1, 0), (0, -0, -1), (0, -0, -1), (0, -0, -1), (0, -0, -1), (0.9986438, -0, -0.052061528), (0.9986438, -0, -0.052061528), (0.9986438, -0, -0.052061528), (0.9986438, -0, -0.052061528), (-1, -0, 0), (-1, -0, 0), (-1, -0, 0), (-1, -0, 0)],
            22: [(0, -1, 0), (0, -1, 0), (0, -1, 0), (0, -1, 0), (-0.23164739, -0, 0.9727998), (-0.23164739, -0, 0.9727998), (-0.23164739, -0, 0.9727998), (-0.23164739, -0, 0.9727998), (0, 1, 0), (0, 1, 0), (0, 0.99999994, 0), (0, 1, 0), (0, -0, -1), (0, -0, -1), (0, -0, -1), (0, -0, -1), (0.99745923, -0, -0.07124012), (0.99745923, -0, -0.07124012), (0.99745923, -0, -0.07124012), (0.99745923, -0, -0.07124012), (-1, -0, 0), (-1, -0, 0), (-1, -0, 0), (-1, -0, 0)],
            23: [(0, -0.99999994, 0), (0, -1, 0), (0, -1, 0), (0, -1, 0), (-0.19377244, -0, 0.9810465), (-0.19377244, -0, 0.9810465), (-0.19377244, -0, 0.9810465), (-0.19377244, -0, 0.9810465), (0, 1, 0), (0, 1, 0), (0, 1, 0), (0, 0.99999994, 0), (0, -0, -1), (0, -0, -1), (0, -0, -1), (0, -0, -1), (0.99580276, -0, -0.09152529), (0.99580276, -0, -0.09152529), (0.99580276, -0, -0.09152529), (0.99580276, -0, -0.09152529), (-1, -0, 0), (-1, -0, 0), (-1, -0, 0), (-1, -0, 0)],
            24: [(0, -1, 0), (0, -1, 0), (0, -1, 0), (0, -1, 0), (-0.1587637, -0, 0.9873166), (-0.1587637, -0, 0.9873166), (-0.1587637, -0, 0.9873166), (-0.1587637, -0, 0.9873166), (0, 1, 0), (0, 1, 0), (0, 1, 0), (0, 1, 0), (0, -0, -1), (0, -0, -1), (0, -0, -1), (0, -0, -1), (0.99373955, -0, -0.11172126), (0.99373955, -0, -0.11172126), (0.99373955, -0, -0.11172126), (0.99373955, -0, -0.11172126), (-1, -0, 0), (-1, -0, 0), (-1, -0, 0), (-1, -0, 0)],
            25: [(0, -0.99999994, 0), (0, -0.99999994, 0), (0, -1, 0), (0, -1, 0), (-0.13698092, -0, 0.99057376), (-0.13698092, -0, 0.99057376), (-0.13698092, -0, 0.99057376), (-0.13698092, -0, 0.99057376), (0, 1, 0), (0, 1, 0), (0, 0.99999994, 0), (0, 0.99999994, 0), (0, -0, -1), (0, -0, -1), (0, -0, -1), (0, -0, -1), (0.99388933, -0, -0.11038113), (0.99388933, -0, -0.11038113), (0.99388933, -0, -0.11038113), (0.99388933, -0, -0.11038113), (-1, -0, 0), (-1, -0, 0), (-1, -0, 0), (-1, -0, 0)],
            26: [(0, -1, 0), (0, -1, 0), (0, -1, 0), (0, -1, 0), (-0.12347244, -0, 0.99234796), (-0.12347244, -0, 0.99234796), (-0.12347244, -0, 0.99234796), (-0.12347244, -0, 0.99234796), (0, 1, 0), (0, 1, 0), (0, 1, 0), (0, 1, 0), (0, -0, -1), (0, -0, -1), (0, -0, -1), (0, -0, -1), (0.9950205, -0, -0.09966985), (0.9950205, -0, -0.09966985), (0.9950205, -0, -0.09966985), (0.9950205, -0, -0.09966985), (-1, -0, 0), (-1, -0, 0), (-1, -0, 0), (-1, -0, 0)],
            27: [(0, -1, 0), (0, -1, 0), (0, -1, 0), (0, -1, 0), (-0.11458009, -0, 0.99341404), (-0.11458009, -0, 0.99341404), (-0.11458009, -0, 0.99341404), (-0.11458009, -0, 0.99341404), (0, 1, 0), (0, 1, 0), (0, 1, 0), (0, 1, 0), (0, -0, -1), (0, -0, -1), (0, -0, -1), (0, -0, -1), (0.9957033, -0, -0.092601694), (0.9957033, -0, -0.092601694), (0.9957033, -0, -0.092601694), (0.9957033, -0, -0.092601694), (-1, -0, 0), (-1, -0, 0), (-1, -0, 0), (-1, -0, 0)],
            28: [(0, -1, 0), (0, -1, 0), (0, -1, 0), (0, -1, 0), (-0.1085691, -0, 0.9940889), (-0.1085691, -0, 0.9940889), (-0.1085691, -0, 0.9940889), (-0.1085691, -0, 0.9940889), (0, 1, 0), (0, 1, 0), (0, 1, 0), (0, 1, 0), (0, -0, -1), (0, -0, -1), (0, -0, -1), (0, -0, -1), (0.9961367, -0, -0.08781574), (0.9961367, -0, -0.08781574), (0.9961367, -0, -0.08781574), (0.9961367, -0, -0.08781574), (-1, -0, 0), (-1, -0, 0), (-1, -0, 0), (-1, -0, 0)],
            29: [(0, -1, 0), (0, -1, 0), (0, -0.99999994, 0), (0, -1, 0), (-0.10266529, -0, 0.9947159), (-0.10266529, -0, 0.9947159), (-0.10266529, -0, 0.9947159), (-0.10266529, -0, 0.9947159), (0, 1, 0), (0, 0.99999994, 0), (0, 1, 0), (0, 1, 0), (0, -0, -1), (0, -0, -1), (0, -0, -1), (0, -0, -1), (0.9965405, -0, -0.08310849), (0.9965405, -0, -0.08310849), (0.9965405, -0, -0.08310849), (0.9965405, -0, -0.08310849), (-1, -0, 0), (-1, -0, 0), (-1, -0, 0), (-1, -0, 0)],
            30: [(0, -1, 0), (0, -1, 0), (0, -1, 0), (0, -1, 0), (-0.096874654, -0, 0.99529666), (-0.096874654, -0, 0.99529666), (-0.096874654, -0, 0.99529666), (-0.096874654, -0, 0.99529666), (0, 1, 0), (0, 1, 0), (0, 1, 0), (0, 1, 0), (0, -0, -1), (0, -0, -1), (0, -0, -1), (0, -0, -1), (0.9969153, -0, -0.07848497), (0.9969153, -0, -0.07848497), (0.9969153, -0, -0.07848497), (0.9969153, -0, -0.07848497), (-1, -0, 0), (-1, -0, 0), (-1, -0, 0), (-1, -0, 0)],
            31: [(0, -0.99999994, 0), (0, -1, 0), (0, -1, 0), (0, -1, 0), (-0.0912033, -0, 0.99583226), (-0.0912033, -0, 0.99583226), (-0.0912033, -0, 0.99583226), (-0.0912033, -0, 0.99583226), (0, 1, 0), (0, 1, 0), (0, 1, 0), (0, 0.99999994, 0), (0, -0, -1), (0, -0, -1), (0, -0, -1), (0, -0, -1), (0.99726194, -0, -0.07395012), (0.99726194, -0, -0.07395012), (0.99726194, -0, -0.07395012), (0.99726194, -0, -0.07395012), (-1, -0, 0), (-1, -0, 0), (-1, -0, 0), (-1, -0, 0)],
            32: [(0, -1, 0), (0, -1, 0), (0, -1, 0), (0, -1, 0), (-0.08565692, -0, 0.9963247), (-0.08565692, -0, 0.9963247), (-0.08565692, -0, 0.9963247), (-0.08565692, -0, 0.9963247), (0, 1, 0), (0, 1, 0), (0, 1, 0), (0, 1, 0), (0, -0, -1), (0, -0, -1), (0, -0, -1), (0, -0, -1), (0.99758136, -0, -0.06950891), (0.99758136, -0, -0.06950891), (0.99758136, -0, -0.06950891), (0.99758136, -0, -0.06950891), (-1, -0, 0), (-1, -0, 0), (-1, -0, 0), (-1, -0, 0)],
            33: [(0, -1, 0), (0, -1, 0), (0, -1, 0), (0, -1, 0), (-0.080241375, -0, 0.99677545), (-0.080241375, -0, 0.99677545), (-0.080241375, -0, 0.99677545), (-0.080241375, -0, 0.99677545), (0, 1, 0), (0, 1, 0), (0, 1, 0), (0, 1, 0), (0, -0, -1), (0, -0, -1), (0, -0, -1), (0, -0, -1), (0.99787444, -0, -0.06516622), (0.99787444, -0, -0.06516622), (0.99787444, -0, -0.06516622), (0.99787444, -0, -0.06516622), (-1, -0, 0), (-1, -0, 0), (-1, -0, 0), (-1, -0, 0)],
            34: [(0, -1, 0), (0, -1, 0), (0, -1, 0), (0, -1, 0), (-0.074962266, -0, 0.9971863), (-0.074962266, -0, 0.9971863), (-0.074962266, -0, 0.9971863), (-0.074962266, -0, 0.9971863), (0, 1, 0), (0, 1, 0), (0, 1, 0), (0, 1, 0), (0, -0, -1), (0, -0, -1), (0, -0, -1), (0, -0, -1), (0.9981422, -0, -0.060926907), (0.9981422, -0, -0.060926907), (0.9981422, -0, -0.060926907), (0.9981422, -0, -0.060926907), (-1, -0, 0), (-1, -0, 0), (-1, -0, 0), (-1, -0, 0)],
            35: [(0, -1, 0), (0, -1, 0), (0, -1, 0), (0, -1, 0), (-0.06982518, -0, 0.9975592), (-0.06982518, -0, 0.9975592), (-0.06982518, -0, 0.9975592), (-0.06982518, -0, 0.9975592), (0, 1, 0), (0, 1, 0), (0, 1, 0), (0, 1, 0), (0, -0, -1), (0, -0, -1), (0, -0, -1), (0, -0, -1), (0.9983858, -0, -0.05679571), (0.9983858, -0, -0.05679571), (0.9983858, -0, -0.05679571), (0.9983858, -0, -0.05679571), (-1, -0, 0), (-1, -0, 0), (-1, -0, 0), (-1, -0, 0)],
            36: [(0, -1, 0), (0, -1, 0), (0, -1, 0), (0, -1, 0), (-0.0648355, -0, 0.997896), (-0.0648355, -0, 0.997896), (-0.0648355, -0, 0.997896), (-0.0648355, -0, 0.997896), (0, 1, 0), (0, 1, 0), (0, 1, 0), (0, 1, 0), (0, -0, -1), (0, -0, -1), (0, -0, -1), (0, -0, -1), (0.99860626, -0, -0.05277736), (0.99860626, -0, -0.05277736), (0.99860626, -0, -0.05277736), (0.99860626, -0, -0.05277736), (-1, -0, 0), (-1, -0, 0), (-1, -0, 0), (-1, -0, 0)],
            37: [(0, -1, 0), (0, -1, 0), (0, -1, 0), (0, -1, 0), (-0.059998445, -0, 0.99819845), (-0.059998445, -0, 0.99819845), (-0.059998445, -0, 0.99819845), (-0.059998445, -0, 0.99819845), (0, 1, 0), (0, 1, 0), (0, 1, 0), (0, 1, 0), (0, -0, -1), (0, -0, -1), (0, -0, -1), (0, -0, -1), (0.99880487, -0, -0.048876427), (0.99880487, -0, -0.048876427), (0.99880487, -0, -0.048876427), (0.99880487, -0, -0.048876427), (-1, -0, 0), (-1, -0, 0), (-1, -0, 0), (-1, -0, 0)],
            38: [(0, -1, 0), (0, -0.99999994, 0), (0, -1, 0), (0, -0.99999994, 0), (-0.0553191, -0, 0.9984687), (-0.0553191, -0, 0.9984687), (-0.0553191, -0, 0.9984687), (-0.0553191, -0, 0.9984687), (0, 0.99999994, 0), (0, 1, 0), (0, 1, 0), (0, 1, 0), (0, -0, -1), (0, -0, -1), (0, -0, -1), (0, -0, -1), (0.99898255, -0, -0.045097496), (0.99898255, -0, -0.045097496), (0.99898255, -0, -0.045097496), (0.99898255, -0, -0.045097496), (-1, -0, 0), (-1, -0, 0), (-1, -0, 0), (-1, -0, 0)],
            39: [(0, -1, 0), (0, -1, 0), (0, -0.99999994, 0), (0, -1, 0), (-0.050802354, -0, 0.9987088), (-0.050802354, -0, 0.9987088), (-0.050802354, -0, 0.9987088), (-0.050802354, -0, 0.9987088), (0, 1, 0), (0, 0.99999994, 0), (0, 1, 0), (0, 1, 0), (0, -0, -1), (0, -0, -1), (0, -0, -1), (0, -0, -1), (0.99914086, -0, -0.04144494), (0.99914086, -0, -0.04144494), (0.99914086, -0, -0.04144494), (0.99914086, -0, -0.04144494), (-1, -0, 0), (-1, -0, 0), (-1, -0, 0), (-1, -0, 0)],
            40: [(0, -0.99999994, 0), (0, -1, 0), (0, -0.99999994, 0), (0, -1, 0), (-0.046452943, -0, 0.9989204), (-0.046452943, -0, 0.9989204), (-0.046452943, -0, 0.9989204), (-0.046452943, -0, 0.9989204), (0, 1, 0), (0, 0.99999994, 0), (0, 1, 0), (0, 0.99999994, 0), (0, -0, -1), (0, -0, -1), (0, -0, -1), (0, -0, -1), (0.99928063, -0, -0.037923027), (0.99928063, -0, -0.037923027), (0.99928063, -0, -0.037923027), (0.99928063, -0, -0.037923027), (-1, -0, 0), (-1, -0, 0), (-1, -0, 0), (-1, -0, 0)],
            41: [(0, -1, 0), (0, -0.99999994, 0), (0, -1, 0), (0, -1, 0), (-0.04227551, -0, 0.99910593), (-0.04227551, -0, 0.99910593), (-0.04227551, -0, 0.99910593), (-0.04227551, -0, 0.99910593), (0, 1, 0), (0, 1, 0), (0, 0.99999994, 0), (0, 1, 0), (0, -0, -1), (0, -0, -1), (0, -0, -1), (0, -0, -1), (0.9994035, -0, -0.03453591), (0.9994035, -0, -0.03453591), (0.9994035, -0, -0.03453591), (0.9994035, -0, -0.03453591), (-1, -0, 0), (-1, -0, 0), (-1, -0, 0), (-1, -0, 0)],
            42: [(0, -1, 0), (0, -1, 0), (0, -1, 0), (0, -1, 0), (-0.038274407, -0, 0.99926734), (-0.038274407, -0, 0.99926734), (-0.038274407, -0, 0.99926734), (-0.038274407, -0, 0.99926734), (0, 1, 0), (0, 1, 0), (0, 1, 0), (0, 1, 0), (0, -0, -1), (0, -0, -1), (0, -0, -1), (0, -0, -1), (0.99951035, -0, -0.031287715), (0.99951035, -0, -0.031287715), (0.99951035, -0, -0.031287715), (0.99951035, -0, -0.031287715), (-1, -0, 0), (-1, -0, 0), (-1, -0, 0), (-1, -0, 0)],
            43: [(0, -1, 0), (0, -1, 0), (0, -1, 0), (0, -1, 0), (-0.03445379, -0, 0.99940634), (-0.03445379, -0, 0.99940634), (-0.03445379, -0, 0.99940634), (-0.03445379, -0, 0.99940634), (0, 1, 0), (0, 1, 0), (0, 1, 0), (0, 1, 0), (0, -0, -1), (0, -0, -1), (0, -0, -1), (0, -0, -1), (0.9996028, -0, -0.028182132), (0.9996028, -0, -0.028182132), (0.9996028, -0, -0.028182132), (0.9996028, -0, -0.028182132), (-1, -0, 0), (-1, -0, 0), (-1, -0, 0), (-1, -0, 0)],
            44: [(0, -1, 0), (0, -1, 0), (0, -1, 0), (0, -1, 0), (-0.030817531, -0, 0.99952507), (-0.030817531, -0, 0.99952507), (-0.030817531, -0, 0.99952507), (-0.030817531, -0, 0.99952507), (0, 1, 0), (0, 1, 0), (0, 1, 0), (0, 1, 0), (0, -0, -1), (0, -0, -1), (0, -0, -1), (0, -0, -1), (0.9996819, -0, -0.025223), (0.9996819, -0, -0.025223), (0.9996819, -0, -0.025223), (0.9996819, -0, -0.025223), (-1, -0, 0), (-1, -0, 0), (-1, -0, 0), (-1, -0, 0)],
            45: [(0, -1, 0), (0, -1, 0), (0, -1, 0), (0, -1, 0), (-0.027369462, -0, 0.9996254), (-0.027369462, -0, 0.9996254), (-0.027369462, -0, 0.9996254), (-0.027369462, -0, 0.9996254), (0, 1, 0), (0, 1, 0), (0, 1, 0), (0, 1, 0), (0, -0, -1), (0, -0, -1), (0, -0, -1), (0, -0, -1), (0.9997488, -0, -0.022413796), (0.9997488, -0, -0.022413796), (0.9997488, -0, -0.022413796), (0.9997488, -0, -0.022413796), (-1, -0, 0), (-1, -0, 0), (-1, -0, 0), (-1, -0, 0)],
            46: [(0, -1, 0), (0, -1, 0), (0, -1, 0), (0, -1, 0), (-0.02411321, -0, 0.99970925), (-0.02411321, -0, 0.99970925), (-0.02411321, -0, 0.99970925), (-0.02411321, -0, 0.99970925), (0, 1, 0), (0, 1, 0), (0, 1, 0), (0, 1, 0), (0, -0, -1), (0, -0, -1), (0, -0, -1), (0, -0, -1), (0.99980485, -0, -0.019757904), (0.99980485, -0, -0.019757904), (0.99980485, -0, -0.019757904), (0.99980485, -0, -0.019757904), (-1, -0, 0), (-1, -0, 0), (-1, -0, 0), (-1, -0, 0)],
            47: [(0, -1, 0), (0, -0.99999994, 0), (0, -1, 0), (0, -1, 0), (-0.021052003, -0, 0.99977845), (-0.021052003, -0, 0.99977845), (-0.021052003, -0, 0.99977845), (-0.021052003, -0, 0.99977845), (0, 1, 0), (0, 1, 0), (0, 0.99999994, 0), (0, 1, 0), (0, -0, -1), (0, -0, -1), (0, -0, -1), (0, -0, -1), (0.9998511, -0, -0.017258557), (0.9998511, -0, -0.017258557), (0.9998511, -0, -0.017258557), (0.9998511, -0, -0.017258557), (-1, -0, 0), (-1, -0, 0), (-1, -0, 0), (-1, -0, 0)],
            48: [(0, -1, 0), (0, -1, 0), (0, -1, 0), (0, -1, 0), (-0.018188925, -0, 0.99983454), (-0.018188925, -0, 0.99983454), (-0.018188925, -0, 0.99983454), (-0.018188925, -0, 0.99983454), (0, 1, 0), (0, 1, 0), (0, 1, 0), (0, 1, 0), (0, -0, -1), (0, -0, -1), (0, -0, -1), (0, -0, -1), (0.9998887, -0, -0.014918669), (0.9998887, -0, -0.014918669), (0.9998887, -0, -0.014918669), (0.9998887, -0, -0.014918669), (-1, -0, 0), (-1, -0, 0), (-1, -0, 0), (-1, -0, 0)],
            49: [(0, -1, 0), (0, -1, 0), (0, -1, 0), (0, -1, 0), (-0.015526953, -0, 0.9998795), (-0.015526953, -0, 0.9998795), (-0.015526953, -0, 0.9998795), (-0.015526953, -0, 0.9998795), (0, 1, 0), (0, 1, 0), (0, 1, 0), (0, 1, 0), (0, -0, -1), (0, -0, -1), (0, -0, -1), (0, -0, -1), (0.9999188, -0, -0.012741115), (0.9999188, -0, -0.012741115), (0.9999188, -0, -0.012741115), (0.9999188, -0, -0.012741115), (-1, -0, 0), (-1, -0, 0), (-1, -0, 0), (-1, -0, 0)],
            50: [(0, -1, 0), (0, -1, 0), (0, -1, 0), (0, -1, 0), (-0.013068721, -0, 0.9999146), (-0.013068721, -0, 0.9999146), (-0.013068721, -0, 0.9999146), (-0.013068721, -0, 0.9999146), (0, 1, 0), (0, 1, 0), (0, 1, 0), (0, 1, 0), (0, -0, -1), (0, -0, -1), (0, -0, -1), (0, -0, -1), (0.9999425, -0, -0.0107284505), (0.9999425, -0, -0.0107284505), (0.9999425, -0, -0.0107284505), (0.9999425, -0, -0.0107284505), (-1, -0, 0), (-1, -0, 0), (-1, -0, 0), (-1, -0, 0)],
            51: [(0, -1, 0), (0, -1, 0), (0, -1, 0), (0, -1, 0), (-0.010816645, -0, 0.9999415), (-0.010816645, -0, 0.9999415), (-0.010816645, -0, 0.9999415), (-0.010816645, -0, 0.9999415), (0, 1, 0), (0, 1, 0), (0, 1, 0), (0, 1, 0), (0, -0, -1), (0, -0, -1), (0, -0, -1), (0, -0, -1), (0.99996054, -0, -0.008883099), (0.99996054, -0, -0.008883099), (0.99996054, -0, -0.008883099), (0.99996054, -0, -0.008883099), (-1, -0, 0), (-1, -0, 0), (-1, -0, 0), (-1, -0, 0)],
            52: [(0, -1, 0), (0, -1, 0), (0, -1, 0), (0, -1, 0), (-0.008772808, -0, 0.9999615), (-0.008772808, -0, 0.9999615), (-0.008772808, -0, 0.9999615), (-0.008772808, -0, 0.9999615), (0, 1, 0), (0, 1, 0), (0, 1, 0), (0, 1, 0), (0, -0, -1), (0, -0, -1), (0, -0, -1), (0, -0, -1), (0.99997395, -0, -0.0072072395), (0.99997395, -0, -0.0072072395), (0.99997395, -0, -0.0072072395), (0.99997395, -0, -0.0072072395), (-1, -0, 0), (-1, -0, 0), (-1, -0, 0), (-1, -0, 0)],
            53: [(0, -1, 0), (0, -1, 0), (0, -1, 0), (0, -1, 0), (-0.006939351, -0, 0.9999759), (-0.006939351, -0, 0.9999759), (-0.006939351, -0, 0.9999759), (-0.006939351, -0, 0.9999759), (0, 1, 0), (0, 1, 0), (0, 1, 0), (0, 1, 0), (0, -0, -1), (0, -0, -1), (0, -0, -1), (0, -0, -1), (0.99998367, -0, -0.0057027875), (0.99998367, -0, -0.0057027875), (0.99998367, -0, -0.0057027875), (0.99998367, -0, -0.0057027875), (-1, -0, 0), (-1, -0, 0), (-1, -0, 0), (-1, -0, 0)],
            54: [(0, -1, 0), (0, -1, 0), (0, -1, 0), (0, -1, 0), (-0.005317892, -0, 0.99998593), (-0.005317892, -0, 0.99998593), (-0.005317892, -0, 0.99998593), (-0.005317892, -0, 0.99998593), (0, 1, 0), (0, 1, 0), (0, 1, 0), (0, 1, 0), (0, -0, -1), (0, -0, -1), (0, -0, -1), (0, -0, -1), (0.99999046, -0, -0.004371521), (0.99999046, -0, -0.004371521), (0.99999046, -0, -0.004371521), (0.99999046, -0, -0.004371521), (-1, -0, 0), (-1, -0, 0), (-1, -0, 0), (-1, -0, 0)],
            55: [(0, -1, 0), (0, -1, 0), (0, -1, 0), (0, -1, 0), (-0.003910003, -0, 0.9999924), (-0.003910003, -0, 0.9999924), (-0.003910003, -0, 0.9999924), (-0.003910003, -0, 0.9999924), (0, 1, 0), (0, 1, 0), (0, 1, 0), (0, 1, 0), (0, -0, -1), (0, -0, -1), (0, -0, -1), (0, -0, -1), (0.9999948, -0, -0.0032149493), (0.9999948, -0, -0.0032149493), (0.9999948, -0, -0.0032149493), (0.9999948, -0, -0.0032149493), (-1, -0, 0), (-1, -0, 0), (-1, -0, 0), (-1, -0, 0)],
            56: [(0, -1, 0), (0, -1, 0), (0, -1, 0), (0, -1, 0), (-0.002716834, -0, 0.99999636), (-0.002716834, -0, 0.99999636), (-0.002716834, -0, 0.99999636), (-0.002716834, -0, 0.99999636), (0, 1, 0), (0, 1, 0), (0, 1, 0), (0, 1, 0), (0, -0, -1), (0, -0, -1), (0, -0, -1), (0, -0, -1), (0.9999975, -0, -0.0022343202), (0.9999975, -0, -0.0022343202), (0.9999975, -0, -0.0022343202), (0.9999975, -0, -0.0022343202), (-1, -0, 0), (-1, -0, 0), (-1, -0, 0), (-1, -0, 0)],
            57: [(0, -1, 0), (0, -1, 0), (0, -1, 0), (0, -0.99999994, 0), (-0.0017394857, -0, 0.9999985), (-0.0017394857, -0, 0.9999985), (-0.0017394857, -0, 0.9999985), (-0.0017394857, -0, 0.9999985), (0, 0.99999994, 0), (0, 1, 0), (0, 1, 0), (0, 1, 0), (0, -0, -1), (0, -0, -1), (0, -0, -1), (0, -0, -1), (0.99999905, -0, -0.0014307643), (0.99999905, -0, -0.0014307643), (0.99999905, -0, -0.0014307643), (0.99999905, -0, -0.0014307643), (-1, -0, 0), (-1, -0, 0), (-1, -0, 0), (-1, -0, 0)],
            58: [(0, -1, 0), (0, -1, 0), (0, -1, 0), (0, -1, 0), (-0.0009786342, -0, 0.9999995), (-0.0009786342, -0, 0.9999995), (-0.0009786342, -0, 0.9999995), (-0.0009786342, -0, 0.9999995), (0, 1, 0), (0, 1, 0), (0, 1, 0), (0, 1, 0), (0, -0, -1), (0, -0, -1), (0, -0, -1), (0, -0, -1), (0.9999997, -0, -0.00080510415), (0.9999997, -0, -0.00080510415), (0.9999997, -0, -0.00080510415), (0.9999997, -0, -0.00080510415), (-1, -0, 0), (-1, -0, 0), (-1, -0, 0), (-1, -0, 0)],
            59: [(0, -1, 0), (0, -1, 0), (0, -1, 0), (0, -1, 0), (-0.00043500584, -0, 0.99999994), (-0.00043500584, -0, 0.99999994), (-0.00043500584, -0, 0.99999994), (-0.00043500584, -0, 0.99999994), (0, 1, 0), (0, 1, 0), (0, 1, 0), (0, 1, 0), (0, -0, -1), (0, -0, -1), (0, -0, -1), (0, -0, -1), (0.9999999, -0, -0.0003578536), (0.9999999, -0, -0.0003578536), (0.9999999, -0, -0.0003578536), (0.9999999, -0, -0.0003578536), (-1, -0, 0), (-1, -0, 0), (-1, -0, 0), (-1, -0, 0)],
            60: [(0, -1, 0), (0, -1, 0), (0, -1, 0), (0, -1, 0), (0, -0, 1), (0, -0, 1), (0, -0, 1), (0, -0, 1), (0, 1, 0), (0, 1, 0), (0, 1, 0), (0, 1, 0), (0, -0, -1), (0, -0, -1), (0, -0, -1), (0, -0, -1), (1, -0, 0), (1, -0, 0), (1, -0, 0), (1, -0, 0), (-1, -0, 0), (-1, -0, 0), (-1, -0, 0), (-1, -0, 0)],
            61: [(0, -1, 0), (0, -1, 0), (0, -1, 0), (0, -1, 0), (0, -0, 1), (0, -0, 1), (0, -0, 1), (0, -0, 1), (0, 1, 0), (0, 1, 0), (0, 1, 0), (0, 1, 0), (0, -0, -1), (0, -0, -1), (0, -0, -1), (0, -0, -1), (1, -0, 0), (1, -0, 0), (1, -0, 0), (1, -0, 0), (-1, -0, 0), (-1, -0, 0), (-1, -0, 0), (-1, -0, 0)],
            62: [(0, -1, 0), (0, -1, 0), (0, -1, 0), (0, -1, 0), (0.0020612672, -0, 0.99999785), (0.0020612672, -0, 0.99999785), (0.0020612672, -0, 0.99999785), (0.0020612672, -0, 0.99999785), (0, 1, 0), (0, 1, 0), (0, 1, 0), (0, 1, 0), (0, -0, -1), (0, -0, -1), (0, -0, -1), (0, -0, -1), (1, -0, 0), (1, -0, 0), (1, -0, 0), (1, -0, 0), (-1, -0, 0), (-1, -0, 0), (-1, -0, 0), (-1, -0, 0)],
            63: [(0, -1, 0), (0, -1, 0), (0, -1, 0), (0, -1, 0), (0.008009274, -0, 0.99996793), (0.008009274, -0, 0.99996793), (0.008009274, -0, 0.99996793), (0.008009274, -0, 0.99996793), (0, 1, 0), (0, 1, 0), (0, 1, 0), (0, 1, 0), (0, -0, -1), (0, -0, -1), (0, -0, -1), (0, -0, -1), (1, -0, 0), (1, -0, 0), (1, -0, 0), (1, -0, 0), (-1, -0, 0), (-1, -0, 0), (-1, -0, 0), (-1, -0, 0)],
            64: [(0, -1, 0), (0, -1, 0), (0, -1, 0), (0, -1, 0), (0.017488666, -0, 0.99984705), (0.017488666, -0, 0.99984705), (0.017488666, -0, 0.99984705), (0.017488666, -0, 0.99984705), (0, 1, 0), (0, 1, 0), (0, 1, 0), (0, 1, 0), (0, -0, -1), (0, -0, -1), (0, -0, -1), (0, -0, -1), (1, -0, 0), (1, -0, 0), (1, -0, 0), (1, -0, 0), (-1, -0, 0), (-1, -0, 0), (-1, -0, 0), (-1, -0, 0)],
            65: [(0, -1, 0), (0, -1, 0), (0, -1, 0), (0, -1, 0), (0.03013967, -0, 0.9995457), (0.03013967, -0, 0.9995457), (0.03013967, -0, 0.9995457), (0.03013967, -0, 0.9995457), (0, 1, 0), (0, 1, 0), (0, 1, 0), (0, 1, 0), (0, -0, -1), (0, -0, -1), (0, -0, -1), (0, -0, -1), (1, -0, 0), (1, -0, 0), (1, -0, 0), (1, -0, 0), (-1, -0, 0), (-1, -0, 0), (-1, -0, 0), (-1, -0, 0)],
            66: [(0, -1, 0), (0, -1, 0), (0, -0.99999994, 0), (0, -0.99999994, 0), (0.045594815, -0, 0.99896), (0.045594815, -0, 0.99896), (0.045594815, -0, 0.99896), (0.045594815, -0, 0.99896), (0, 0.99999994, 0), (0, 0.99999994, 0), (0, 1, 0), (0, 1, 0), (0, -0, -1), (0, -0, -1), (0, -0, -1), (0, -0, -1), (1, -0, 0), (1, -0, 0), (1, -0, 0), (1, -0, 0), (-1, -0, 0), (-1, -0, 0), (-1, -0, 0), (-1, -0, 0)],
            67: [(0, -1, 0), (0, -1, 0), (0, -1, 0), (0, -1, 0), (0.06347647, -0, 0.99798334), (0.06347647, -0, 0.99798334), (0.06347647, -0, 0.99798334), (0.06347647, -0, 0.99798334), (0, 1, 0), (0, 1, 0), (0, 1, 0), (0, 1, 0), (0, -0, -1), (0, -0, -1), (0, -0, -1), (0, -0, -1), (1, -0, 0), (1, -0, 0), (1, -0, 0), (1, -0, 0), (-1, -0, 0), (-1, -0, 0), (-1, -0, 0), (-1, -0, 0)],
            68: [(0, -1, 0), (0, -1, 0), (0, -1, 0), (0, -1, 0), (0.08339579, -0, 0.99651647), (0.08339579, -0, 0.99651647), (0.08339579, -0, 0.99651647), (0.08339579, -0, 0.99651647), (0, 1, 0), (0, 1, 0), (0, 1, 0), (0, 1, 0), (0, -0, -1), (0, -0, -1), (0, -0, -1), (0, -0, -1), (1, -0, 0), (1, -0, 0), (1, -0, 0), (1, -0, 0), (-1, -0, 0), (-1, -0, 0), (-1, -0, 0), (-1, -0, 0)],
            69: [(0, -1, 0), (0, -1, 0), (0, -1, 0), (0, -1, 0), (0.10495388, -0, 0.99447715), (0.10495388, -0, 0.99447715), (0.10495388, -0, 0.99447715), (0.10495388, -0, 0.99447715), (0, 1, 0), (0, 1, 0), (0, 1, 0), (0, 1, 0), (0, -0, -1), (0, -0, -1), (0, -0, -1), (0, -0, -1), (1, -0, 0), (1, -0, 0), (1, -0, 0), (1, -0, 0), (-1, -0, 0), (-1, -0, 0), (-1, -0, 0), (-1, -0, 0)],
            70: [(0, -0.99999994, 0), (0, -0.99999994, 0), (0, -0.99999994, 0), (0, -1, 0), (0.1277443, -0, 0.9918071), (0.1277443, -0, 0.9918071), (0.1277443, -0, 0.9918071), (0.1277443, -0, 0.9918071), (0, 1, 0), (0, 0.99999994, 0), (0, 0.99999994, 0), (0, 0.99999994, 0), (0, -0, -1), (0, -0, -1), (0, -0, -1), (0, -0, -1), (1, -0, 0), (1, -0, 0), (1, -0, 0), (1, -0, 0), (-1, -0, 0), (-1, -0, 0), (-1, -0, 0), (-1, -0, 0)],
            71: [(0, -1, 0), (0, -1, 0), (0, -1, 0), (0, -1, 0), (0.1513584, -0, 0.988479), (0.1513584, -0, 0.988479), (0.1513584, -0, 0.988479), (0.1513584, -0, 0.988479), (0, 1, 0), (0, 1, 0), (0, 1, 0), (0, 1, 0), (0, -0, -1), (0, -0, -1), (0, -0, -1), (0, -0, -1), (1, -0, 0), (1, -0, 0), (1, -0, 0), (1, -0, 0), (-1, -0, 0), (-1, -0, 0), (-1, -0, 0), (-1, -0, 0)],
            72: [(0, -1, 0), (0, -1, 0), (0, -1, 0), (0, -1, 0), (0.17539054, -0, 0.984499), (0.17539054, -0, 0.984499), (0.17539054, -0, 0.984499), (0.17539054, -0, 0.984499), (0, 1, 0), (0, 1, 0), (0, 1, 0), (0, 1, 0), (0, -0, -1), (0, -0, -1), (0, -0, -1), (0, -0, -1), (1, -0, 0), (1, -0, 0), (1, -0, 0), (1, -0, 0), (-1, -0, 0), (-1, -0, 0), (-1, -0, 0), (-1, -0, 0)],
            73: [(0, -0.99999994, 0), (0, -0.99999994, 0), (0, -1, 0), (0, -1, 0), (0.19944583, -0, 0.9799088), (0.19944583, -0, 0.9799088), (0.19944583, -0, 0.9799088), (0.19944583, -0, 0.9799088), (0, 1, 0), (0, 1, 0), (0, 0.99999994, 0), (0, 0.99999994, 0), (0, -0, -1), (0, -0, -1), (0, -0, -1), (0, -0, -1), (1, -0, 0), (1, -0, 0), (1, -0, 0), (1, -0, 0), (-1, -0, 0), (-1, -0, 0), (-1, -0, 0), (-1, -0, 0)],
            74: [(0, -1, 0), (0, -1, 0), (0, -1, 0), (0, -1, 0), (0.22314593, -0, 0.97478515), (0.22314593, -0, 0.97478515), (0.22314593, -0, 0.97478515), (0.22314593, -0, 0.97478515), (0, 1, 0), (0, 1, 0), (0, 1, 0), (0, 1, 0), (0, -0, -1), (0, -0, -1), (0, -0, -1), (0, -0, -1), (1, -0, 0), (1, -0, 0), (1, -0, 0), (1, -0, 0), (-0.99999994, -0, 0), (-0.99999994, -0, 0), (-0.99999994, -0, 0), (-0.99999994, -0, 0)],
            75: [(0, -1, 0), (0, -1, 0), (0, -1, 0), (0, -1, 0), (0.24613518, -0, 0.96923554), (0.24613518, -0, 0.96923554), (0.24613518, -0, 0.96923554), (0.24613518, -0, 0.96923554), (0, 1, 0), (0, 1, 0), (0, 1, 0), (0, 1, 0), (0, -0, -1), (0, -0, -1), (0, -0, -1), (0, -0, -1), (1, -0, 0), (1, -0, 0), (1, -0, 0), (1, -0, 0), (-1, -0, 0), (-1, -0, 0), (-1, -0, 0), (-1, -0, 0)],
            76: [(0, -1, 0), (0, -1, 0), (0, -1, 0), (0, -1, 0), (0.2680847, -0, 0.9633953), (0.2680847, -0, 0.9633953), (0.2680847, -0, 0.9633953), (0.2680847, -0, 0.9633953), (0, 1, 0), (0, 1, 0), (0, 1, 0), (0, 1, 0), (0, -0, -1), (0, -0, -1), (0, -0, -1), (0, -0, -1), (1, -0, 0), (1, -0, 0), (1, -0, 0), (1, -0, 0), (-1, -0, 0), (-1, -0, 0), (-1, -0, 0), (-1, -0, 0)],
            77: [(0, -0.99999994, 0), (0, -0.99999994, 0), (0, -1, 0), (0, -1, 0), (0.2886946, -0, 0.95742124), (0.2886946, -0, 0.95742124), (0.2886946, -0, 0.95742124), (0.2886946, -0, 0.95742124), (0, 1, 0), (0, 1, 0), (0, 0.99999994, 0), (0, 0.99999994, 0), (0, -0, -1), (0, -0, -1), (0, -0, -1), (0, -0, -1), (1, -0, 0), (1, -0, 0), (1, -0, 0), (1, -0, 0), (-1, -0, 0), (-1, -0, 0), (-1, -0, 0), (-1, -0, 0)],
            78: [(0, -1, 0), (0, -1, 0), (0, -0.99999994, 0), (0, -1, 0), (0.30769414, -0, 0.9514853), (0.30769414, -0, 0.9514853), (0.30769414, -0, 0.9514853), (0.30769414, -0, 0.9514853), (0, 1, 0), (0, 0.99999994, 0), (0, 1, 0), (0, 1, 0), (0, -0, -1), (0, -0, -1), (0, -0, -1), (0, -0, -1), (1, -0, 0), (1, -0, 0), (1, -0, 0), (1, -0, 0), (-1, -0, 0), (-1, -0, 0), (-1, -0, 0), (-1, -0, 0)],
            79: [(0, -0.99999994, 0), (0, -0.99999994, 0), (0, -1, 0), (0, -1, 0), (0.32483912, -0, 0.94576925), (0.32483912, -0, 0.94576925), (0.32483912, -0, 0.94576925), (0.32483912, -0, 0.94576925), (0, 1, 0), (0, 1, 0), (0, 0.99999994, 0), (0, 0.99999994, 0), (0, -0, -1), (0, -0, -1), (0, -0, -1), (0, -0, -1), (1, -0, 0), (1, -0, 0), (1, -0, 0), (1, -0, 0), (-1, -0, 0), (-1, -0, 0), (-1, -0, 0), (-1, -0, 0)],
            80: [(0, -1, 0), (0, -1, 0), (0, -1, 0), (0, -1, 0), (0.3399081, -0, 0.94045866), (0.3399081, -0, 0.94045866), (0.3399081, -0, 0.94045866), (0.3399081, -0, 0.94045866), (0, 1, 0), (0, 1, 0), (0, 1, 0), (0, 1, 0), (0, -0, -1), (0, -0, -1), (0, -0, -1), (0, -0, -1), (1, -0, 0), (1, -0, 0), (1, -0, 0), (1, -0, 0), (-1, -0, 0), (-1, -0, 0), (-1, -0, 0), (-1, -0, 0)],
            81: [(0, -1, 0), (0, -1, 0), (0, -1, 0), (0, -1, 0), (0.35269552, -0, 0.93573815), (0.35269552, -0, 0.93573815), (0.35269552, -0, 0.93573815), (0.35269552, -0, 0.93573815), (0, 1, 0), (0, 1, 0), (0, 1, 0), (0, 1, 0), (0, -0, -1), (0, -0, -1), (0, -0, -1), (0, -0, -1), (1, -0, 0), (1, -0, 0), (1, -0, 0), (1, -0, 0), (-1, -0, 0), (-1, -0, 0), (-1, -0, 0), (-1, -0, 0)],
            82: [(0, -1, 0), (0, -1, 0), (0, -1, 0), (0, -1, 0), (0.36300477, -0, 0.93178725), (0.36300477, -0, 0.93178725), (0.36300477, -0, 0.93178725), (0.36300477, -0, 0.93178725), (0, 1, 0), (0, 1, 0), (0, 1, 0), (0, 1, 0), (0, -0, -1), (0, -0, -1), (0, -0, -1), (0, -0, -1), (1, -0, 0), (1, -0, 0), (1, -0, 0), (1, -0, 0), (-1, -0, 0), (-1, -0, 0), (-1, -0, 0), (-1, -0, 0)],
            83: [(0, -0.99999994, 0), (0, -0.99999994, 0), (0, -1, 0), (0, -1, 0), (0.37063855, -0, 0.92877716), (0.37063855, -0, 0.92877716), (0.37063855, -0, 0.92877716), (0.37063855, -0, 0.92877716), (0, 1, 0), (0, 1, 0), (0, 0.99999994, 0), (0, 0.99999994, 0), (0, -0, -1), (0, -0, -1), (0, -0, -1), (0, -0, -1), (1, -0, 0), (1, -0, 0), (1, -0, 0), (1, -0, 0), (-0.99999994, -0, 0), (-0.99999994, -0, 0), (-0.99999994, -0, 0), (-0.99999994, -0, 0)],
            84: [(0, -1, 0), (0, -1, 0), (0, -0.99999994, 0), (0, -1, 0), (0.37538952, -0, 0.9268672), (0.37538952, -0, 0.9268672), (0.37538952, -0, 0.9268672), (0.37538952, -0, 0.9268672), (0, 1, 0), (0, 0.99999994, 0), (0, 1, 0), (0, 1, 0), (0, -0, -1), (0, -0, -1), (0, -0, -1), (0, -0, -1), (1, -0, 0), (1, -0, 0), (1, -0, 0), (1, -0, 0), (-1, -0, 0), (-1, -0, 0), (-1, -0, 0), (-1, -0, 0)],
            85: [(0, -1, 0), (0, -1, 0), (0, -0.99999994, 0), (0, -1, 0), (0.37702903, -0, 0.9262014), (0.37702903, -0, 0.9262014), (0.37702903, -0, 0.9262014), (0.37702903, -0, 0.9262014), (0, 1, 0), (0, 0.99999994, 0), (0, 1, 0), (0, 1, 0), (0, -0, -1), (0, -0, -1), (0, -0, -1), (0, -0, -1), (1, -0, 0), (1, -0, 0), (1, -0, 0), (1, -0, 0), (-1, -0, 0), (-1, -0, 0), (-1, -0, 0), (-1, -0, 0)],
            94: [(0, -1, 0), (0, -1, 0), (0, -0.99999994, 0), (0, -1, 0), (0.37702903, -0, 0.9262014), (0.37702903, -0, 0.9262014), (0.37702903, -0, 0.9262014), (0.37702903, -0, 0.9262014), (0, 1, 0), (0, 0.99999994, 0), (0, 1, 0), (0, 1, 0), (0, -0, -1), (0, -0, -1), (0, -0, -1), (0, -0, -1), (1, -0, 0), (1, -0, 0), (1, -0, 0), (1, -0, 0), (-1, -0, 0), (-1, -0, 0), (-1, -0, 0), (-1, -0, 0)],
            95: [(0, -1, 0), (0, -1, 0), (0, -1, 0), (0, -1, 0), (0.37584618, -0, 0.9266822), (0.37584618, -0, 0.9266822), (0.37584618, -0, 0.9266822), (0.37584618, -0, 0.9266822), (0, 1, 0), (0, 1, 0), (0, 1, 0), (0, 1, 0), (0, -0, -1), (0, -0, -1), (0, -0, -1), (0, -0, -1), (0.99999994, -0, -0.00039573648), (0.99999994, -0, -0.00039573648), (0.99999994, -0, -0.00039573648), (0.99999994, -0, -0.00039573648), (-0.99999964, -0, 0.0008126359), (-0.99999964, -0, 0.0008126359), (-0.99999964, -0, 0.0008126359), (-0.99999964, -0, 0.0008126359)],
            96: [(0, -1, 0), (0, -0.99999994, 0), (0, -1, 0), (0, -1, 0), (0.37241843, -0, 0.92806494), (0.37241843, -0, 0.92806494), (0.37241843, -0, 0.92806494), (0.37241843, -0, 0.92806494), (0, 1, 0), (0, 0.99999994, 0), (0, 0.99999994, 0), (0, 1, 0), (0, -0, -1), (0, -0, -1), (0, -0, -1), (0, -0, -1), (0.99999887, -0, -0.0015306005), (0.99999887, -0, -0.0015306005), (0.99999887, -0, -0.0015306005), (0.99999887, -0, -0.0015306005), (-0.999995, -0, 0.0031576322), (-0.999995, -0, 0.0031576322), (-0.999995, -0, 0.0031576322), (-0.999995, -0, 0.0031576322)],
            97: [(0, -1, 0), (0, -0.99999994, 0), (0, -1, 0), (0, -1, 0), (0.3669035, -0, 0.930259), (0.3669035, -0, 0.930259), (0.3669035, -0, 0.930259), (0.3669035, -0, 0.930259), (0, 1, 0), (0, 1, 0), (0, 0.99999994, 0), (0, 1, 0), (0, -0, -1), (0, -0, -1), (0, -0, -1), (0, -0, -1), (0.9999945, -0, -0.0033202798), (0.9999945, -0, -0.0033202798), (0.9999945, -0, -0.0033202798), (0.9999945, -0, -0.0033202798), (-0.9999763, -0, 0.0069001494), (-0.9999763, -0, 0.0069001494), (-0.9999763, -0, 0.0069001494), (-0.9999763, -0, 0.0069001494)],
            98: [(0, -1, 0), (0, -0.99999994, 0), (0, -0.99999994, 0), (0, -1, 0), (0.35943586, -0, 0.9331698), (0.35943586, -0, 0.9331698), (0.35943586, -0, 0.9331698), (0.35943586, -0, 0.9331698), (0, 1, 0), (0, 1, 0), (0, 0.99999994, 0), (0, 1, 0), (0, -0, -1), (0, -0, -1), (0, -0, -1), (0, -0, -1), (0.99998385, -0, -0.005675642), (0.99998385, -0, -0.005675642), (0.99998385, -0, -0.005675642), (0.99998385, -0, -0.005675642), (-0.999929, -0, 0.011909814), (-0.999929, -0, 0.011909814), (-0.999929, -0, 0.011909814), (-0.999929, -0, 0.011909814)],
            99: [(0, -0.99999994, 0), (0, -1, 0), (0, -1, 0), (0, -1, 0), (0.35013548, -0, 0.93669903), (0.35013548, -0, 0.93669903), (0.35013548, -0, 0.93669903), (0.35013548, -0, 0.93669903), (0, 1, 0), (0, 1, 0), (0, 1, 0), (0, 0.99999994, 0), (0, -0, -1), (0, -0, -1), (0, -0, -1), (0, -0, -1), (0.9999638, -0, -0.008505129), (0.9999638, -0, -0.008505129), (0.9999638, -0, -0.008505129), (0.9999638, -0, -0.008505129), (-0.9998369, -0, 0.018058227), (-0.9998369, -0, 0.018058227), (-0.9998369, -0, 0.018058227), (-0.9998369, -0, 0.018058227)],
            100: [(0, -1, 0), (0, -1, 0), (0, -1, 0), (0, -1, 0), (0.33911625, -0, 0.9407444), (0.33911625, -0, 0.9407444), (0.33911625, -0, 0.9407444), (0.33911625, -0, 0.9407444), (0, 1, 0), (0, 1, 0), (0, 0.99999994, 0), (0, 1, 0), (0, -0, -1), (0, -0, -1), (0, -0, -1), (0, -0, -1), (0.99993134, -0, -0.011718004), (0.99993134, -0, -0.011718004), (0.99993134, -0, -0.011718004), (0.99993134, -0, -0.011718004), (-0.9996819, -0, 0.025217189), (-0.9996819, -0, 0.025217189), (-0.9996819, -0, 0.025217189), (-0.9996819, -0, 0.025217189)],
            101: [(0, -1, 0), (0, -1, 0), (0, -0.99999994, 0), (0, -1, 0), (0.32649451, -0, 0.9451991), (0.32649451, -0, 0.9451991), (0.32649451, -0, 0.9451991), (0.32649451, -0, 0.9451991), (0, 1, 0), (0, 1, 0), (0, 1, 0), (0, 1, 0), (0, -0, -1), (0, -0, -1), (0, -0, -1), (0, -0, -1), (0.99988407, -0, -0.015225803), (0.99988407, -0, -0.015225803), (0.99988407, -0, -0.015225803), (0.99988407, -0, -0.015225803), (-0.99944687, -0, 0.03325691), (-0.99944687, -0, 0.03325691), (-0.99944687, -0, 0.03325691), (-0.99944687, -0, 0.03325691)],
            102: [(-6.358045e-8, -1, 0), (-6.358046e-8, -1, 0), (-6.358046e-8, -1, 0), (-6.358046e-8, -1, 0), (0.31239578, -0, 0.94995207), (0.31239578, -0, 0.94995207), (0.31239578, -0, 0.94995207), (0.31239578, -0, 0.94995207), (-6.358046e-8, 1, 0), (-6.358045e-8, 1, 0), (-6.358045e-8, 1, 0), (-6.358046e-8, 1, 0), (0, -0, -1), (0, -0, -1), (0, -0, -1), (0, -0, -1), (0.9998206, -0, -0.018944528), (0.9998206, -0, -0.018944528), (0.9998206, -0, -0.018944528), (0.9998206, -0, -0.018944528), (-0.9991157, -0, 0.042044695), (-0.9991157, -0, 0.042044695), (-0.9991157, -0, 0.042044695), (-0.9991157, -0, 0.042044695)],
            103: [(0, -0.99999994, 0), (0, -1, 0), (0, -1, 0), (0, -1, 0), (0.2969623, -0, 0.9548892), (0.2969623, -0, 0.9548892), (0.2969623, -0, 0.9548892), (0.2969623, -0, 0.9548892), (0, 1, 0), (0, 1, 0), (0, 1, 0), (0, 0.99999994, 0), (0, -0, -1), (0, -0, -1), (0, -0, -1), (0, -0, -1), (0.9997402, -0, -0.022795137), (0.9997402, -0, -0.022795137), (0.9997402, -0, -0.022795137), (0.9997402, -0, -0.022795137), (-0.998676, -0, 0.051443618), (-0.998676, -0, 0.051443618), (-0.998676, -0, 0.051443618), (-0.998676, -0, 0.051443618)],
            104: [(-6.373368e-8, -1, 0), (-6.373369e-8, -1, 0), (-6.373368e-8, -0.99999994, 0), (-6.373369e-8, -1, 0), (0.28035918, -0, 0.9598952), (0.28035918, -0, 0.9598952), (0.28035918, -0, 0.9598952), (0.28035918, -0, 0.9598952), (-6.373369e-8, 1, 0), (-6.373369e-8, 1, 0), (-6.373369e-8, 0.99999994, 0), (-6.373369e-8, 1, 0), (0, -0, -1), (0, -0, -1), (0, -0, -1), (0, -0, -1), (0.9996434, -0, -0.026704898), (0.9996434, -0, -0.026704898), (0.9996434, -0, -0.026704898), (0.9996434, -0, -0.026704898), (-0.99811864, -0, 0.061311737), (-0.99811864, -0, 0.061311737), (-0.99811864, -0, 0.061311737), (-0.99811864, -0, 0.061311737)],
            105: [(0, -1, 0), (0, -1, 0), (0, -0.99999994, 0), (0, -1, 0), (0.262781, -0, 0.9648555), (0.262781, -0, 0.9648555), (0.262781, -0, 0.9648555), (0.262781, -0, 0.9648555), (0, 1, 0), (0, 0.99999994, 0), (0, 1, 0), (0, 1, 0), (0, -0, -1), (0, -0, -1), (0, -0, -1), (0, -0, -1), (0.9995315, -0, -0.030606953), (0.9995315, -0, -0.030606953), (0.9995315, -0, -0.030606953), (0.9995315, -0, -0.030606953), (-0.9974405, -0, 0.07150173), (-0.9974405, -0, 0.07150173), (-0.9974405, -0, 0.07150173), (-0.9974405, -0, 0.07150173)],
            106: [(0, -1, 0), (0, -1, 0), (0, -1, 0), (0, -1, 0), (0.24370794, -0, 0.96984863), (0.24370794, -0, 0.96984863), (0.24370794, -0, 0.96984863), (0.24370794, -0, 0.96984863), (0, 1, 0), (0, 1, 0), (0, 1, 0), (0, 1, 0), (0, -0, -1), (0, -0, -1), (0, -0, -1), (0, -0, -1), (0.9998381, -0, -0.017988916), (0.9998381, -0, -0.017988916), (0.9998381, -0, -0.017988916), (0.9998381, -0, -0.017988916), (-0.9966439, -0, 0.08186033), (-0.9966439, -0, 0.08186033), (-0.9966439, -0, 0.08186033), (-0.9966439, -0, 0.08186033)],
            107: [(6.56839e-8, -1, 0), (6.56839e-8, -0.99999994, 0), (6.56839e-8, -1, 0), (6.56839e-8, -0.99999994, 0), (0.22207372, -0, 0.9750299), (0.22207372, -0, 0.9750299), (0.22207372, -0, 0.9750299), (0.22207372, -0, 0.9750299), (6.56839e-8, 1, 0), (6.56839e-8, 1, 0), (6.56839e-8, 0.99999994, 0), (6.56839e-8, 1, 0), (0, -0, -1), (0, -0, -1), (0, -0, -1), (0, -0, -1), (0.9999501, -0, 0.009989055), (0.9999501, -0, 0.009989055), (0.9999501, -0, 0.009989055), (0.9999501, -0, 0.009989055), (-0.9957379, -0, 0.09222867), (-0.9957379, -0, 0.09222867), (-0.9957379, -0, 0.09222867), (-0.9957379, -0, 0.09222867)],
            108: [(0, -1, 0), (0, -0.99999994, 0), (0, -1, 0), (0, -1, 0), (0.19827148, -0, 0.9801472), (0.19827148, -0, 0.9801472), (0.19827148, -0, 0.9801472), (0.19827148, -0, 0.9801472), (0, 1, 0), (0, 1, 0), (0, 0.99999994, 0), (0, 1, 0), (0, -0, -1), (0, -0, -1), (0, -0, -1), (0, -0, -1), (0.99934506, -0, 0.036184873), (0.99934506, -0, 0.036184873), (0.99934506, -0, 0.036184873), (0.99934506, -0, 0.036184873), (-0.994739, -0, 0.102442496), (-0.994739, -0, 0.102442496), (-0.994739, -0, 0.102442496), (-0.994739, -0, 0.102442496)],
            109: [(6.8147294e-8, -0.99999994, 0), (6.8147294e-8, -0.99999994, 0), (6.814731e-8, -1, 0), (6.81473e-8, -1, 0), (0.17247687, -0, 0.98501354), (0.17247687, -0, 0.98501354), (0.17247687, -0, 0.98501354), (0.17247687, -0, 0.98501354), (6.81473e-8, 1, 0), (6.814731e-8, 1, 0), (6.8147294e-8, 0.99999994, 0), (6.8147294e-8, 0.99999994, 0), (0, -0, -1), (0, -0, -1), (0, -0, -1), (0, -0, -1), (0.9981796, -0, 0.06031156), (0.9981796, -0, 0.06031156), (0.9981796, -0, 0.06031156), (0.9981796, -0, 0.06031156), (-0.9936707, -0, 0.11233261), (-0.9936707, -0, 0.11233261), (-0.9936707, -0, 0.11233261), (-0.9936707, -0, 0.11233261)],
            110: [(0, -0.99999994, 0), (0, -1, 0), (0, -1, 0), (0, -1, 0), (0.14506319, -0, 0.98942244), (0.14506319, -0, 0.98942244), (0.14506319, -0, 0.98942244), (0.14506319, -0, 0.98942244), (0, 1, 0), (0, 1, 0), (0, 1, 0), (0, 0.99999994, 0), (0, -0, -1), (0, -0, -1), (0, -0, -1), (0, -0, -1), (0.9966203, -0, 0.08214632), (0.9966203, -0, 0.08214632), (0.9966203, -0, 0.08214632), (0.9966203, -0, 0.08214632), (-0.9925637, -0, 0.12172583), (-0.9925637, -0, 0.12172583), (-0.9925637, -0, 0.12172583), (-0.9925637, -0, 0.12172583)],
            111: [(0, -1, 0), (0, -1, 0), (0, -1, 0), (0, -1, 0), (0.116668314, -0, 0.9931709), (0.116668314, -0, 0.9931709), (0.116668314, -0, 0.9931709), (0.116668314, -0, 0.9931709), (0, 1, 0), (0, 0.99999994, 0), (0, 1, 0), (0, 1, 0), (0, -0, -1), (0, -0, -1), (0, -0, -1), (0, -0, -1), (0.9948339, -0, 0.10151604), (0.9948339, -0, 0.10151604), (0.9948339, -0, 0.10151604), (0.9948339, -0, 0.10151604), (-0.99145544, -0, 0.13044575), (-0.99145544, -0, 0.13044575), (-0.99145544, -0, 0.13044575), (-0.99145544, -0, 0.13044575)],
            112: [(0, -0.99999994, 0), (0, -1, 0), (0, -1, 0), (0, -1, 0), (0.08825047, -0, 0.99609834), (0.08825047, -0, 0.99609834), (0.08825047, -0, 0.99609834), (0.08825047, -0, 0.99609834), (0, 1, 0), (0, 1, 0), (0, 1, 0), (0, 1, 0), (0, -0, -1), (0, -0, -1), (0, -0, -1), (0, -0, -1), (0.99298, -0, 0.11828208), (0.99298, -0, 0.11828208), (0.99298, -0, 0.11828208), (0.99298, -0, 0.11828208), (-0.9903885, -0, 0.13831376), (-0.9903885, -0, 0.13831376), (-0.9903885, -0, 0.13831376), (-0.9903885, -0, 0.13831376)],
            113: [(0, -1, 0), (0, -0.99999994, 0), (0, -1, 0), (0, -1, 0), (0.061116003, -0, 0.9981306), (0.061116003, -0, 0.9981306), (0.061116003, -0, 0.9981306), (0.061116003, -0, 0.9981306), (0, 1, 0), (0, 1, 0), (0, 1, 0), (0, 1, 0), (0, -0, -1), (0, -0, -1), (0, -0, -1), (0, -0, -1), (0.9912064, -0, 0.13232422), (0.9912064, -0, 0.13232422), (0.9912064, -0, 0.13232422), (0.9912064, -0, 0.13232422), (-0.9894097, -0, 0.14515005), (-0.9894097, -0, 0.14515005), (-0.9894097, -0, 0.14515005), (-0.9894097, -0, 0.14515005)],
            114: [(0, -1, 0), (0, -1, 0), (0, -1, 0), (0, -1, 0), (0.036891885, -0, 0.99931926), (0.036891885, -0, 0.99931926), (0.036891885, -0, 0.99931926), (0.036891885, -0, 0.99931926), (0, 1, 0), (0, 1, 0), (0, 1, 0), (0, 1, 0), (0, -0, -1), (0, -0, -1), (0, -0, -1), (0, -0, -1), (0.98964673, -0, 0.14352491), (0.98964673, -0, 0.14352491), (0.98964673, -0, 0.14352491), (0.98964673, -0, 0.14352491), (-0.9885681, -0, 0.15077487), (-0.9885681, -0, 0.15077487), (-0.9885681, -0, 0.15077487), (-0.9885681, -0, 0.15077487)],
            115: [(-7.397985e-8, -1, 0), (-7.397985e-8, -1, 0), (-7.397985e-8, -1, 0), (-7.397985e-8, -1, 0), (0.017420478, -0, 0.99984825), (0.017420478, -0, 0.99984825), (0.017420478, -0, 0.99984825), (0.017420478, -0, 0.99984825), (-7.397984e-8, 1, 0), (-7.397985e-8, 1, 0), (-7.397985e-8, 1, 0), (-7.397985e-8, 1, 0), (0, -0, -1), (0, -0, -1), (0, -0, -1), (0, -0, -1), (0.98841846, -0, 0.15175317), (0.98841846, -0, 0.15175317), (0.98841846, -0, 0.15175317), (0.98841846, -0, 0.15175317), (-0.987913, -0, 0.15500937), (-0.987913, -0, 0.15500937), (-0.987913, -0, 0.15500937), (-0.987913, -0, 0.15500937)],
            116: [(-7.4375485e-8, -1, 0), (-7.4375485e-8, -1, 0), (-7.437548e-8, -1, 0), (-7.4375485e-8, -0.99999994, 0), (0.004573933, -0, 0.99998957), (0.004573933, -0, 0.99998957), (0.004573933, -0, 0.99998957), (0.004573933, -0, 0.99998957), (-7.437549e-8, 0.99999994, 0), (-7.4375485e-8, 1, 0), (-7.437549e-8, 1, 0), (-7.43755e-8, 1, 0), (0, -0, -1), (0, -0, -1), (0, -0, -1), (0, -0, -1), (0.9876227, -0, 0.15684865), (0.9876227, -0, 0.15684865), (0.9876227, -0, 0.15684865), (0.9876227, -0, 0.15684865), (-0.9874908, -0, 0.1576768), (-0.9874908, -0, 0.1576768), (-0.9874908, -0, 0.1576768), (-0.9874908, -0, 0.1576768)],
            117: [(0, -1, 0), (0, -1, 0), (0, -1, 0), (0, -1, 0), (0, -0, 1), (0, -0, 1), (0, -0, 1), (0, -0, 1), (0, 1, 0), (0, 1, 0), (0, 1, 0), (0, 1, 0), (0, -0, -1), (0, -0, -1), (0, -0, -1), (0, -0, -1), (0.98734236, -0, 0.15860376), (0.98734236, -0, 0.15860376), (0.98734236, -0, 0.15860376), (0.98734236, -0, 0.15860376), (-0.98734236, -0, 0.15860376), (-0.98734236, -0, 0.15860376), (-0.98734236, -0, 0.15860376), (-0.98734236, -0, 0.15860376)],
        }
        point3f[] points.timeSamples = {
            0: [(-2.5, -2.5, -0.020237144), (2.5, -2.5, -0.020237144), (-2.5, -2.5, 4.979763), (2.5, -2.5, 4.9505186), (-2.5, 2.5, 4.979763), (2.5, 2.5, 4.9505186), (-2.5, 2.5, -0.020237144), (2.5, 2.5, -0.020237144)],
            1: [(-2.5, -2.5, -0.020237144), (2.5, -2.5, -0.020237144), (-2.5, -2.5, 4.979763), (2.5, -2.5, 4.9505186), (-2.5, 2.5, 4.979763), (2.5, 2.5, 4.9505186), (-2.5, 2.5, -0.020237144), (2.5, 2.5, -0.020237144)],
            2: [(-2.5, -2.5, -0.020237144), (2.5, -2.5, -0.020237144), (-2.5, -2.5, 4.979763), (2.5, -2.5, 4.979763), (-2.5, 2.5, 4.979763), (2.5, 2.5, 4.979763), (-2.5, 2.5, -0.020237144), (2.5, 2.5, -0.020237144)],
            3: [(-2.5, -2.5, -0.020237144), (2.5, -2.5, -0.020237144), (-2.5, -2.5, 4.979763), (2.5494628, -2.5, 5.039878), (-2.5, 2.5, 4.979763), (2.5494628, 2.5, 5.039878), (-2.5, 2.5, -0.020237144), (2.5, 2.5, -0.020237144)],
            4: [(-2.5, -2.5, -0.020237144), (2.5, -2.5, -0.020237144), (-2.5, -2.5, 4.979763), (2.6279688, -2.5, 5.1352906), (-2.5, 2.5, 4.979763), (2.6279688, 2.5, 5.1352906), (-2.5, 2.5, -0.020237144), (2.5, 2.5, -0.020237144)],
            5: [(-2.5, -2.5, -0.020237144), (2.5, -2.5, -0.020237144), (-2.5, -2.5, 4.979763), (2.729145, -2.5, 5.2582555), (-2.5, 2.5, 4.979763), (2.729145, 2.5, 5.2582555), (-2.5, 2.5, -0.020237144), (2.5, 2.5, -0.020237144)],
            6: [(-2.5, -2.5, -0.020237144), (2.5, -2.5, -0.020237144), (-2.5, -2.5, 4.979763), (2.8479536, -2.5, 5.40265), (-2.5, 2.5, 4.979763), (2.8479536, 2.5, 5.40265), (-2.5, 2.5, -0.020237144), (2.5, 2.5, -0.020237144)],
            7: [(-2.5, -2.5, -0.020237144), (2.5, -2.5, -0.020237144), (-2.5, -2.5, 4.979763), (2.9793565, -2.5, 5.562351), (-2.5, 2.5, 4.979763), (2.9793565, 2.5, 5.562351), (-2.5, 2.5, -0.020237144), (2.5, 2.5, -0.020237144)],
            8: [(-2.5, -2.5, -0.020237144), (2.5, -2.5, -0.020237144), (-2.5, -2.5, 4.979763), (3.1183162, -2.5, 5.731237), (-2.5, 2.5, 4.979763), (3.1183162, 2.5, 5.731237), (-2.5, 2.5, -0.020237144), (2.5, 2.5, -0.020237144)],
            9: [(-2.5, -2.5, -0.020237144), (2.5, -2.5, -0.020237144), (-2.5, -2.5, 4.979763), (3.1377037, -2.5, 5.938967), (-2.5, 2.5, 4.979763), (3.1377037, 2.5, 5.938967), (-2.5, 2.5, -0.020237144), (2.5, 2.5, -0.020237144)],
            10: [(-2.5, -2.5, -0.020237144), (2.5, -2.5, -0.020237144), (-2.5, -2.5, 4.979763), (2.9987438, -2.5, 6.1893067), (-2.5, 2.5, 4.979763), (2.9987438, 2.5, 6.1893067), (-2.5, 2.5, -0.020237144), (2.5, 2.5, -0.020237144)],
            11: [(-2.5, -2.5, -0.020237144), (2.5, -2.5, -0.020237144), (-2.5, -2.5, 4.979763), (2.8673408, -2.5, 6.426033), (-2.5, 2.5, 4.979763), (2.8673408, 2.5, 6.426033), (-2.5, 2.5, -0.020237144), (2.5, 2.5, -0.020237144)],
            12: [(-2.5, -2.5, -0.020237144), (2.5, -2.5, -0.020237144), (-2.5, -2.5, 4.979763), (2.7485323, -2.5, 6.64007), (-2.5, 2.5, 4.979763), (2.7485323, 2.5, 6.64007), (-2.5, 2.5, -0.020237144), (2.5, 2.5, -0.020237144)],
            13: [(-2.5, -2.5, -0.020237144), (2.5, -2.5, -0.020237144), (-2.5, -2.5, 4.979763), (2.647356, -2.5, 6.822342), (-2.5, 2.5, 4.979763), (2.647356, 2.5, 6.822342), (-2.5, 2.5, -0.020237144), (2.5, 2.5, -0.020237144)],
            14: [(-2.5, -2.5, -0.020237144), (2.5, -2.5, -0.020237144), (-2.5, -2.5, 4.979763), (2.5688503, -2.5, 6.9637723), (-2.5, 2.5, 4.979763), (2.5688503, 2.5, 6.9637723), (-2.5, 2.5, -0.020237144), (2.5, 2.5, -0.020237144)],
            15: [(-2.5, -2.5, -0.020237144), (2.5, -2.5, -0.020237144), (-2.5, -2.5, 4.979763), (2.518052, -2.5, 7.055287), (-2.5, 2.5, 4.979763), (2.518052, 2.5, 7.055287), (-2.5, 2.5, -0.020237144), (2.5, 2.5, -0.020237144)],
            16: [(-2.5, -2.5, -0.020237144), (2.5, -2.5, -0.020237144), (-2.5, -2.5, 4.979763), (2.5, -2.5, 7.087808), (-2.5, 2.5, 4.979763), (2.5, 2.5, 7.087808), (-2.5, 2.5, -0.020237144), (2.5, 2.5, -0.020237144)],
            17: [(-2.5, -2.5, -0.020237144), (2.5, -2.5, -0.020237144), (-2.5, -2.5, 4.979763), (2.5177717, -2.5, 7.055792), (-2.5, 2.5, 4.979763), (2.5177717, 2.5, 7.055792), (-2.5, 2.5, -0.020237144), (2.5, 2.5, -0.020237144)],
            18: [(-2.5, -2.5, -0.020237144), (2.5, -2.5, -0.020237144), (-2.5, -2.5, 4.979763), (2.566865, -2.5, 6.967349), (-2.5, 2.5, 4.979763), (2.566865, 2.5, 6.967349), (-2.5, 2.5, -0.020237144), (2.5, 2.5, -0.020237144)],
            19: [(-2.5, -2.5, -0.020237144), (2.5, -2.5, -0.020237144), (-2.5, -2.5, 4.979763), (2.6409466, -2.5, 6.8338885), (-2.5, 2.5, 4.979763), (2.6409466, 2.5, 6.8338885), (-2.5, 2.5, -0.020237144), (2.5, 2.5, -0.020237144)],
            20: [(-2.5, -2.5, -0.020237144), (2.5, -2.5, -0.020237144), (-2.5, -2.5, 4.979763), (2.733684, -2.5, 6.6668196), (-2.5, 2.5, 4.979763), (2.733684, 2.5, 6.6668196), (-2.5, 2.5, -0.020237144), (2.5, 2.5, -0.020237144)],
            21: [(-2.5, -2.5, -0.020237144), (2.5, -2.5, -0.020237144), (-2.5, -2.5, 4.979763), (2.8387442, -2.5, 6.477551), (-2.5, 2.5, 4.979763), (2.8387442, 2.5, 6.477551), (-2.5, 2.5, -0.020237144), (2.5, 2.5, -0.020237144)],
            22: [(-2.5, -2.5, -0.020237144), (2.5, -2.5, -0.020237144), (-2.5, -2.5, 4.979763), (2.9497938, -2.5, 6.277492), (-2.5, 2.5, 4.979763), (2.9497938, 2.5, 6.277492), (-2.5, 2.5, -0.020237144), (2.5, 2.5, -0.020237144)],
            23: [(-2.5, -2.5, -0.020237144), (2.5, -2.5, -0.020237144), (-2.5, -2.5, 4.979763), (3.0605001, -2.5, 6.078051), (-2.5, 2.5, 4.979763), (3.0605001, 2.5, 6.078051), (-2.5, 2.5, -0.020237144), (2.5, 2.5, -0.020237144)],
            24: [(-2.5, -2.5, -0.020237144), (2.5, -2.5, -0.020237144), (-2.5, -2.5, 4.979763), (3.1645305, -2.5, 5.890638), (-2.5, 2.5, 4.979763), (3.1645305, 2.5, 5.890638), (-2.5, 2.5, -0.020237144), (2.5, 2.5, -0.020237144)],
            25: [(-2.5, -2.5, -0.020237144), (2.5, -2.5, -0.020237144), (-2.5, -2.5, 4.979763), (3.141947, -2.5, 5.7599564), (-2.5, 2.5, 4.979763), (3.141947, 2.5, 5.7599564), (-2.5, 2.5, -0.020237144), (2.5, 2.5, -0.020237144)],
            26: [(-2.5, -2.5, -0.020237144), (2.5, -2.5, -0.020237144), (-2.5, -2.5, 4.979763), (3.070268, -2.5, 5.672841), (-2.5, 2.5, 4.979763), (3.070268, 2.5, 5.672841), (-2.5, 2.5, -0.020237144), (2.5, 2.5, -0.020237144)],
            27: [(-2.5, -2.5, -0.020237144), (2.5, -2.5, -0.020237144), (-2.5, -2.5, 4.979763), (3.0242639, -2.5, 5.61693), (-2.5, 2.5, 4.979763), (3.0242639, 2.5, 5.61693), (-2.5, 2.5, -0.020237144), (2.5, 2.5, -0.020237144)],
            28: [(-2.5, -2.5, -0.020237144), (2.5, -2.5, -0.020237144), (-2.5, -2.5, 4.979763), (2.9936745, -2.5, 5.579753), (-2.5, 2.5, 4.979763), (2.9936745, 2.5, 5.579753), (-2.5, 2.5, -0.020237144), (2.5, 2.5, -0.020237144)],
            29: [(-2.5, -2.5, -0.020237144), (2.5, -2.5, -0.020237144), (-2.5, -2.5, 4.979763), (2.9640164, -2.5, 5.543708), (-2.5, 2.5, 4.979763), (2.9640164, 2.5, 5.543708), (-2.5, 2.5, -0.020237144), (2.5, 2.5, -0.020237144)],
            30: [(-2.5, -2.5, -0.020237144), (2.5, -2.5, -0.020237144), (-2.5, -2.5, 4.979763), (2.9352884, -2.5, 5.508793), (-2.5, 2.5, 4.979763), (2.9352884, 2.5, 5.508793), (-2.5, 2.5, -0.020237144), (2.5, 2.5, -0.020237144)],
            31: [(-2.5, -2.5, -0.020237144), (2.5, -2.5, -0.020237144), (-2.5, -2.5, 4.979763), (2.9074898, -2.5, 5.475008), (-2.5, 2.5, 4.979763), (2.9074898, 2.5, 5.475008), (-2.5, 2.5, -0.020237144), (2.5, 2.5, -0.020237144)],
            32: [(-2.5, -2.5, -0.020237144), (2.5, -2.5, -0.020237144), (-2.5, -2.5, 4.979763), (2.880619, -2.5, 5.4423504), (-2.5, 2.5, 4.979763), (2.880619, 2.5, 5.4423504), (-2.5, 2.5, -0.020237144), (2.5, 2.5, -0.020237144)],
            33: [(-2.5, -2.5, -0.020237144), (2.5, -2.5, -0.020237144), (-2.5, -2.5, 4.979763), (2.8546753, -2.5, 5.4108195), (-2.5, 2.5, 4.979763), (2.8546753, 2.5, 5.4108195), (-2.5, 2.5, -0.020237144), (2.5, 2.5, -0.020237144)],
            34: [(-2.5, -2.5, -0.020237144), (2.5, -2.5, -0.020237144), (-2.5, -2.5, 4.979763), (2.8296573, -2.5, 5.3804135), (-2.5, 2.5, 4.979763), (2.8296573, 2.5, 5.3804135), (-2.5, 2.5, -0.020237144), (2.5, 2.5, -0.020237144)],
            35: [(-2.5, -2.5, -0.020237144), (2.5, -2.5, -0.020237144), (-2.5, -2.5, 4.979763), (2.805564, -2.5, 5.3511314), (-2.5, 2.5, 4.979763), (2.805564, 2.5, 5.3511314), (-2.5, 2.5, -0.020237144), (2.5, 2.5, -0.020237144)],
            36: [(-2.5, -2.5, -0.020237144), (2.5, -2.5, -0.020237144), (-2.5, -2.5, 4.979763), (2.782394, -2.5, 5.322972), (-2.5, 2.5, 4.979763), (2.782394, 2.5, 5.322972), (-2.5, 2.5, -0.020237144), (2.5, 2.5, -0.020237144)],
            37: [(-2.5, -2.5, -0.020237144), (2.5, -2.5, -0.020237144), (-2.5, -2.5, 4.979763), (2.7601464, -2.5, 5.2959332), (-2.5, 2.5, 4.979763), (2.7601464, 2.5, 5.2959332), (-2.5, 2.5, -0.020237144), (2.5, 2.5, -0.020237144)],
            38: [(-2.5, -2.5, -0.020237144), (2.5, -2.5, -0.020237144), (-2.5, -2.5, 4.979763), (2.73882, -2.5, 5.2700143), (-2.5, 2.5, 4.979763), (2.73882, 2.5, 5.2700143), (-2.5, 2.5, -0.020237144), (2.5, 2.5, -0.020237144)],
            39: [(-2.5, -2.5, -0.020237144), (2.5, -2.5, -0.020237144), (-2.5, -2.5, 4.979763), (2.7184138, -2.5, 5.2452135), (-2.5, 2.5, 4.979763), (2.7184138, 2.5, 5.2452135), (-2.5, 2.5, -0.020237144), (2.5, 2.5, -0.020237144)],
            40: [(-2.5, -2.5, -0.020237144), (2.5, -2.5, -0.020237144), (-2.5, -2.5, 4.979763), (2.6989267, -2.5, 5.2215295), (-2.5, 2.5, 4.979763), (2.6989267, 2.5, 5.2215295), (-2.5, 2.5, -0.020237144), (2.5, 2.5, -0.020237144)],
            41: [(-2.5, -2.5, -0.020237144), (2.5, -2.5, -0.020237144), (-2.5, -2.5, 4.979763), (2.6803575, -2.5, 5.1989613), (-2.5, 2.5, 4.979763), (2.6803575, 2.5, 5.1989613), (-2.5, 2.5, -0.020237144), (2.5, 2.5, -0.020237144)],
            42: [(-2.5, -2.5, -0.020237144), (2.5, -2.5, -0.020237144), (-2.5, -2.5, 4.979763), (2.6627052, -2.5, 5.1775074), (-2.5, 2.5, 4.979763), (2.6627052, 2.5, 5.1775074), (-2.5, 2.5, -0.020237144), (2.5, 2.5, -0.020237144)],
            43: [(-2.5, -2.5, -0.020237144), (2.5, -2.5, -0.020237144), (-2.5, -2.5, 4.979763), (2.6459682, -2.5, 5.1571665), (-2.5, 2.5, 4.979763), (2.6459682, 2.5, 5.1571665), (-2.5, 2.5, -0.020237144), (2.5, 2.5, -0.020237144)],
            44: [(-2.5, -2.5, -0.020237144), (2.5, -2.5, -0.020237144), (-2.5, -2.5, 4.979763), (2.630146, -2.5, 5.1379366), (-2.5, 2.5, 4.979763), (2.630146, 2.5, 5.1379366), (-2.5, 2.5, -0.020237144), (2.5, 2.5, -0.020237144)],
            45: [(-2.5, -2.5, -0.020237144), (2.5, -2.5, -0.020237144), (-2.5, -2.5, 4.979763), (2.615237, -2.5, 5.119817), (-2.5, 2.5, 4.979763), (2.615237, 2.5, 5.119817), (-2.5, 2.5, -0.020237144), (2.5, 2.5, -0.020237144)],
            46: [(-2.5, -2.5, -0.020237144), (2.5, -2.5, -0.020237144), (-2.5, -2.5, 4.979763), (2.6012404, -2.5, 5.102806), (-2.5, 2.5, 4.979763), (2.6012404, 2.5, 5.102806), (-2.5, 2.5, -0.020237144), (2.5, 2.5, -0.020237144)],
            47: [(-2.5, -2.5, -0.020237144), (2.5, -2.5, -0.020237144), (-2.5, -2.5, 4.979763), (2.588155, -2.5, 5.0869026), (-2.5, 2.5, 4.979763), (2.588155, 2.5, 5.0869026), (-2.5, 2.5, -0.020237144), (2.5, 2.5, -0.020237144)],
            48: [(-2.5, -2.5, -0.020237144), (2.5, -2.5, -0.020237144), (-2.5, -2.5, 4.979763), (2.5759795, -2.5, 5.072105), (-2.5, 2.5, 4.979763), (2.5759795, 2.5, 5.072105), (-2.5, 2.5, -0.020237144), (2.5, 2.5, -0.020237144)],
            49: [(-2.5, -2.5, -0.020237144), (2.5, -2.5, -0.020237144), (-2.5, -2.5, 4.979763), (2.564713, -2.5, 5.058412), (-2.5, 2.5, 4.979763), (2.564713, 2.5, 5.058412), (-2.5, 2.5, -0.020237144), (2.5, 2.5, -0.020237144)],
            50: [(-2.5, -2.5, -0.020237144), (2.5, -2.5, -0.020237144), (-2.5, -2.5, 4.979763), (2.5543542, -2.5, 5.0458226), (-2.5, 2.5, 4.979763), (2.5543542, 2.5, 5.0458226), (-2.5, 2.5, -0.020237144), (2.5, 2.5, -0.020237144)],
            51: [(-2.5, -2.5, -0.020237144), (2.5, -2.5, -0.020237144), (-2.5, -2.5, 4.979763), (2.544902, -2.5, 5.034335), (-2.5, 2.5, 4.979763), (2.544902, 2.5, 5.034335), (-2.5, 2.5, -0.020237144), (2.5, 2.5, -0.020237144)],
            52: [(-2.5, -2.5, -0.020237144), (2.5, -2.5, -0.020237144), (-2.5, -2.5, 4.979763), (2.5363555, -2.5, 5.0239477), (-2.5, 2.5, 4.979763), (2.5363555, 2.5, 5.0239477), (-2.5, 2.5, -0.020237144), (2.5, 2.5, -0.020237144)],
            53: [(-2.5, -2.5, -0.020237144), (2.5, -2.5, -0.020237144), (-2.5, -2.5, 4.979763), (2.5287135, -2.5, 5.01466), (-2.5, 2.5, 4.979763), (2.5287135, 2.5, 5.01466), (-2.5, 2.5, -0.020237144), (2.5, 2.5, -0.020237144)],
            54: [(-2.5, -2.5, -0.020237144), (2.5, -2.5, -0.020237144), (-2.5, -2.5, 4.979763), (2.5219746, -2.5, 5.0064697), (-2.5, 2.5, 4.979763), (2.5219746, 2.5, 5.0064697), (-2.5, 2.5, -0.020237144), (2.5, 2.5, -0.020237144)],
            55: [(-2.5, -2.5, -0.020237144), (2.5, -2.5, -0.020237144), (-2.5, -2.5, 4.979763), (2.5161378, -2.5, 4.9993763), (-2.5, 2.5, 4.979763), (2.5161378, 2.5, 4.9993763), (-2.5, 2.5, -0.020237144), (2.5, 2.5, -0.020237144)],
            56: [(-2.5, -2.5, -0.020237144), (2.5, -2.5, -0.020237144), (-2.5, -2.5, 4.979763), (2.511202, -2.5, 4.9933777), (-2.5, 2.5, 4.979763), (2.511202, 2.5, 4.9933777), (-2.5, 2.5, -0.020237144), (2.5, 2.5, -0.020237144)],
            57: [(-2.5, -2.5, -0.020237144), (2.5, -2.5, -0.020237144), (-2.5, -2.5, 4.979763), (2.5071664, -2.5, 4.988473), (-2.5, 2.5, 4.979763), (2.5071664, 2.5, 4.988473), (-2.5, 2.5, -0.020237144), (2.5, 2.5, -0.020237144)],
            58: [(-2.5, -2.5, -0.020237144), (2.5, -2.5, -0.020237144), (-2.5, -2.5, 4.979763), (2.5040295, -2.5, 4.98466), (-2.5, 2.5, 4.979763), (2.5040295, 2.5, 4.98466), (-2.5, 2.5, -0.020237144), (2.5, 2.5, -0.020237144)],
            59: [(-2.5, -2.5, -0.020237144), (2.5, -2.5, -0.020237144), (-2.5, -2.5, 4.979763), (2.50179, -2.5, 4.981939), (-2.5, 2.5, 4.979763), (2.50179, 2.5, 4.981939), (-2.5, 2.5, -0.020237144), (2.5, 2.5, -0.020237144)],
            60: [(-2.5, -2.5, -0.020237144), (2.5, -2.5, -0.020237144), (-2.5, -2.5, 4.979763), (2.5, -2.5, 4.979763), (-2.5, 2.5, 4.979763), (2.5, 2.5, 4.979763), (-2.5, 2.5, -0.020237144), (2.5, 2.5, -0.020237144)],
            61: [(-2.5, -2.5, -0.020237144), (2.5, -2.5, -0.020237144), (-2.5, -2.5, 4.979763), (2.5, -2.5, 4.979763), (-2.5, 2.5, 4.979763), (2.5, 2.5, 4.979763), (-2.5, 2.5, -0.020237144), (2.5, 2.5, -0.020237144)],
            62: [(-2.5, -2.5, -0.020237144), (2.5, -2.5, -0.020237144), (-2.5, -2.5, 4.9900694), (2.5, -2.5, 4.979763), (-2.5, 2.5, 4.9900694), (2.5, 2.5, 4.979763), (-2.5, 2.5, -0.020237144), (2.5, 2.5, -0.020237144)],
            63: [(-2.5, -2.5, -0.020237144), (2.5, -2.5, -0.020237144), (-2.5, -2.5, 5.0198107), (2.5, -2.5, 4.979763), (-2.5, 2.5, 5.0198107), (2.5, 2.5, 4.979763), (-2.5, 2.5, -0.020237144), (2.5, 2.5, -0.020237144)],
            64: [(-2.5, -2.5, -0.020237144), (2.5, -2.5, -0.020237144), (-2.5, -2.5, 5.0672197), (2.5, -2.5, 4.979763), (-2.5, 2.5, 5.0672197), (2.5, 2.5, 4.979763), (-2.5, 2.5, -0.020237144), (2.5, 2.5, -0.020237144)],
            65: [(-2.5, -2.5, -0.020237144), (2.5, -2.5, -0.020237144), (-2.5, -2.5, 5.13053), (2.5, -2.5, 4.979763), (-2.5, 2.5, 5.13053), (2.5, 2.5, 4.979763), (-2.5, 2.5, -0.020237144), (2.5, 2.5, -0.020237144)],
            66: [(-2.5, -2.5, -0.020237144), (2.5, -2.5, -0.020237144), (-2.5, -2.5, 5.2079744), (2.5, -2.5, 4.979763), (-2.5, 2.5, 5.2079744), (2.5, 2.5, 4.979763), (-2.5, 2.5, -0.020237144), (2.5, 2.5, -0.020237144)],
            67: [(-2.5, -2.5, -0.020237144), (2.5, -2.5, -0.020237144), (-2.5, -2.5, 5.2977867), (2.5, -2.5, 4.979763), (-2.5, 2.5, 5.2977867), (2.5, 2.5, 4.979763), (-2.5, 2.5, -0.020237144), (2.5, 2.5, -0.020237144)],
            68: [(-2.5, -2.5, -0.020237144), (2.5, -2.5, -0.020237144), (-2.5, -2.5, 5.3981996), (2.5, -2.5, 4.979763), (-2.5, 2.5, 5.3981996), (2.5, 2.5, 4.979763), (-2.5, 2.5, -0.020237144), (2.5, 2.5, -0.020237144)],
            69: [(-2.5, -2.5, -0.020237144), (2.5, -2.5, -0.020237144), (-2.5, -2.5, 5.507447), (2.5, -2.5, 4.979763), (-2.5, 2.5, 5.507447), (2.5, 2.5, 4.979763), (-2.5, 2.5, -0.020237144), (2.5, 2.5, -0.020237144)],
            70: [(-2.5, -2.5, -0.020237144), (2.5, -2.5, -0.020237144), (-2.5, -2.5, 5.6237607), (2.5, -2.5, 4.979763), (-2.5, 2.5, 5.6237607), (2.5, 2.5, 4.979763), (-2.5, 2.5, -0.020237144), (2.5, 2.5, -0.020237144)],
            71: [(-2.5, -2.5, -0.020237144), (2.5, -2.5, -0.020237144), (-2.5, -2.5, 5.7453756), (2.5, -2.5, 4.979763), (-2.5, 2.5, 5.7453756), (2.5, 2.5, 4.979763), (-2.5, 2.5, -0.020237144), (2.5, 2.5, -0.020237144)],
            72: [(-2.5, -2.5, -0.020237144), (2.5, -2.5, -0.020237144), (-2.5, -2.5, 5.8705235), (2.5, -2.5, 4.979763), (-2.5, 2.5, 5.8705235), (2.5, 2.5, 4.979763), (-2.5, 2.5, -0.020237144), (2.5, 2.5, -0.020237144)],
            73: [(-2.5, -2.5, -0.020237144), (2.5, -2.5, -0.020237144), (-2.5, -2.5, 5.9974384), (2.5, -2.5, 4.979763), (-2.5, 2.5, 5.9974384), (2.5, 2.5, 4.979763), (-2.5, 2.5, -0.020237144), (2.5, 2.5, -0.020237144)],
            74: [(-2.5, -2.5, -0.020237144), (2.5, -2.5, -0.020237144), (-2.5, -2.5, 6.1243534), (2.5, -2.5, 4.979763), (-2.5, 2.5, 6.1243534), (2.5, 2.5, 4.979763), (-2.5, 2.5, -0.020237144), (2.5, 2.5, -0.020237144)],
            75: [(-2.5, -2.5, -0.020237144), (2.5, -2.5, -0.020237144), (-2.5, -2.5, 6.2495017), (2.5, -2.5, 4.979763), (-2.5, 2.5, 6.2495017), (2.5, 2.5, 4.979763), (-2.5, 2.5, -0.020237144), (2.5, 2.5, -0.020237144)],
            76: [(-2.5, -2.5, -0.020237144), (2.5, -2.5, -0.020237144), (-2.5, -2.5, 6.3711166), (2.5, -2.5, 4.979763), (-2.5, 2.5, 6.3711166), (2.5, 2.5, 4.979763), (-2.5, 2.5, -0.020237144), (2.5, 2.5, -0.020237144)],
            77: [(-2.5, -2.5, -0.020237144), (2.5, -2.5, -0.020237144), (-2.5, -2.5, 6.4874306), (2.5, -2.5, 4.979763), (-2.5, 2.5, 6.4874306), (2.5, 2.5, 4.979763), (-2.5, 2.5, -0.020237144), (2.5, 2.5, -0.020237144)],
            78: [(-2.5, -2.5, -0.020237144), (2.5, -2.5, -0.020237144), (-2.5, -2.5, 6.596678), (2.5, -2.5, 4.979763), (-2.5, 2.5, 6.596678), (2.5, 2.5, 4.979763), (-2.5, 2.5, -0.020237144), (2.5, 2.5, -0.020237144)],
            79: [(-2.5, -2.5, -0.020237144), (2.5, -2.5, -0.020237144), (-2.5, -2.5, 6.6970906), (2.5, -2.5, 4.979763), (-2.5, 2.5, 6.6970906), (2.5, 2.5, 4.979763), (-2.5, 2.5, -0.020237144), (2.5, 2.5, -0.020237144)],
            80: [(-2.5, -2.5, -0.020237144), (2.5, -2.5, -0.020237144), (-2.5, -2.5, 6.786903), (2.5, -2.5, 4.979763), (-2.5, 2.5, 6.786903), (2.5, 2.5, 4.979763), (-2.5, 2.5, -0.020237144), (2.5, 2.5, -0.020237144)],
            81: [(-2.5, -2.5, -0.020237144), (2.5, -2.5, -0.020237144), (-2.5, -2.5, 6.8643475), (2.5, -2.5, 4.979763), (-2.5, 2.5, 6.8643475), (2.5, 2.5, 4.979763), (-2.5, 2.5, -0.020237144), (2.5, 2.5, -0.020237144)],
            82: [(-2.5, -2.5, -0.020237144), (2.5, -2.5, -0.020237144), (-2.5, -2.5, 6.927658), (2.5, -2.5, 4.979763), (-2.5, 2.5, 6.927658), (2.5, 2.5, 4.979763), (-2.5, 2.5, -0.020237144), (2.5, 2.5, -0.020237144)],
            83: [(-2.5, -2.5, -0.020237144), (2.5, -2.5, -0.020237144), (-2.5, -2.5, 6.975067), (2.5, -2.5, 4.979763), (-2.5, 2.5, 6.975067), (2.5, 2.5, 4.979763), (-2.5, 2.5, -0.020237144), (2.5, 2.5, -0.020237144)],
            84: [(-2.5, -2.5, -0.020237144), (2.5, -2.5, -0.020237144), (-2.5, -2.5, 7.004808), (2.5, -2.5, 4.979763), (-2.5, 2.5, 7.004808), (2.5, 2.5, 4.979763), (-2.5, 2.5, -0.020237144), (2.5, 2.5, -0.020237144)],
            85: [(-2.5, -2.5, -0.020237144), (2.5, -2.5, -0.020237144), (-2.5, -2.5, 7.0151143), (2.5, -2.5, 4.979763), (-2.5, 2.5, 7.0151143), (2.5, 2.5, 4.979763), (-2.5, 2.5, -0.020237144), (2.5, 2.5, -0.020237144)],
            94: [(-2.5, -2.5, -0.020237144), (2.5, -2.5, -0.020237144), (-2.5, -2.5, 7.0151143), (2.5, -2.5, 4.979763), (-2.5, 2.5, 7.0151143), (2.5, 2.5, 4.979763), (-2.5, 2.5, -0.020237144), (2.5, 2.5, -0.020237144)],
            95: [(-2.5, -2.5, -0.020237144), (2.5, -2.5, -0.020237144), (-2.4942853, -2.5, 7.0119476), (2.501981, -2.5, 4.985549), (-2.4942853, 2.5, 7.0119476), (2.501981, 2.5, 4.985549), (-2.5, 2.5, -0.020237144), (2.5, 2.5, -0.020237144)],
            96: [(-2.5, -2.5, -0.020237144), (2.5, -2.5, -0.020237144), (-2.4778237, -2.5, 7.0028257), (2.5076873, -2.5, 5.002216), (-2.4778237, 2.5, 7.0028257), (2.5076873, 2.5, 5.002216), (-2.5, 2.5, -0.020237144), (2.5, 2.5, -0.020237144)],
            97: [(-2.5, -2.5, -0.020237144), (2.5, -2.5, -0.020237144), (-2.4516387, -2.5, 6.9883156), (2.5167642, -2.5, 5.0287275), (-2.4516387, 2.5, 6.9883156), (2.5167642, 2.5, 5.0287275), (-2.5, 2.5, -0.020237144), (2.5, 2.5, -0.020237144)],
            98: [(-2.5, -2.5, -0.020237144), (2.5, -2.5, -0.020237144), (-2.4167538, -2.5, 6.9689846), (2.528857, -2.5, 5.0640473), (-2.4167538, 2.5, 6.9689846), (2.528857, 2.5, 5.0640473), (-2.5, 2.5, -0.020237144), (2.5, 2.5, -0.020237144)],
            99: [(-2.5, -2.5, -0.020237144), (2.5, -2.5, -0.020237144), (-2.3741925, -2.5, 6.9454), (2.5436106, -2.5, 5.107139), (-2.3741925, 2.5, 6.9454), (2.5436106, 2.5, 5.107139), (-2.5, 2.5, -0.020237144), (2.5, 2.5, -0.020237144)],
            100: [(-2.5, -2.5, -0.020237144), (2.5, -2.5, -0.020237144), (-2.3249784, -2.5, 6.918129), (2.5606706, -2.5, 5.156967), (-2.3249784, 2.5, 6.918129), (2.5606706, 2.5, 5.156967), (-2.5, 2.5, -0.020237144), (2.5, 2.5, -0.020237144)],
            101: [(-2.5, -2.5, -0.020237144), (2.5, -2.5, -0.020237144), (-2.270135, -2.5, 6.887738), (2.5796819, -2.5, 5.212495), (-2.270135, 2.5, 6.887738), (2.5796819, 2.5, 5.212495), (-2.5, 2.5, -0.020237144), (2.5, 2.5, -0.020237144)],
            102: [(-2.5, -2.5, -0.020237144), (2.5, -2.5, -0.020237144), (-2.2106855, -2.5, 6.8547955), (2.6002898, -2.5, 5.2726855), (-2.2106855, 2.5, 6.8547955), (2.6002898, 2.5, 5.2726855), (-2.5, 2.5, -0.020237144), (2.5, 2.5, -0.020237144)],
            103: [(-2.5, -2.5, -0.020237144), (2.5, -2.5, -0.020237144), (-2.1476538, -2.5, 6.8198676), (2.6221395, -2.5, 5.336503), (-2.1476538, 2.5, 6.8198676), (2.6221395, 2.5, 5.336503), (-2.5, 2.5, -0.020237144), (2.5, 2.5, -0.020237144)],
            104: [(-2.5, -2.5, -0.020237144), (2.5, -2.5, -0.020237144), (-2.0820634, -2.5, 6.7835217), (2.6448762, -2.5, 5.4029117), (-2.0820634, 2.5, 6.7835217), (2.6448762, 2.5, 5.4029117), (-2.5, 2.5, -0.020237144), (2.5, 2.5, -0.020237144)],
            105: [(-2.5, -2.5, -0.020237144), (2.5, -2.5, -0.020237144), (-2.0149376, -2.5, 6.746325), (2.668145, -2.5, 5.470875), (-2.0149376, 2.5, 6.746325), (2.668145, 2.5, 5.470875), (-2.5, 2.5, -0.020237144), (2.5, 2.5, -0.020237144)],
            106: [(-2.5, -2.5, -0.020237144), (2.5, -2.5, -0.020237144), (-1.9473002, -2.5, 6.7088447), (2.6005075, -2.5, 5.566051), (-1.9473002, 2.5, 6.7088447), (2.6005075, 2.5, 5.566051), (-2.5, 2.5, -0.020237144), (2.5, 2.5, -0.020237144)],
            107: [(-2.5, -2.5, -0.020237144), (2.5, -2.5, -0.020237144), (-1.8801744, -2.5, 6.671648), (2.4429872, -2.5, 5.6870008), (-1.8801744, 2.5, 6.671648), (2.4429872, 2.5, 5.6870008), (-2.5, 2.5, -0.020237144), (2.5, 2.5, -0.020237144)],
            108: [(-2.5, -2.5, -0.020237144), (2.5, -2.5, -0.020237144), (-1.8145839, -2.5, 6.635302), (2.2890697, -2.5, 5.8051844), (-1.8145839, 2.5, 6.635302), (2.2890697, 2.5, 5.8051844), (-2.5, 2.5, -0.020237144), (2.5, 2.5, -0.020237144)],
            109: [(-2.5, -2.5, -0.020237144), (2.5, -2.5, -0.020237144), (-1.7515522, -2.5, 6.600374), (2.1411567, -2.5, 5.918757), (-1.7515522, 2.5, 6.600374), (2.1411567, 2.5, 5.918757), (-2.5, 2.5, -0.020237144), (2.5, 2.5, -0.020237144)],
            110: [(-2.5, -2.5, -0.020237144), (2.5, -2.5, -0.020237144), (-1.6921029, -2.5, 6.5674314), (2.0016499, -2.5, 6.0258756), (-1.6921029, 2.5, 6.5674314), (2.0016499, 2.5, 6.0258756), (-2.5, 2.5, -0.020237144), (2.5, 2.5, -0.020237144)],
            111: [(-2.5, -2.5, -0.020237144), (2.5, -2.5, -0.020237144), (-1.6372592, -2.5, 6.5370407), (1.8729515, -2.5, 6.1246943), (-1.6372592, 2.5, 6.5370407), (1.8729515, 2.5, 6.1246943), (-2.5, 2.5, -0.020237144), (2.5, 2.5, -0.020237144)],
            112: [(-2.5, -2.5, -0.020237144), (2.5, -2.5, -0.020237144), (-1.5880451, -2.5, 6.5097694), (1.7574632, -2.5, 6.2133703), (-1.5880451, 2.5, 6.5097694), (1.7574632, 2.5, 6.2133703), (-2.5, 2.5, -0.020237144), (2.5, 2.5, -0.020237144)],
            113: [(-2.5, -2.5, -0.020237144), (2.5, -2.5, -0.020237144), (-1.5454838, -2.5, 6.486185), (1.657587, -2.5, 6.2900596), (-1.5454838, 2.5, 6.486185), (1.657587, 2.5, 6.2900596), (-2.5, 2.5, -0.020237144), (2.5, 2.5, -0.020237144)],
            114: [(-2.5, -2.5, -0.020237144), (2.5, -2.5, -0.020237144), (-1.5105989, -2.5, 6.466854), (1.5757244, -2.5, 6.3529162), (-1.5105989, 2.5, 6.466854), (1.5757244, 2.5, 6.3529162), (-2.5, 2.5, -0.020237144), (2.5, 2.5, -0.020237144)],
            115: [(-2.5, -2.5, -0.020237144), (2.5, -2.5, -0.020237144), (-1.484414, -2.5, 6.452344), (1.5142776, -2.5, 6.4000974), (-1.484414, 2.5, 6.452344), (1.5142776, 2.5, 6.4000974), (-2.5, 2.5, -0.020237144), (2.5, 2.5, -0.020237144)],
            116: [(-2.5, -2.5, -0.020237144), (2.5, -2.5, -0.020237144), (-1.4679524, -2.5, 6.443222), (1.475648, -2.5, 6.429758), (-1.4679524, 2.5, 6.443222), (1.475648, 2.5, 6.429758), (-2.5, 2.5, -0.020237144), (2.5, 2.5, -0.020237144)],
            117: [(-2.5, -2.5, -0.020237144), (2.5, -2.5, -0.020237144), (-1.4622377, -2.5, 6.4400554), (1.4622377, -2.5, 6.4400554), (-1.4622377, 2.5, 6.4400554), (1.4622377, 2.5, 6.4400554), (-2.5, 2.5, -0.020237144), (2.5, 2.5, -0.020237144)],
        }
        color3f[] primvars:displayColor (
            customData = {
                dictionary Maya = {
                    bool generated = 1
                }
            }
        )
        color3f[] primvars:displayColor.timeSamples = {
            0: [(0.4, 0.4, 0.4)],
        }
        float2[] primvars:st (
            customData = {
                dictionary Maya = {
                    int UVSetIndex = 0
                }
            }
            interpolation = "faceVarying"
        )
        float2[] primvars:st.timeSamples = {
            0: [(0.375, 0), (0.625, 0), (0.625, 0.25), (0.375, 0.25), (0.625, 0.5), (0.375, 0.5), (0.625, 0.75), (0.375, 0.75), (0.625, 1), (0.375, 1), (0.875, 0), (0.875, 0.25), (0.125, 0), (0.125, 0.25)],
        }
        int[] primvars:st:indices.timeSamples = {
            0: [0, 1, 2, 3, 3, 2, 4, 5, 5, 4, 6, 7, 7, 6, 8, 9, 1, 10, 11, 2, 12, 0, 3, 13],
        }
        bool shadow:enable = 1
        uniform token subdivisionScheme = "none"
        matrix4d xformOp:transform = ( (1, 0, 0, 0), (0, 1, 0, 0), (0, 0, 1, 0), (0, 0, 0, 1) )
        float3 xformOp:translate:pivot = (0, 2.4797628, 0)
        uniform token[] xformOpOrder = ["xformOp:transform"]
    }

    def Scope "Looks"
    {
        def Material "initialShadingGroup"
        {
            token outputs:mdl:surface.connect = </Root/Looks/initialShadingGroup/lambert1.outputs:out>

            def Shader "lambert1" (
                kind = "Material"
            )
            {
                uniform token info:id = "mdlMaterial"
                custom asset module = @lambert1.mdl@
                custom string name = "lambert1"
                token outputs:out
            }
        }
    }
}

