#usda 1.0
(
    customLayerData = {
        dictionary MovieCaptureSettings = {
            int batch_count = 1
            string camera_name = "/OmniverseKit_Persp"
            int capture_every_nth_frames = 20
            bool capture_every_nth_frames_checked = 0
            int capture_frame_end = 100
            int capture_frame_start = 0
            string capture_name = "Capture"
            string capture_range = "Custom Range - Frames"
            double capture_time_end = 10
            double capture_time_start = 0
            int fps = 60
            bool hdr_for_exr_checked = 0
            bool hdr_for_exr_visible = 0
            int iray_pathtrace_spp = 1
            string movie_type = "Sequence"
            string output_format = ".mp4"
            string output_path = "C:/Users/areidmeyer/Documents/Kit/shared/capture"
            bool overwrite_existing_frame_checked = 1
            bool pathtrace_mb_checked = 1
            double pathtrace_mb_frame_shutter_close = 0.5
            double pathtrace_mb_frame_shutter_open = 0
            int pathtrace_mb_subframes = 1
            int pathtrace_spp_per_iteration_mgpu = 8
            int pathtrace_spp_per_subframe = 1
            string queue_instance = "localhost Queue"
            int realtime_settle_latency = 0
            string render_preset = "PathTracing"
            bool render_style = 1
            bool renumber_negtive_frames_checked = 0
            int resolution_aspect_ratio_selected = 0
            string resolution_aspect_ratios = '["16:9", "4:3"]'
            int resolution_height = 1080
            string resolution_type = "Custom"
            bool resolution_w_h_linked = 1
            int resolution_width = 1920
            int run_n_frames_before_start = 20
            bool run_n_frames_before_start_checked = 0
            bool save_alpha_checked = 0
            int start_delay_seconds = 10
            double sunstudy_end = 18
            int sunstudy_movie_minutes = 1
            int sunstudy_movie_seconds = 1
            double sunstudy_start = 6
            string task_comment = ""
            string task_priority = ""
            string task_type = "create-render"
        }
        dictionary cameraSettings = {
            dictionary Front = {
                double3 position = (0, 0, 50000)
                double radius = 500
            }
            dictionary Perspective = {
                double3 position = (124.6944383714968, 93.93830193412894, 63.8910757883733)
                double3 target = (-39.969573160619746, -30.76971367171096, -36.88595850371979)
            }
            dictionary Right = {
                double3 position = (-50000, 0, -1.1102230246251565e-11)
                double radius = 500
            }
            dictionary Top = {
                double3 position = (-4.329780281177466e-12, 50000, 1.1102230246251565e-11)
                double radius = 500
            }
            string boundCamera = "/OmniverseKit_Persp"
        }
        dictionary omni_layer = {
            dictionary muteness = {
            }
        }
        dictionary renderSettings = {
            float3 "rtx:debugView:pixelDebug:textColor" = (0, 1e18, 0)
            float3 "rtx:dynamicDiffuseGI:probeCounts" = (6, 6, 6)
            float3 "rtx:dynamicDiffuseGI:probeGridOrigin" = (-210, -250, -10)
            float3 "rtx:dynamicDiffuseGI:volumeSize" = (600, 440, 300)
            int "rtx:externalFrameCounter" = 100
            bool "rtx:flow:enabled" = 1
            bool "rtx:flow:pathTracingEnabled" = 1
            bool "rtx:flow:rayTracedReflectionsEnabled" = 1
            bool "rtx:flow:rayTracedTranslucencyEnabled" = 1
            float3 "rtx:fog:fogColor" = (0.75, 0.75, 0.75)
            float3 "rtx:iray:environment_dome_ground_position" = (0, 0, 0)
            float3 "rtx:iray:environment_dome_ground_reflectivity" = (0, 0, 0)
            float3 "rtx:iray:environment_dome_rotation_axis" = (0, 1, 0)
            float3 "rtx:lightspeed:material:overrideAlbedo" = (0.5, 0.5, 0.5)
            float3 "rtx:lightspeed:material:overrideEmissiveColor" = (0.5, 0.5, 0.5)
            int "rtx:pathtracing:totalSpp" = 0
            bool "rtx:post:backgroundZeroAlpha:ApplyAlphaZeroPassFirst" = 0
            float3 "rtx:post:backgroundZeroAlpha:backgroundDefaultColor" = (0, 0, 0)
            float3 "rtx:post:colorcorr:contrast" = (1, 1, 1)
            float3 "rtx:post:colorcorr:gain" = (1, 1, 1)
            float3 "rtx:post:colorcorr:gamma" = (1, 1, 1)
            float3 "rtx:post:colorcorr:offset" = (0, 0, 0)
            float3 "rtx:post:colorcorr:saturation" = (1, 1, 1)
            float3 "rtx:post:colorgrad:blackpoint" = (0, 0, 0)
            float3 "rtx:post:colorgrad:contrast" = (1, 1, 1)
            float3 "rtx:post:colorgrad:gain" = (1, 1, 1)
            float3 "rtx:post:colorgrad:gamma" = (1, 1, 1)
            float3 "rtx:post:colorgrad:lift" = (0, 0, 0)
            float3 "rtx:post:colorgrad:multiply" = (1, 1, 1)
            float3 "rtx:post:colorgrad:offset" = (0, 0, 0)
            float3 "rtx:post:colorgrad:whitepoint" = (1, 1, 1)
            float3 "rtx:post:lensDistortion:lensFocalLengthArray" = (10, 30, 50)
            float3 "rtx:post:lensFlares:anisoFlareFalloffX" = (450, 475, 500)
            float3 "rtx:post:lensFlares:anisoFlareFalloffY" = (10, 10, 10)
            float3 "rtx:post:lensFlares:cutoffPoint" = (2, 2, 2)
            float3 "rtx:post:lensFlares:haloFlareFalloff" = (10, 10, 10)
            float3 "rtx:post:lensFlares:haloFlareRadius" = (75, 75, 75)
            float3 "rtx:post:lensFlares:isotropicFlareFalloff" = (50, 50, 50)
            float3 "rtx:post:tonemap:whitepoint" = (1, 1, 1)
            bool "rtx:raytracing:globalVolumetricEffects:enabled" = 1
            double "rtx:raytracing:inscattering:atmosphereHeight" = 10000
            float3 "rtx:raytracing:inscattering:singleScatteringAlbedo" = (0.9, 0.9, 0.9)
            float3 "rtx:raytracing:inscattering:transmittanceColor" = (0.5, 0.5, 0.5)
            token "rtx:rendermode" = "PathTracing"
            bool "rtx:resetPtAccumOnAnimTimeChange" = 1
            float3 "rtx:sceneDb:ambientLightColor" = (0.1, 0.1, 0.1)
            double "rtx:sceneDb:ambientLightIntensity" = 0
        }
    }
    defaultPrim = "World"
    endTimeCode = 100
    metersPerUnit = 0.01
    startTimeCode = 0
    timeCodesPerSecond = 24
    upAxis = "Y"
)

def Xform "World"
{
    def DistantLight "defaultLight" (
        prepend apiSchemas = ["ShapingAPI"]
    )
    {
        float angle = 1
        float intensity = 3000
        float shaping:cone:angle = 180
        float shaping:cone:softness
        float shaping:focus
        color3f shaping:focusTint
        asset shaping:ies:file
        token visibility = "invisible"
        double3 xformOp:rotateXYZ = (315, 0, 0)
        double3 xformOp:scale = (1, 1, 1)
        double3 xformOp:translate = (0, 0, 0)
        uniform token[] xformOpOrder = ["xformOp:translate", "xformOp:rotateXYZ", "xformOp:scale"]
    }

    def Xform "Fire"
    {
        def FlowSimulate "flowSimulate"
        {
            custom uint blockMinLifetime = 4
            custom float densityCellSize = 0.5
            custom bool enableLowPrecisionDensity = 0
            custom bool enableLowPrecisionVelocity = 0
            custom bool enableSmallBlocks = 0
            custom bool enableVariableTimeStep = 0
            custom bool forceClear = 0
            custom bool forceDisableCoreSimulation = 1
            custom bool forceDisableEmitters = 0
            custom bool forceSimulate = 1
            custom bool interpolateTimeSteps = 0
            int layer = 1
            custom uint maxStepsPerSimulate = 1
            custom bool physicsCollisionEnabled = 0
            custom bool physicsConvexCollision = 1
            custom bool simulateWhenPaused = 0
            custom float stepsPerSecond = 60
            custom float timeScale = 1
            custom uint velocitySubSteps = 1

            def FlowAdvectionCombustionParams "advection"
            {
                custom float buoyancyMaxSmoke = 1
                custom float buoyancyPerSmoke = 0
                float buoyancyPerTemp = 6
                custom float burnPerTemp = 4
                custom bool combustionEnabled = 1
                custom float coolingRate = 1.5
                custom float divergencePerBurn = 0
                custom bool downsampleEnabled = 1
                custom bool enabled = 1
                custom bool forceFadeEnabled = 1
                custom float fuelPerBurn = 0.25
                custom bool globalFetch = 0
                float3 gravity = (0, -100, 0)
                custom float ignitionTemp = 0.05
                custom float smokePerBurn = 3
                custom float tempPerBurn = 5

                def FlowAdvectionChannelParams "smoke"
                {
                    custom float damping = 1
                    float fade = 2
                    custom float secondOrderBlendFactor = 0.9
                    custom float secondOrderBlendThreshold = 0.001
                }

                def FlowAdvectionChannelParams "velocity"
                {
                    custom float damping = 1
                    custom float fade = 1
                    custom float secondOrderBlendFactor = 0.5
                    custom float secondOrderBlendThreshold = 0.001
                }

                def FlowAdvectionChannelParams "divergence"
                {
                    custom float damping = 1
                    custom float fade = 1
                    custom float secondOrderBlendFactor = 0.5
                    custom float secondOrderBlendThreshold = 0.001
                }

                def FlowAdvectionChannelParams "temperature"
                {
                    custom float damping = 1
                    custom float fade = 0
                    custom float secondOrderBlendFactor = 0.9
                    custom float secondOrderBlendThreshold = 0.001
                }

                def FlowAdvectionChannelParams "fuel"
                {
                    custom float damping = 1
                    custom float fade = 0
                    custom float secondOrderBlendFactor = 0.9
                    custom float secondOrderBlendThreshold = 0.001
                }

                def FlowAdvectionChannelParams "burn"
                {
                    custom float damping = 1
                    custom float fade = 0
                    custom float secondOrderBlendFactor = 0.9
                    custom float secondOrderBlendThreshold = 0.001
                }
            }

            def FlowVorticityParams "vorticity"
            {
                custom float burnMask = 0
                custom float constantMask = 0
                custom float densityMask = 0
                custom bool enabled = 1
                float forceScale = 3
                custom float fuelMask = 0
                custom float smokeMask = 0
                custom float temperatureMask = 0
                custom float velocityLinearMask = 0
                custom float velocityLogScale = 1
                custom float velocityMask = 1
            }

            def FlowPressureParams "pressure"
            {
                custom bool enabled = 1
            }

            def FlowSummaryAllocateParams "summaryAllocate"
            {
                custom bool enableNeighborAllocation = 1
                custom float smokeThreshold = 0.02
                custom float speedThreshold = 1
                custom float speedThresholdMinSmoke = 0
            }

            def FlowSparseNanoVdbExportParams "nanoVdbExport"
            {
                custom bool burnEnabled = 0
                custom bool divergenceEnabled = 0
                custom bool enabled = 0
                custom bool fuelEnabled = 0
                custom bool readbackClearOnStart = 1
                custom bool readbackClearOnStop = 1
                custom asset readbackDirectory = @@
                custom bool readbackEnabled = 0
                custom rel readbackMaterial
                custom bool readbackOpenVDB = 1
                custom bool smokeEnabled = 1
                custom bool statisticsEnabled = 1
                custom bool temperatureEnabled = 0
                custom bool velocityEnabled = 0
            }
        }

        def FlowOffscreen "flowOffscreen"
        {
            int layer = 1

            def FlowRayMarchColormapParams "colormap"
            {
                custom float colorScale = 2.5
                custom float[] colorScalePoints = [1, 1, 1, 1, 1, 1]
                custom uint resolution = 32
                float4[] rgbaPoints = [(0.0154, 0.0177, 0.0154, 0.004902), (0.03575, 0.03575, 0.03575, 0.504902), (0.03575, 0.03575, 0.03575, 0.504902), (1, 0.1594, 0.0134, 0.8), (13.53, 2.99, 0.12599, 0.8), (78, 39, 6.1, 0.7)]
                custom float[] xPoints = [0, 0.05, 0.15, 0.6, 0.85, 1]
            }

            def FlowShadowParams "shadow"
            {
                custom float attenuation = 0.045
                custom bool coarsePropagate = 1
                custom bool enabled = 1
                custom bool isPointLight = 0
                custom float3 lightDirection = (1, 1, 1)
                custom float3 lightPosition = (0, 0, 0)
                custom float minIntensity = 0.125
                custom uint numSteps = 16
                custom float stepOffsetScale = 1
                custom float stepSizeScale = 0.75
            }

            def FlowDebugVolumeParams "debugVolume"
            {
                custom bool enableSpeedAsTemperature = 0
                custom bool enableVelocityAsDensity = 0
                custom float3 velocityScale = (0.01, 0.01, 0.01)
            }
        }

        def FlowRender "flowRender"
        {
            int layer = 1

            def FlowRayMarchParams "rayMarch"
            {
                custom float attenuation = 0.01
                custom float colorScale = 10
                custom bool enableBlockWireframe = 0
                custom bool enableRawMode = 0
                custom float shadowFactor = 1
                custom float stepSizeScale = 0.25

                def FlowRayMarchCloudParams "cloud"
                {
                    custom float3 ambientColor = (0.4, 0.55, 0.9)
                    custom float ambientMultiplier = 1
                    custom float3 attenuationMultiplier = (1, 1, 1)
                    custom float densityMultiplier = 0.5
                    custom bool enableCloudMode = 0
                    custom int numShadowSteps = 10
                    custom float shadowStepMultiplier = 1
                    custom float3 sunDirection = (1, 1, 1)
                    custom float3 volumeBaseColor = (1.1, 1, 0.95)
                    custom float volumeColorMultiplier = 1
                }
            }
        }

        def Xform "Xform"
        {
            double3 xformOp:rotateXYZ = (0, 0, 0)
            double3 xformOp:scale = (2, 2, 2)
            double3 xformOp:translate = (0, 0, 0)
            uniform token[] xformOpOrder = ["xformOp:translate", "xformOp:rotateXYZ", "xformOp:scale"]

            def FlowEmitterNanoVdb "flowEmitterNanoVdb"
            {
                custom bool allocateActiveLeaves = 1
                custom float allocationScale = 1
                custom bool applyPostPressure = 0
                custom float burn = 0
                custom float burnScale = 1
                custom bool colorIsSrgb = 0
                custom float coupleRateBurn = 0
                custom float coupleRateDivergence = 0
                custom float coupleRateFuel = 0
                custom float coupleRateSmoke = 2000
                custom float coupleRateTemperature = 2000
                custom float coupleRateVelocity = 2
                custom float divergence = 0
                custom float divergenceScale = 1
                custom bool enabled = 1
                custom float fuel = 0
                custom float fuelScale = 1
                custom int layer = 1
                custom float maxDistance = 0.25
                custom float minDistance = -0.25
                custom uint64 nanoVdbBurnFirstElement = 0
                custom uint[] nanoVdbBurns = []
                custom asset nanoVdbBurns:assetPath = @@
                custom token nanoVdbBurns:gridName = ""
                custom uint64 nanoVdbCoupleRateBurnFirstElement = 0
                custom uint[] nanoVdbCoupleRateBurns = []
                custom asset nanoVdbCoupleRateBurns:assetPath = @@
                custom token nanoVdbCoupleRateBurns:gridName = ""
                custom uint64 nanoVdbCoupleRateDivergenceFirstElement = 0
                custom uint[] nanoVdbCoupleRateDivergences = []
                custom asset nanoVdbCoupleRateDivergences:assetPath = @@
                custom token nanoVdbCoupleRateDivergences:gridName = ""
                custom uint64 nanoVdbCoupleRateFuelFirstElement = 0
                custom uint[] nanoVdbCoupleRateFuels = []
                custom asset nanoVdbCoupleRateFuels:assetPath = @@
                custom token nanoVdbCoupleRateFuels:gridName = ""
                custom uint64 nanoVdbCoupleRateSmokeFirstElement = 0
                custom uint[] nanoVdbCoupleRateSmokes = []
                custom asset nanoVdbCoupleRateSmokes:assetPath = @@
                custom token nanoVdbCoupleRateSmokes:gridName = ""
                custom uint64 nanoVdbCoupleRateTemperatureFirstElement = 0
                custom uint[] nanoVdbCoupleRateTemperatures = []
                custom asset nanoVdbCoupleRateTemperatures:assetPath = @@
                custom token nanoVdbCoupleRateTemperatures:gridName = ""
                custom uint[] nanoVdbCoupleRateVelocities = []
                custom asset nanoVdbCoupleRateVelocities:assetPath = @@
                custom token nanoVdbCoupleRateVelocities:gridName = ""
                custom uint64 nanoVdbCoupleRateVelocityFirstElement = 0
                custom uint64 nanoVdbDistanceFirstElement = 0
                custom uint[] nanoVdbDistances = []
                custom asset nanoVdbDistances:assetPath = @@
                custom token nanoVdbDistances:gridName = ""
                custom uint64 nanoVdbDivergenceFirstElement = 0
                custom uint[] nanoVdbDivergences = []
                custom asset nanoVdbDivergences:assetPath = @@
                custom token nanoVdbDivergences:gridName = ""
                custom uint64 nanoVdbFuelFirstElement = 0
                custom uint[] nanoVdbFuels = []
                custom asset nanoVdbFuels:assetPath = @@
                custom token nanoVdbFuels:gridName = ""
                custom uint64 nanoVdbRgba8FirstElement = 0
                custom uint[] nanoVdbRgba8s = []
                custom asset nanoVdbRgba8s:assetPath = @@
                custom token nanoVdbRgba8s:gridName = ""
                custom uint64 nanoVdbSmokeFirstElement = 0
                custom uint[] nanoVdbSmokes = []
                custom asset nanoVdbSmokes:assetPath = @./Explosion_VDB/Explosion_VDB_Cache.40.vdb@
                asset nanoVdbSmokes:assetPath.timeSamples = {
                    0: @./v02/Explosion_VDB_Cache.1.vdb@,
                    1: @./v02/Explosion_VDB_Cache.2.vdb@,
                    2: @./v02/Explosion_VDB_Cache.3.vdb@,
                    3: @./v02/Explosion_VDB_Cache.4.vdb@,
                    4: @./v02/Explosion_VDB_Cache.5.vdb@,
                    5: @./v02/Explosion_VDB_Cache.6.vdb@,
                    6: @./v02/Explosion_VDB_Cache.7.vdb@,
                    7: @./v02/Explosion_VDB_Cache.8.vdb@,
                    8: @./v02/Explosion_VDB_Cache.9.vdb@,
                    9: @./v02/Explosion_VDB_Cache.10.vdb@,
                    10: @./v02/Explosion_VDB_Cache.11.vdb@,
                    11: @./v02/Explosion_VDB_Cache.12.vdb@,
                    12: @./v02/Explosion_VDB_Cache.13.vdb@,
                    13: @./v02/Explosion_VDB_Cache.14.vdb@,
                    14: @./v02/Explosion_VDB_Cache.15.vdb@,
                    15: @./v02/Explosion_VDB_Cache.16.vdb@,
                    16: @./v02/Explosion_VDB_Cache.17.vdb@,
                    17: @./v02/Explosion_VDB_Cache.18.vdb@,
                    18: @./v02/Explosion_VDB_Cache.19.vdb@,
                    19: @./v02/Explosion_VDB_Cache.20.vdb@,
                    20: @./v02/Explosion_VDB_Cache.21.vdb@,
                    21: @./v02/Explosion_VDB_Cache.22.vdb@,
                    22: @./v02/Explosion_VDB_Cache.23.vdb@,
                    23: @./v02/Explosion_VDB_Cache.24.vdb@,
                    24: @./v02/Explosion_VDB_Cache.25.vdb@,
                    25: @./v02/Explosion_VDB_Cache.26.vdb@,
                    26: @./v02/Explosion_VDB_Cache.27.vdb@,
                    27: @./v02/Explosion_VDB_Cache.28.vdb@,
                    28: @./v02/Explosion_VDB_Cache.29.vdb@,
                    29: @./v02/Explosion_VDB_Cache.30.vdb@,
                    30: @./v02/Explosion_VDB_Cache.31.vdb@,
                    31: @./v02/Explosion_VDB_Cache.32.vdb@,
                    32: @./v02/Explosion_VDB_Cache.33.vdb@,
                    33: @./v02/Explosion_VDB_Cache.34.vdb@,
                    34: @./v02/Explosion_VDB_Cache.35.vdb@,
                    35: @./v02/Explosion_VDB_Cache.36.vdb@,
                    36: @./v02/Explosion_VDB_Cache.37.vdb@,
                    37: @./v02/Explosion_VDB_Cache.38.vdb@,
                    38: @./v02/Explosion_VDB_Cache.39.vdb@,
                    39: @./v02/Explosion_VDB_Cache.40.vdb@,
                    40: @./v02/Explosion_VDB_Cache.41.vdb@,
                    41: @./v02/Explosion_VDB_Cache.42.vdb@,
                    42: @./v02/Explosion_VDB_Cache.43.vdb@,
                    43: @./v02/Explosion_VDB_Cache.44.vdb@,
                    44: @./v02/Explosion_VDB_Cache.45.vdb@,
                    45: @./v02/Explosion_VDB_Cache.46.vdb@,
                    46: @./v02/Explosion_VDB_Cache.47.vdb@,
                    47: @./v02/Explosion_VDB_Cache.48.vdb@,
                    48: @./v02/Explosion_VDB_Cache.49.vdb@,
                    49: @./v02/Explosion_VDB_Cache.50.vdb@,
                }
                custom token nanoVdbSmokes:gridName = "density"
                custom uint64 nanoVdbTemperatureFirstElement = 0
                custom uint[] nanoVdbTemperatures = []
                custom asset nanoVdbTemperatures:assetPath = @./Explosion_VDB/Explosion_VDB_Cache.40.vdb@
                asset nanoVdbTemperatures:assetPath.timeSamples = {
                    0: @./v02/Explosion_VDB_Cache.1.vdb@,
                    1: @./v02/Explosion_VDB_Cache.2.vdb@,
                    2: @./v02/Explosion_VDB_Cache.3.vdb@,
                    3: @./v02/Explosion_VDB_Cache.4.vdb@,
                    4: @./v02/Explosion_VDB_Cache.5.vdb@,
                    5: @./v02/Explosion_VDB_Cache.6.vdb@,
                    6: @./v02/Explosion_VDB_Cache.7.vdb@,
                    7: @./v02/Explosion_VDB_Cache.8.vdb@,
                    8: @./v02/Explosion_VDB_Cache.9.vdb@,
                    9: @./v02/Explosion_VDB_Cache.10.vdb@,
                    10: @./v02/Explosion_VDB_Cache.11.vdb@,
                    11: @./v02/Explosion_VDB_Cache.12.vdb@,
                    12: @./v02/Explosion_VDB_Cache.13.vdb@,
                    13: @./v02/Explosion_VDB_Cache.14.vdb@,
                    14: @./v02/Explosion_VDB_Cache.15.vdb@,
                    15: @./v02/Explosion_VDB_Cache.16.vdb@,
                    16: @./v02/Explosion_VDB_Cache.17.vdb@,
                    17: @./v02/Explosion_VDB_Cache.18.vdb@,
                    18: @./v02/Explosion_VDB_Cache.19.vdb@,
                    19: @./v02/Explosion_VDB_Cache.20.vdb@,
                    20: @./v02/Explosion_VDB_Cache.21.vdb@,
                    21: @./v02/Explosion_VDB_Cache.22.vdb@,
                    22: @./v02/Explosion_VDB_Cache.23.vdb@,
                    23: @./v02/Explosion_VDB_Cache.24.vdb@,
                    24: @./v02/Explosion_VDB_Cache.25.vdb@,
                    25: @./v02/Explosion_VDB_Cache.26.vdb@,
                    26: @./v02/Explosion_VDB_Cache.27.vdb@,
                    27: @./v02/Explosion_VDB_Cache.28.vdb@,
                    28: @./v02/Explosion_VDB_Cache.29.vdb@,
                    29: @./v02/Explosion_VDB_Cache.30.vdb@,
                    30: @./v02/Explosion_VDB_Cache.31.vdb@,
                    31: @./v02/Explosion_VDB_Cache.32.vdb@,
                    32: @./v02/Explosion_VDB_Cache.33.vdb@,
                    33: @./v02/Explosion_VDB_Cache.34.vdb@,
                    34: @./v02/Explosion_VDB_Cache.35.vdb@,
                    35: @./v02/Explosion_VDB_Cache.36.vdb@,
                    36: @./v02/Explosion_VDB_Cache.37.vdb@,
                    37: @./v02/Explosion_VDB_Cache.38.vdb@,
                    38: @./v02/Explosion_VDB_Cache.39.vdb@,
                    39: @./v02/Explosion_VDB_Cache.40.vdb@,
                    40: @./v02/Explosion_VDB_Cache.41.vdb@,
                    41: @./v02/Explosion_VDB_Cache.42.vdb@,
                    42: @./v02/Explosion_VDB_Cache.43.vdb@,
                    43: @./v02/Explosion_VDB_Cache.44.vdb@,
                    44: @./v02/Explosion_VDB_Cache.45.vdb@,
                    45: @./v02/Explosion_VDB_Cache.46.vdb@,
                    46: @./v02/Explosion_VDB_Cache.47.vdb@,
                    47: @./v02/Explosion_VDB_Cache.48.vdb@,
                    48: @./v02/Explosion_VDB_Cache.49.vdb@,
                    49: @./v02/Explosion_VDB_Cache.50.vdb@,
                }
                custom token nanoVdbTemperatures:gridName = "temperature"
                custom uint[] nanoVdbVelocities = []
                custom asset nanoVdbVelocities:assetPath = @@
                custom token nanoVdbVelocities:gridName = ""
                custom uint64 nanoVdbVelocityFirstElement = 0
                custom float smoke = 10
                custom float smokeScale = 1
                custom float temperature = 0.3
                custom float temperatureScale = 1
                custom float3 velocity = (0, 0, 0)
                custom bool velocityIsWorldSpace = 0
                custom float velocityScale = 1
            }
        }
    }

    def Mesh "Disk"
    {
        int[] faceVertexCounts = [4, 4, 4, 4, 4, 4, 4, 4, 4, 4, 4, 4, 4, 4, 4, 4, 4, 4, 4, 4, 4, 4, 4, 4, 4, 4, 4, 4, 4, 4, 4, 4, 4, 4, 4, 4, 4, 4, 4, 4, 4, 4, 4, 4, 4, 4, 4, 4, 4, 4, 4, 4, 4, 4, 4, 4, 4, 4, 4, 4, 4, 4, 4, 4, 3, 3, 3, 3, 3, 3, 3, 3, 3, 3, 3, 3, 3, 3, 3, 3, 3, 3, 3, 3, 3, 3, 3, 3, 3, 3, 3, 3, 3, 3, 3, 3, 3, 3, 3, 3, 3, 3, 3, 3, 3, 3, 3, 3, 3, 3, 3, 3, 3, 3, 3, 3, 3, 3, 3, 3, 3, 3, 3, 3, 3, 3, 3, 3]
        int[] faceVertexIndices = [0, 1, 65, 64, 1, 2, 66, 65, 2, 3, 67, 66, 3, 4, 68, 67, 4, 5, 69, 68, 5, 6, 70, 69, 6, 7, 71, 70, 7, 8, 72, 71, 8, 9, 73, 72, 9, 10, 74, 73, 10, 11, 75, 74, 11, 12, 76, 75, 12, 13, 77, 76, 13, 14, 78, 77, 14, 15, 79, 78, 15, 16, 80, 79, 16, 17, 81, 80, 17, 18, 82, 81, 18, 19, 83, 82, 19, 20, 84, 83, 20, 21, 85, 84, 21, 22, 86, 85, 22, 23, 87, 86, 23, 24, 88, 87, 24, 25, 89, 88, 25, 26, 90, 89, 26, 27, 91, 90, 27, 28, 92, 91, 28, 29, 93, 92, 29, 30, 94, 93, 30, 31, 95, 94, 31, 32, 96, 95, 32, 33, 97, 96, 33, 34, 98, 97, 34, 35, 99, 98, 35, 36, 100, 99, 36, 37, 101, 100, 37, 38, 102, 101, 38, 39, 103, 102, 39, 40, 104, 103, 40, 41, 105, 104, 41, 42, 106, 105, 42, 43, 107, 106, 43, 44, 108, 107, 44, 45, 109, 108, 45, 46, 110, 109, 46, 47, 111, 110, 47, 48, 112, 111, 48, 49, 113, 112, 49, 50, 114, 113, 50, 51, 115, 114, 51, 52, 116, 115, 52, 53, 117, 116, 53, 54, 118, 117, 54, 55, 119, 118, 55, 56, 120, 119, 56, 57, 121, 120, 57, 58, 122, 121, 58, 59, 123, 122, 59, 60, 124, 123, 60, 61, 125, 124, 61, 62, 126, 125, 62, 63, 127, 126, 63, 0, 64, 127, 128, 1, 0, 128, 2, 1, 128, 3, 2, 128, 4, 3, 128, 5, 4, 128, 6, 5, 128, 7, 6, 128, 8, 7, 128, 9, 8, 128, 10, 9, 128, 11, 10, 128, 12, 11, 128, 13, 12, 128, 14, 13, 128, 15, 14, 128, 16, 15, 128, 17, 16, 128, 18, 17, 128, 19, 18, 128, 20, 19, 128, 21, 20, 128, 22, 21, 128, 23, 22, 128, 24, 23, 128, 25, 24, 128, 26, 25, 128, 27, 26, 128, 28, 27, 128, 29, 28, 128, 30, 29, 128, 31, 30, 128, 32, 31, 128, 33, 32, 128, 34, 33, 128, 35, 34, 128, 36, 35, 128, 37, 36, 128, 38, 37, 128, 39, 38, 128, 40, 39, 128, 41, 40, 128, 42, 41, 128, 43, 42, 128, 44, 43, 128, 45, 44, 128, 46, 45, 128, 47, 46, 128, 48, 47, 128, 49, 48, 128, 50, 49, 128, 51, 50, 128, 52, 51, 128, 53, 52, 128, 54, 53, 128, 55, 54, 128, 56, 55, 128, 57, 56, 128, 58, 57, 128, 59, 58, 128, 60, 59, 128, 61, 60, 128, 62, 61, 128, 63, 62, 128, 0, 63]
        normal3f[] normals = [(0, 1, 0), (0, 1, 0), (0, 1, 0), (0, 1, 0), (0, 1, 0), (0, 1, 0), (0, 1, 0), (0, 1, 0), (0, 1, 0), (0, 1, 0), (0, 1, 0), (0, 1, 0), (0, 1, 0), (0, 1, 0), (0, 1, 0), (0, 1, 0), (0, 1, 0), (0, 1, 0), (0, 1, 0), (0, 1, 0), (0, 1, 0), (0, 1, 0), (0, 1, 0), (0, 1, 0), (0, 1, 0), (0, 1, 0), (0, 1, 0), (0, 1, 0), (0, 1, 0), (0, 1, 0), (0, 1, 0), (0, 1, 0), (0, 1, 0), (0, 1, 0), (0, 1, 0), (0, 1, 0), (0, 1, 0), (0, 1, 0), (0, 1, 0), (0, 1, 0), (0, 1, 0), (0, 1, 0), (0, 1, 0), (0, 1, 0), (0, 1, 0), (0, 1, 0), (0, 1, 0), (0, 1, 0), (0, 1, 0), (0, 1, 0), (0, 1, 0), (0, 1, 0), (0, 1, 0), (0, 1, 0), (0, 1, 0), (0, 1, 0), (0, 1, 0), (0, 1, 0), (0, 1, 0), (0, 1, 0), (0, 1, 0), (0, 1, 0), (0, 1, 0), (0, 1, 0), (0, 1, 0), (0, 1, 0), (0, 1, 0), (0, 1, 0), (0, 1, 0), (0, 1, 0), (0, 1, 0), (0, 1, 0), (0, 1, 0), (0, 1, 0), (0, 1, 0), (0, 1, 0), (0, 1, 0), (0, 1, 0), (0, 1, 0), (0, 1, 0), (0, 1, 0), (0, 1, 0), (0, 1, 0), (0, 1, 0), (0, 1, 0), (0, 1, 0), (0, 1, 0), (0, 1, 0), (0, 1, 0), (0, 1, 0), (0, 1, 0), (0, 1, 0), (0, 1, 0), (0, 1, 0), (0, 1, 0), (0, 1, 0), (0, 1, 0), (0, 1, 0), (0, 1, 0), (0, 1, 0), (0, 1, 0), (0, 1, 0), (0, 1, 0), (0, 1, 0), (0, 1, 0), (0, 1, 0), (0, 1, 0), (0, 1, 0), (0, 1, 0), (0, 1, 0), (0, 1, 0), (0, 1, 0), (0, 1, 0), (0, 1, 0), (0, 1, 0), (0, 1, 0), (0, 1, 0), (0, 1, 0), (0, 1, 0), (0, 1, 0), (0, 1, 0), (0, 1, 0), (0, 1, 0), (0, 1, 0), (0, 1, 0), (0, 1, 0), (0, 1, 0), (0, 1, 0), (0, 1, 0), (0, 1, 0), (0, 1, 0), (0, 1, 0), (0, 1, 0), (0, 1, 0), (0, 1, 0), (0, 1, 0), (0, 1, 0), (0, 1, 0), (0, 1, 0), (0, 1, 0), (0, 1, 0), (0, 1, 0), (0, 1, 0), (0, 1, 0), (0, 1, 0), (0, 1, 0), (0, 1, 0), (0, 1, 0), (0, 1, 0), (0, 1, 0), (0, 1, 0), (0, 1, 0), (0, 1, 0), (0, 1, 0), (0, 1, 0), (0, 1, 0), (0, 1, 0), (0, 1, 0), (0, 1, 0), (0, 1, 0), (0, 1, 0), (0, 1, 0), (0, 1, 0), (0, 1, 0), (0, 1, 0), (0, 1, 0), (0, 1, 0), (0, 1, 0), (0, 1, 0), (0, 1, 0), (0, 1, 0), (0, 1, 0), (0, 1, 0), (0, 1, 0), (0, 1, 0), (0, 1, 0), (0, 1, 0), (0, 1, 0), (0, 1, 0), (0, 1, 0), (0, 1, 0), (0, 1, 0), (0, 1, 0), (0, 1, 0), (0, 1, 0), (0, 1, 0), (0, 1, 0), (0, 1, 0), (0, 1, 0), (0, 1, 0), (0, 1, 0), (0, 1, 0), (0, 1, 0), (0, 1, 0), (0, 1, 0), (0, 1, 0), (0, 1, 0), (0, 1, 0), (0, 1, 0), (0, 1, 0), (0, 1, 0), (0, 1, 0), (0, 1, 0), (0, 1, 0), (0, 1, 0), (0, 1, 0), (0, 1, 0), (0, 1, 0), (0, 1, 0), (0, 1, 0), (0, 1, 0), (0, 1, 0), (0, 1, 0), (0, 1, 0), (0, 1, 0), (0, 1, 0), (0, 1, 0), (0, 1, 0), (0, 1, 0), (0, 1, 0), (0, 1, 0), (0, 1, 0), (0, 1, 0), (0, 1, 0), (0, 1, 0), (0, 1, 0), (0, 1, 0), (0, 1, 0), (0, 1, 0), (0, 1, 0), (0, 1, 0), (0, 1, 0), (0, 1, 0), (0, 1, 0), (0, 1, 0), (0, 1, 0), (0, 1, 0), (0, 1, 0), (0, 1, 0), (0, 1, 0), (0, 1, 0), (0, 1, 0), (0, 1, 0), (0, 1, 0), (0, 1, 0), (0, 1, 0), (0, 1, 0), (0, 1, 0), (0, 1, 0), (0, 1, 0), (0, 1, 0), (0, 1, 0), (0, 1, 0), (0, 1, 0), (0, 1, 0), (0, 1, 0), (0, 1, 0), (0, 1, 0), (0, 1, 0), (0, 1, 0), (0, 1, 0), (0, 1, 0), (0, 1, 0), (0, 1, 0), (0, 1, 0), (0, 1, 0), (0, 1, 0), (0, 1, 0), (0, 1, 0), (0, 1, 0), (0, 1, 0), (0, 1, 0), (0, 1, 0), (0, 1, 0), (0, 1, 0), (0, 1, 0), (0, 1, 0), (0, 1, 0), (0, 1, 0), (0, 1, 0), (0, 1, 0), (0, 1, 0), (0, 1, 0), (0, 1, 0), (0, 1, 0), (0, 1, 0), (0, 1, 0), (0, 1, 0), (0, 1, 0), (0, 1, 0), (0, 1, 0), (0, 1, 0), (0, 1, 0), (0, 1, 0), (0, 1, 0), (0, 1, 0), (0, 1, 0), (0, 1, 0), (0, 1, 0), (0, 1, 0), (0, 1, 0), (0, 1, 0), (0, 1, 0), (0, 1, 0), (0, 1, 0), (0, 1, 0), (0, 1, 0), (0, 1, 0), (0, 1, 0), (0, 1, 0), (0, 1, 0), (0, 1, 0), (0, 1, 0), (0, 1, 0), (0, 1, 0), (0, 1, 0), (0, 1, 0), (0, 1, 0), (0, 1, 0), (0, 1, 0), (0, 1, 0), (0, 1, 0), (0, 1, 0), (0, 1, 0), (0, 1, 0), (0, 1, 0), (0, 1, 0), (0, 1, 0), (0, 1, 0), (0, 1, 0), (0, 1, 0), (0, 1, 0), (0, 1, 0), (0, 1, 0), (0, 1, 0), (0, 1, 0), (0, 1, 0), (0, 1, 0), (0, 1, 0), (0, 1, 0), (0, 1, 0), (0, 1, 0), (0, 1, 0), (0, 1, 0), (0, 1, 0), (0, 1, 0), (0, 1, 0), (0, 1, 0), (0, 1, 0), (0, 1, 0), (0, 1, 0), (0, 1, 0), (0, 1, 0), (0, 1, 0), (0, 1, 0), (0, 1, 0), (0, 1, 0), (0, 1, 0), (0, 1, 0), (0, 1, 0), (0, 1, 0), (0, 1, 0), (0, 1, 0), (0, 1, 0), (0, 1, 0), (0, 1, 0), (0, 1, 0), (0, 1, 0), (0, 1, 0), (0, 1, 0), (0, 1, 0), (0, 1, 0), (0, 1, 0), (0, 1, 0), (0, 1, 0), (0, 1, 0), (0, 1, 0), (0, 1, 0), (0, 1, 0), (0, 1, 0), (0, 1, 0), (0, 1, 0), (0, 1, 0), (0, 1, 0), (0, 1, 0), (0, 1, 0), (0, 1, 0), (0, 1, 0), (0, 1, 0), (0, 1, 0), (0, 1, 0), (0, 1, 0), (0, 1, 0), (0, 1, 0), (0, 1, 0), (0, 1, 0), (0, 1, 0), (0, 1, 0), (0, 1, 0), (0, 1, 0), (0, 1, 0), (0, 1, 0), (0, 1, 0), (0, 1, 0), (0, 1, 0), (0, 1, 0), (0, 1, 0), (0, 1, 0), (0, 1, 0), (0, 1, 0), (0, 1, 0), (0, 1, 0), (0, 1, 0), (0, 1, 0), (0, 1, 0), (0, 1, 0), (0, 1, 0), (0, 1, 0), (0, 1, 0), (0, 1, 0), (0, 1, 0), (0, 1, 0), (0, 1, 0), (0, 1, 0), (0, 1, 0), (0, 1, 0), (0, 1, 0), (0, 1, 0), (0, 1, 0), (0, 1, 0), (0, 1, 0), (0, 1, 0), (0, 1, 0), (0, 1, 0), (0, 1, 0), (0, 1, 0), (0, 1, 0), (0, 1, 0), (0, 1, 0), (0, 1, 0), (0, 1, 0), (0, 1, 0), (0, 1, 0), (0, 1, 0), (0, 1, 0), (0, 1, 0), (0, 1, 0), (0, 1, 0)] (
            interpolation = "faceVarying"
        )
        point3f[] points = [(0.0005, 0, 0), (0.0004975924, 0, 0.00004900857), (0.0004903926, 0, 0.00009754516), (0.00047847017, 0, 0.00014514234), (0.00046193978, 0, 0.00019134172), (0.00044096063, 0, 0.00023569838), (0.0004157348, 0, 0.00027778512), (0.0003865052, 0, 0.00031719665), (0.0003535534, 0, 0.0003535534), (0.00031719665, 0, 0.0003865052), (0.00027778512, 0, 0.0004157348), (0.00023569838, 0, 0.00044096063), (0.00019134172, 0, 0.00046193978), (0.00014514234, 0, 0.00047847017), (0.00009754516, 0, 0.0004903926), (0.00004900857, 0, 0.0004975924), (3.061617e-20, 0, 0.0005), (-0.00004900857, 0, 0.0004975924), (-0.00009754516, 0, 0.0004903926), (-0.00014514234, 0, 0.00047847017), (-0.00019134172, 0, 0.00046193978), (-0.00023569838, 0, 0.00044096063), (-0.00027778512, 0, 0.0004157348), (-0.00031719665, 0, 0.0003865052), (-0.0003535534, 0, 0.0003535534), (-0.0003865052, 0, 0.00031719665), (-0.0004157348, 0, 0.00027778512), (-0.00044096063, 0, 0.00023569838), (-0.00046193978, 0, 0.00019134172), (-0.00047847017, 0, 0.00014514234), (-0.0004903926, 0, 0.00009754516), (-0.0004975924, 0, 0.00004900857), (-0.0005, 0, 6.123234e-20), (-0.0004975924, 0, -0.00004900857), (-0.0004903926, 0, -0.00009754516), (-0.00047847017, 0, -0.00014514234), (-0.00046193978, 0, -0.00019134172), (-0.00044096063, 0, -0.00023569838), (-0.0004157348, 0, -0.00027778512), (-0.0003865052, 0, -0.00031719665), (-0.0003535534, 0, -0.0003535534), (-0.00031719665, 0, -0.0003865052), (-0.00027778512, 0, -0.0004157348), (-0.00023569838, 0, -0.00044096063), (-0.00019134172, 0, -0.00046193978), (-0.00014514234, 0, -0.00047847017), (-0.00009754516, 0, -0.0004903926), (-0.00004900857, 0, -0.0004975924), (-9.1848507e-20, 0, -0.0005), (0.00004900857, 0, -0.0004975924), (0.00009754516, 0, -0.0004903926), (0.00014514234, 0, -0.00047847017), (0.00019134172, 0, -0.00046193978), (0.00023569838, 0, -0.00044096063), (0.00027778512, 0, -0.0004157348), (0.00031719665, 0, -0.0003865052), (0.0003535534, 0, -0.0003535534), (0.0003865052, 0, -0.00031719665), (0.0004157348, 0, -0.00027778512), (0.00044096063, 0, -0.00023569838), (0.00046193978, 0, -0.00019134172), (0.00047847017, 0, -0.00014514234), (0.0004903926, 0, -0.00009754516), (0.0004975924, 0, -0.00004900857), (50, 0, 0), (49.759235, 0, 4.900857), (49.039265, 0, 9.754516), (47.847015, 0, 14.514234), (46.193977, 0, 19.134172), (44.09606, 0, 23.569838), (41.573483, 0, 27.778511), (38.650524, 0, 31.719664), (35.35534, 0, 35.35534), (31.719664, 0, 38.650524), (27.778511, 0, 41.573483), (23.569838, 0, 44.09606), (19.134172, 0, 46.193977), (14.514234, 0, 47.847015), (9.754516, 0, 49.039265), (4.900857, 0, 49.759235), (3.0616169e-15, 0, 50), (-4.900857, 0, 49.759235), (-9.754516, 0, 49.039265), (-14.514234, 0, 47.847015), (-19.134172, 0, 46.193977), (-23.569838, 0, 44.09606), (-27.778511, 0, 41.573483), (-31.719664, 0, 38.650524), (-35.35534, 0, 35.35534), (-38.650524, 0, 31.719664), (-41.573483, 0, 27.778511), (-44.09606, 0, 23.569838), (-46.193977, 0, 19.134172), (-47.847015, 0, 14.514234), (-49.039265, 0, 9.754516), (-49.759235, 0, 4.900857), (-50, 0, 6.1232338e-15), (-49.759235, 0, -4.900857), (-49.039265, 0, -9.754516), (-47.847015, 0, -14.514234), (-46.193977, 0, -19.134172), (-44.09606, 0, -23.569838), (-41.573483, 0, -27.778511), (-38.650524, 0, -31.719664), (-35.35534, 0, -35.35534), (-31.719664, 0, -38.650524), (-27.778511, 0, -41.573483), (-23.569838, 0, -44.09606), (-19.134172, 0, -46.193977), (-14.514234, 0, -47.847015), (-9.754516, 0, -49.039265), (-4.900857, 0, -49.759235), (-9.184851e-15, 0, -50), (4.900857, 0, -49.759235), (9.754516, 0, -49.039265), (14.514234, 0, -47.847015), (19.134172, 0, -46.193977), (23.569838, 0, -44.09606), (27.778511, 0, -41.573483), (31.719664, 0, -38.650524), (35.35534, 0, -35.35534), (38.650524, 0, -31.719664), (41.573483, 0, -27.778511), (44.09606, 0, -23.569838), (46.193977, 0, -19.134172), (47.847015, 0, -14.514234), (49.039265, 0, -9.754516), (49.759235, 0, -4.900857), (0, 0, 0)]
        float2[] primvars:st = [(1, 0.00001), (0.984375, 0.00001), (0.984375, 1), (1, 1), (0.984375, 0.00001), (0.96875, 0.00001), (0.96875, 1), (0.984375, 1), (0.96875, 0.00001), (0.953125, 0.00001), (0.953125, 1), (0.96875, 1), (0.953125, 0.00001), (0.9375, 0.00001), (0.9375, 1), (0.953125, 1), (0.9375, 0.00001), (0.921875, 0.00001), (0.921875, 1), (0.9375, 1), (0.921875, 0.00001), (0.90625, 0.00001), (0.90625, 1), (0.921875, 1), (0.90625, 0.00001), (0.890625, 0.00001), (0.890625, 1), (0.90625, 1), (0.890625, 0.00001), (0.875, 0.00001), (0.875, 1), (0.890625, 1), (0.875, 0.00001), (0.859375, 0.00001), (0.859375, 1), (0.875, 1), (0.859375, 0.00001), (0.84375, 0.00001), (0.84375, 1), (0.859375, 1), (0.84375, 0.00001), (0.828125, 0.00001), (0.828125, 1), (0.84375, 1), (0.828125, 0.00001), (0.8125, 0.00001), (0.8125, 1), (0.828125, 1), (0.8125, 0.00001), (0.796875, 0.00001), (0.796875, 1), (0.8125, 1), (0.796875, 0.00001), (0.78125, 0.00001), (0.78125, 1), (0.796875, 1), (0.78125, 0.00001), (0.765625, 0.00001), (0.765625, 1), (0.78125, 1), (0.765625, 0.00001), (0.75, 0.00001), (0.75, 1), (0.765625, 1), (0.75, 0.00001), (0.734375, 0.00001), (0.734375, 1), (0.75, 1), (0.734375, 0.00001), (0.71875, 0.00001), (0.71875, 1), (0.734375, 1), (0.71875, 0.00001), (0.703125, 0.00001), (0.703125, 1), (0.71875, 1), (0.703125, 0.00001), (0.6875, 0.00001), (0.6875, 1), (0.703125, 1), (0.6875, 0.00001), (0.671875, 0.00001), (0.671875, 1), (0.6875, 1), (0.671875, 0.00001), (0.65625, 0.00001), (0.65625, 1), (0.671875, 1), (0.65625, 0.00001), (0.640625, 0.00001), (0.640625, 1), (0.65625, 1), (0.640625, 0.00001), (0.625, 0.00001), (0.625, 1), (0.640625, 1), (0.625, 0.00001), (0.609375, 0.00001), (0.609375, 1), (0.625, 1), (0.609375, 0.00001), (0.59375, 0.00001), (0.59375, 1), (0.609375, 1), (0.59375, 0.00001), (0.578125, 0.00001), (0.578125, 1), (0.59375, 1), (0.578125, 0.00001), (0.5625, 0.00001), (0.5625, 1), (0.578125, 1), (0.5625, 0.00001), (0.546875, 0.00001), (0.546875, 1), (0.5625, 1), (0.546875, 0.00001), (0.53125, 0.00001), (0.53125, 1), (0.546875, 1), (0.53125, 0.00001), (0.515625, 0.00001), (0.515625, 1), (0.53125, 1), (0.515625, 0.00001), (0.5, 0.00001), (0.5, 1), (0.515625, 1), (0.5, 0.00001), (0.484375, 0.00001), (0.484375, 1), (0.5, 1), (0.484375, 0.00001), (0.46875, 0.00001), (0.46875, 1), (0.484375, 1), (0.46875, 0.00001), (0.453125, 0.00001), (0.453125, 1), (0.46875, 1), (0.453125, 0.00001), (0.4375, 0.00001), (0.4375, 1), (0.453125, 1), (0.4375, 0.00001), (0.421875, 0.00001), (0.421875, 1), (0.4375, 1), (0.421875, 0.00001), (0.40625, 0.00001), (0.40625, 1), (0.421875, 1), (0.40625, 0.00001), (0.390625, 0.00001), (0.390625, 1), (0.40625, 1), (0.390625, 0.00001), (0.375, 0.00001), (0.375, 1), (0.390625, 1), (0.375, 0.00001), (0.359375, 0.00001), (0.359375, 1), (0.375, 1), (0.359375, 0.00001), (0.34375, 0.00001), (0.34375, 1), (0.359375, 1), (0.34375, 0.00001), (0.328125, 0.00001), (0.328125, 1), (0.34375, 1), (0.328125, 0.00001), (0.3125, 0.00001), (0.3125, 1), (0.328125, 1), (0.3125, 0.00001), (0.296875, 0.00001), (0.296875, 1), (0.3125, 1), (0.296875, 0.00001), (0.28125, 0.00001), (0.28125, 1), (0.296875, 1), (0.28125, 0.00001), (0.265625, 0.00001), (0.265625, 1), (0.28125, 1), (0.265625, 0.00001), (0.25, 0.00001), (0.25, 1), (0.265625, 1), (0.25, 0.00001), (0.234375, 0.00001), (0.234375, 1), (0.25, 1), (0.234375, 0.00001), (0.21875, 0.00001), (0.21875, 1), (0.234375, 1), (0.21875, 0.00001), (0.203125, 0.00001), (0.203125, 1), (0.21875, 1), (0.203125, 0.00001), (0.1875, 0.00001), (0.1875, 1), (0.203125, 1), (0.1875, 0.00001), (0.171875, 0.00001), (0.171875, 1), (0.1875, 1), (0.171875, 0.00001), (0.15625, 0.00001), (0.15625, 1), (0.171875, 1), (0.15625, 0.00001), (0.140625, 0.00001), (0.140625, 1), (0.15625, 1), (0.140625, 0.00001), (0.125, 0.00001), (0.125, 1), (0.140625, 1), (0.125, 0.00001), (0.109375, 0.00001), (0.109375, 1), (0.125, 1), (0.109375, 0.00001), (0.09375, 0.00001), (0.09375, 1), (0.109375, 1), (0.09375, 0.00001), (0.078125, 0.00001), (0.078125, 1), (0.09375, 1), (0.078125, 0.00001), (0.0625, 0.00001), (0.0625, 1), (0.078125, 1), (0.0625, 0.00001), (0.046875, 0.00001), (0.046875, 1), (0.0625, 1), (0.046875, 0.00001), (0.03125, 0.00001), (0.03125, 1), (0.046875, 1), (0.03125, 0.00001), (0.015625, 0.00001), (0.015625, 1), (0.03125, 1), (0.015625, 0.00001), (0, 0.00001), (0, 1), (0.015625, 1), (1, 0.00001), (1, 0.00001), (0.984375, 0.00001), (1, 0.00001), (0.984375, 0.00001), (0.96875, 0.00001), (1, 0.00001), (0.96875, 0.00001), (0.953125, 0.00001), (1, 0.00001), (0.953125, 0.00001), (0.9375, 0.00001), (1, 0.00001), (0.9375, 0.00001), (0.921875, 0.00001), (1, 0.00001), (0.921875, 0.00001), (0.90625, 0.00001), (1, 0.00001), (0.90625, 0.00001), (0.890625, 0.00001), (1, 0.00001), (0.890625, 0.00001), (0.875, 0.00001), (1, 0.00001), (0.875, 0.00001), (0.859375, 0.00001), (1, 0.00001), (0.859375, 0.00001), (0.84375, 0.00001), (1, 0.00001), (0.84375, 0.00001), (0.828125, 0.00001), (1, 0.00001), (0.828125, 0.00001), (0.8125, 0.00001), (1, 0.00001), (0.8125, 0.00001), (0.796875, 0.00001), (1, 0.00001), (0.796875, 0.00001), (0.78125, 0.00001), (1, 0.00001), (0.78125, 0.00001), (0.765625, 0.00001), (1, 0.00001), (0.765625, 0.00001), (0.75, 0.00001), (1, 0.00001), (0.75, 0.00001), (0.734375, 0.00001), (1, 0.00001), (0.734375, 0.00001), (0.71875, 0.00001), (1, 0.00001), (0.71875, 0.00001), (0.703125, 0.00001), (1, 0.00001), (0.703125, 0.00001), (0.6875, 0.00001), (1, 0.00001), (0.6875, 0.00001), (0.671875, 0.00001), (1, 0.00001), (0.671875, 0.00001), (0.65625, 0.00001), (1, 0.00001), (0.65625, 0.00001), (0.640625, 0.00001), (1, 0.00001), (0.640625, 0.00001), (0.625, 0.00001), (1, 0.00001), (0.625, 0.00001), (0.609375, 0.00001), (1, 0.00001), (0.609375, 0.00001), (0.59375, 0.00001), (1, 0.00001), (0.59375, 0.00001), (0.578125, 0.00001), (1, 0.00001), (0.578125, 0.00001), (0.5625, 0.00001), (1, 0.00001), (0.5625, 0.00001), (0.546875, 0.00001), (1, 0.00001), (0.546875, 0.00001), (0.53125, 0.00001), (1, 0.00001), (0.53125, 0.00001), (0.515625, 0.00001), (1, 0.00001), (0.515625, 0.00001), (0.5, 0.00001), (1, 0.00001), (0.5, 0.00001), (0.484375, 0.00001), (1, 0.00001), (0.484375, 0.00001), (0.46875, 0.00001), (1, 0.00001), (0.46875, 0.00001), (0.453125, 0.00001), (1, 0.00001), (0.453125, 0.00001), (0.4375, 0.00001), (1, 0.00001), (0.4375, 0.00001), (0.421875, 0.00001), (1, 0.00001), (0.421875, 0.00001), (0.40625, 0.00001), (1, 0.00001), (0.40625, 0.00001), (0.390625, 0.00001), (1, 0.00001), (0.390625, 0.00001), (0.375, 0.00001), (1, 0.00001), (0.375, 0.00001), (0.359375, 0.00001), (1, 0.00001), (0.359375, 0.00001), (0.34375, 0.00001), (1, 0.00001), (0.34375, 0.00001), (0.328125, 0.00001), (1, 0.00001), (0.328125, 0.00001), (0.3125, 0.00001), (1, 0.00001), (0.3125, 0.00001), (0.296875, 0.00001), (1, 0.00001), (0.296875, 0.00001), (0.28125, 0.00001), (1, 0.00001), (0.28125, 0.00001), (0.265625, 0.00001), (1, 0.00001), (0.265625, 0.00001), (0.25, 0.00001), (1, 0.00001), (0.25, 0.00001), (0.234375, 0.00001), (1, 0.00001), (0.234375, 0.00001), (0.21875, 0.00001), (1, 0.00001), (0.21875, 0.00001), (0.203125, 0.00001), (1, 0.00001), (0.203125, 0.00001), (0.1875, 0.00001), (1, 0.00001), (0.1875, 0.00001), (0.171875, 0.00001), (1, 0.00001), (0.171875, 0.00001), (0.15625, 0.00001), (1, 0.00001), (0.15625, 0.00001), (0.140625, 0.00001), (1, 0.00001), (0.140625, 0.00001), (0.125, 0.00001), (1, 0.00001), (0.125, 0.00001), (0.109375, 0.00001), (1, 0.00001), (0.109375, 0.00001), (0.09375, 0.00001), (1, 0.00001), (0.09375, 0.00001), (0.078125, 0.00001), (1, 0.00001), (0.078125, 0.00001), (0.0625, 0.00001), (1, 0.00001), (0.0625, 0.00001), (0.046875, 0.00001), (1, 0.00001), (0.046875, 0.00001), (0.03125, 0.00001), (1, 0.00001), (0.03125, 0.00001), (0.015625, 0.00001), (1, 0.00001), (0.015625, 0.00001), (0, 0.00001)] (
            interpolation = "faceVarying"
        )
        uniform token subdivisionScheme = "none"
        double3 xformOp:rotateXYZ = (0, 0, 0)
        double3 xformOp:scale = (4, 4, 4)
        double3 xformOp:translate = (0, -29.2321, 0)
        uniform token[] xformOpOrder = ["xformOp:translate", "xformOp:rotateXYZ", "xformOp:scale"]
    }
}
