{
    "asset": {
        "version": "2.0"
    },
    "extensionsUsed": [
        "NV_materials_mdl"
    ],
    "extensionsRequired": [
        "NV_materials_mdl"
    ],
    "accessors": [
        {
            "bufferView": 0,
            "byteOffset": 0,
            "componentType": 5126,
            "count": 24,
            "type": "VEC3",
            "max": [
                50.0,
                50.0,
                50.0
            ],
            "min": [
                -50.0,
                -50.0,
                -50.0
            ]
        },
        {
            "bufferView": 1,
            "byteOffset": 0,
            "componentType": 5126,
            "count": 24,
            "type": "VEC3",
            "max": [
                1.0,
                1.0,
                1.0
            ],
            "min": [
                -1.0,
                -1.0,
                -1.0
            ]
        },
        {
            "bufferView": 2,
            "byteOffset": 0,
            "componentType": 5126,
            "count": 24,
            "type": "VEC2",
            "max": [
                1.0,
                1.0
            ],
            "min": [
                0.0,
                0.0
            ]
        },
        {
            "bufferView": 3,
            "byteOffset": 0,
            "componentType": 5125,
            "count": 36,
            "type": "SCALAR",
            "max": [
                23
            ],
            "min": [
                0
            ]
        }
    ],
    "buffers": [
        {
            "byteLength": 912,
            "uri": "cube.bin"
        }
    ],
    "bufferViews": [
        {
            "buffer": 0,
            "byteOffset": 0,
            "byteLength": 288,
            "target": 34962
        },
        {
            "buffer": 0,
            "byteOffset": 288,
            "byteLength": 288,
            "target": 34962
        },
        {
            "buffer": 0,
            "byteOffset": 576,
            "byteLength": 192,
            "target": 34962
        },
        {
            "buffer": 0,
            "byteOffset": 768,
            "byteLength": 144,
            "target": 34963
        }
    ],
    "materials": [
        {
            "name": "MDL Material",
            "extensions": {
                "NV_materials_mdl": {
                    "functionCall": 0
                }
            }
        }
    ],
    "meshes": [
        {
            "name": "Cube",
            "primitives": [
                {
                    "mode": 4,
                    "material": 0,
                    "indices": 3,
                    "attributes": {
                        "POSITION": 0,
                        "NORMAL": 1,
                        "TEXCOORD_0": 2
                    }
                }
            ]
        }
    ],
    "nodes": [
        {
            "name": "World",
            "children": [
                1
            ]
        },
        {
            "name": "Cube",
            "mesh": 0
        }
    ],
    "scenes": [
        {
            "nodes": [
                0
            ]
        }
    ],
    "scene": 0,
    "extensions": {
        "NV_materials_mdl": {
            "modules": [
                {
                    "uri": "mdl:/OmniPBR.mdl"
                }
            ],
            "functionCalls": [
                {
                    "module": 0,
                    "functionName": "OmniPBR",
                    "type": {
                        "typeName": "material"
                    },
                    "arguments": [
                        {
                            "name": "diffuse_color_constant",
                            "type": {
                                "typeName": "color"
                            },
                            "value": [
                                0.6000000238418579,
                                0.6000000238418579,
                                0.6000000238418579
                            ]
                        },
                        {
                            "name": "metallic_constant",
                            "type": {
                                "typeName": "float"
                            },
                            "value": 0.0
                        }
                    ]
                }
            ]
        }
    }
}