#usda 1.0
(
    defaultPrim = "Root"
    endTimeCode = 120
    startTimeCode = 1
    timeCodesPerSecond = 24
    upAxis = "Y"
)

def "Root" (
    kind = "component"
)
{
    def SkelRoot "group1"
    {
        def Mesh "base" (
            prepend apiSchemas = ["SkelBindingAPI", "ShadowAPI"]
        )
        {
            uniform bool doubleSided = 1
            float3[] extent = [(-2.5, -0.020237144, -2.5), (2.5, 4.979763, 2.5)]
            int[] faceVertexCounts = [4, 4, 4, 4, 4, 4]
            int[] faceVertexIndices = [0, 1, 3, 2, 2, 3, 5, 4, 4, 5, 7, 6, 6, 7, 1, 0, 1, 7, 5, 3, 6, 0, 2, 4]
            rel material:binding = </Root/Looks/initialShadingGroup>
            custom uniform bool morph:ConsiderTransformSpaces = 1
            custom uniform bool morph:IsPostSpaceMorph = 1
            custom uniform token[] morph:MorphTargetNames = ["a", "b"]
            custom rel morph:MorphTargets = [
                </Root/group1/base/a>,
                </Root/group1/base/b>,
            ]
            custom rel morph:MorphWeights = [
                </Root/group1/base.morph:weight_a>,
                </Root/group1/base.morph:weight_b>,
            ]
            custom double morph:weight_a = 1
            double morph:weight_a.timeSamples = {
                1: 1,
                2: 1,
                3: 1,
                4: 1,
                5: 1,
                6: 1,
                7: 1,
                8: 1,
                9: 1,
                10: 1,
                11: 1,
                12: 1,
                13: 1,
                14: 1,
                15: 1,
                16: 1,
                17: 1,
                18: 1,
                19: 1,
                20: 1,
                21: 1,
                22: 1,
                23: 1,
                24: 1,
                25: 1,
                26: 1,
                27: 1,
                28: 1,
                29: 1,
                30: 1,
                31: 1,
                32: 1,
                33: 1,
                34: 1,
                35: 1,
                36: 1,
                37: 1,
                38: 1,
                39: 1,
                40: 1,
                41: 1,
                42: 1,
                43: 1,
                44: 1,
                45: 1,
                46: 1,
                47: 1,
                48: 1,
                49: 1,
                50: 1,
                51: 1,
                52: 1,
                53: 1,
                54: 1,
                55: 1,
                56: 1,
                57: 1,
                58: 1,
                59: 1,
                60: 1,
                61: 1,
                62: 1,
                63: 1,
                64: 1,
                65: 1,
                66: 1,
                67: 1,
                68: 1,
                69: 1,
                70: 1,
                71: 1,
                72: 1,
                73: 1,
                74: 1,
                75: 1,
                76: 1,
                77: 1,
                78: 1,
                79: 1,
                80: 1,
                81: 1,
                82: 1,
                83: 1,
                84: 1,
                85: 1,
                86: 1,
                87: 1,
                88: 1,
                89: 1,
                90: 1,
                91: 0.9967407584190369,
                92: 0.9872592687606812,
                93: 0.972000002861023,
                94: 0.9514074325561523,
                95: 0.9259259104728699,
                96: 0.8960000276565552,
                97: 0.862074077129364,
                98: 0.8245925903320312,
                99: 0.7839999794960022,
                100: 0.7407407164573669,
                101: 0.6952592730522156,
                102: 0.6480000019073486,
                103: 0.599407434463501,
                104: 0.5499259233474731,
                105: 0.5,
                106: 0.45007407665252686,
                107: 0.4005925953388214,
                108: 0.35199999809265137,
                109: 0.3047407269477844,
                110: 0.25925925374031067,
                111: 0.2160000056028366,
                112: 0.17540740966796875,
                113: 0.137925922870636,
                114: 0.10400000214576721,
                115: 0.07407407462596893,
                116: 0.048592593520879745,
                117: 0.02800000086426735,
                118: 0.012740740552544594,
                119: 0.0032592592760920525,
                120: 0,
            }
            custom double morph:weight_b = 0
            double morph:weight_b.timeSamples = {
                1: 0.00020717592269647866,
                2: 0.0008240740862675011,
                3: 0.001843750011175871,
                4: 0.0032592592760920525,
                5: 0.005063657183200121,
                6: 0.007249999791383743,
                7: 0.0098113426938653,
                8: 0.012740740552544594,
                9: 0.01603125035762787,
                10: 0.019675925374031067,
                11: 0.023667823523283005,
                12: 0.02800000086426735,
                13: 0.03266550973057747,
                14: 0.03765740618109703,
                15: 0.04296875,
                16: 0.048592593520879745,
                17: 0.054521989077329636,
                18: 0.060750000178813934,
                19: 0.06726967543363571,
                20: 0.07407407462596893,
                21: 0.08115624636411667,
                22: 0.08850926160812378,
                23: 0.09612615406513214,
                24: 0.10400000214576721,
                25: 0.11212383955717087,
                26: 0.12049073725938797,
                27: 0.12909375131130219,
                28: 0.137925922870636,
                29: 0.14698033034801483,
                30: 0.15625,
                31: 0.16572800278663635,
                32: 0.17540740966796875,
                33: 0.18528124690055847,
                34: 0.19534258544445038,
                35: 0.20558449625968933,
                36: 0.2160000056028366,
                37: 0.22658216953277588,
                38: 0.2373240739107132,
                39: 0.24821874499320984,
                40: 0.25925925374031067,
                41: 0.27043867111206055,
                42: 0.28174999356269836,
                43: 0.29318633675575256,
                44: 0.3047407269477844,
                45: 0.31640625,
                46: 0.32817593216896057,
                47: 0.3400428295135498,
                48: 0.35199999809265137,
                49: 0.3640405237674713,
                50: 0.37615740299224854,
                51: 0.3883437514305115,
                52: 0.4005925953388214,
                53: 0.412896990776062,
                54: 0.42524999380111694,
                55: 0.43764469027519226,
                56: 0.45007407665252686,
                57: 0.4625312387943268,
                58: 0.4750092625617981,
                59: 0.4875011444091797,
                60: 0.5,
                61: 0.5124988555908203,
                62: 0.5249907374382019,
                63: 0.5374687314033508,
                64: 0.5499259233474731,
                65: 0.5623553395271301,
                66: 0.5747500061988831,
                67: 0.587103009223938,
                68: 0.599407434463501,
                69: 0.6116562485694885,
                70: 0.6238425970077515,
                71: 0.6359595060348511,
                72: 0.6480000019073486,
                73: 0.6599571704864502,
                74: 0.6718240976333618,
                75: 0.68359375,
                76: 0.6952592730522156,
                77: 0.706813633441925,
                78: 0.7182499766349792,
                79: 0.7295613288879395,
                80: 0.7407407164573669,
                81: 0.7517812252044678,
                82: 0.762675940990448,
                83: 0.7734178304672241,
                84: 0.7839999794960022,
                85: 0.7944155335426331,
                86: 0.8046573996543884,
                87: 0.8147187232971191,
                88: 0.8245925903320312,
                89: 0.8342719674110413,
                90: 0.84375,
                91: 0.853019654750824,
                92: 0.862074077129364,
                93: 0.8709062337875366,
                94: 0.8795092701911926,
                95: 0.8878761529922485,
                96: 0.8960000276565552,
                97: 0.903873860836029,
                98: 0.9114907383918762,
                99: 0.9188437461853027,
                100: 0.9259259104728699,
                101: 0.9327303171157837,
                102: 0.9392499923706055,
                103: 0.9454780220985413,
                104: 0.9514074325561523,
                105: 0.95703125,
                106: 0.9623426198959351,
                107: 0.967334508895874,
                108: 0.972000002861023,
                109: 0.9763321876525879,
                110: 0.9803240895271301,
                111: 0.9839687347412109,
                112: 0.9872592687606812,
                113: 0.9901886582374573,
                114: 0.9927499890327454,
                115: 0.9949363470077515,
                116: 0.9967407584190369,
                117: 0.9981562495231628,
                118: 0.9991759061813354,
                119: 0.9997928142547607,
                120: 1,
            }
            normal3f[] normals = [(0, 0, 1), (0, 0, 1), (0, 0, 1), (0, 0, 1), (0, 1, 0), (0, 1, 0), (0, 1, 0), (0, 1, 0), (0, 0, -1), (0, 0, -1), (0, 0, -1), (0, 0, -1), (0, -1, 0), (0, -1, 0), (0, -1, 0), (0, -1, 0), (1, 0, 0), (1, 0, 0), (1, 0, 0), (1, 0, 0), (-1, 0, 0), (-1, 0, 0), (-1, 0, 0), (-1, 0, 0)] (
                interpolation = "faceVarying"
            )
            point3f[] points = [(-2.5, -0.020237144, 2.5), (2.5, -0.020237144, 2.5), (-2.5, 4.979763, 2.5), (2.5, 4.979763, 2.5), (-2.5, 4.979763, -2.5), (2.5, 4.979763, -2.5), (-2.5, -0.020237144, -2.5), (2.5, -0.020237144, -2.5)]
            color3f[] primvars:displayColor = [(0.4, 0.4, 0.4)] (
                customData = {
                    dictionary Maya = {
                        bool generated = 1
                    }
                }
            )
            matrix4d primvars:skel:geomBindTransform = ( (1, 0, 0, 0), (0, 1, 0, 0), (0, 0, 1, 0), (0, 0, 0, 1) )
            int[] primvars:skel:jointIndices = [1, 0, 1, 0, 1, 0, 1, 0, 1, 0, 1, 0, 1, 0, 1, 0] (
                elementSize = 2
                interpolation = "vertex"
            )
            float[] primvars:skel:jointWeights = [1, 0, 1, 0, 1, 0, 1, 0, 0.9999814, 0.00001859665, 0.99999946, 5.364418e-7, 0.9998881, 0.00011187792, 0.99998295, 0.000017046928] (
                elementSize = 2
                interpolation = "vertex"
            )
            float2[] primvars:st = [(0.375, 0), (0.625, 0), (0.625, 0.25), (0.375, 0.25), (0.625, 0.5), (0.375, 0.5), (0.625, 0.75), (0.375, 0.75), (0.625, 1), (0.375, 1), (0.875, 0), (0.875, 0.25), (0.125, 0), (0.125, 0.25)] (
                customData = {
                    dictionary Maya = {
                        int UVSetIndex = 0
                    }
                }
                interpolation = "faceVarying"
            )
            int[] primvars:st:indices = [0, 1, 2, 3, 3, 2, 4, 5, 5, 4, 6, 7, 7, 6, 8, 9, 1, 10, 11, 2, 12, 0, 3, 13]
            bool shadow:enable = 1
            uniform token[] skel:joints = ["joint1", "joint1/joint2"]
            rel skel:skeleton = </Root/group1/joint1>
            uniform token skel:skinningMethod = "ClassicLinear"
            uniform token subdivisionScheme = "none"
            float3 xformOp:translate:pivot = (0, 2.4797628, 0)
            uniform token[] xformOpOrder = ["xformOp:translate:pivot", "!invert!xformOp:translate:pivot"]

            def MorphTarget "a" (
                customData = {
                    int rampInput = -1
                }
            )
            {
                custom uniform token transform = ""
                custom uniform token transformType = "transform" (
                    allowedTokens = ["joint", "transform"]
                )
                custom uniform vector3f[] offsets = [(0, 2.108045, 0), (0, 2.108045, 0)]
                custom uniform uint[] pointIndices = [3, 5]
                custom uniform int Priority = 0
                custom uniform token targetType = "primary" (
                    allowedTokens = ["primary", "inbetween", "combination"]
                )
            }

            def MorphTarget "b" (
                customData = {
                    int rampInput = -1
                }
            )
            {
                custom uniform token transform = "joint1/joint2"
                custom uniform token transformType = "joint" (
                    allowedTokens = ["joint", "transform"]
                )
                custom uniform vector3f[] offsets = [(0, 2.0353513, 0), (0, 2.0353513, 0)]
                custom uniform uint[] pointIndices = [2, 4]
                custom uniform int Priority = 0
                custom uniform token targetType = "primary" (
                    allowedTokens = ["primary", "inbetween", " "]
                )
            }
        }

        def Skeleton "joint1" (
            prepend apiSchemas = ["SkelBindingAPI"]
            customData = {
                dictionary Maya = {
                    bool generated = 1
                }
            }
        )
        {
            uniform matrix4d[] bindTransforms = [( (-0.1262437857194616, 0, -0.9919992472614174, 0), (0, 1, 0, 0), (0.9919992472614174, 0, -0.1262437857194616, 0), (0, 0, 0, 1) ), ( (-0.04036000725007299, 0, -0.9991852029602791, 0), (0, 1, 0, 0), (0.9991852029602791, 0, -0.04036000725007299, 0), (0, 4, 0, 1) )]
            uniform token[] joints = ["joint1", "joint1/joint2"]
            uniform matrix4d[] restTransforms = [( (-0.1262437857194616, 0, -0.9919992472614174, 0), (0, 1, 0, 0), (0.9919992472614174, 0, -0.1262437857194616, 0), (0, 0, 0, 1) ), ( (0.9962861693182575, 0, 0.08610382584503647, 0), (-0, 1, 0, 0), (-0.08610382584503647, -0, 0.9962861693182575, 0), (0, 4, 0, 1) )]
            rel skel:animationSource = </Root/group1/joint1/Animation>

            def SkelAnimation "Animation"
            {
                uniform token[] joints = ["joint1", "joint1/joint2"]
                quatf[] rotations = [(0.6609675, 0, 0.7504145, 0), (0.9990711, 0, -0.04309194, 0)]
                quatf[] rotations.timeSamples = {
                    1: [(0.6609675, 0, 0.7504145, 0), (0.99907094, 0.00064662506, -0.043091934, 0.000027890235)],
                    2: [(0.6609675, 0, 0.7504145, 0), (0.99906784, 0.0025574358, -0.0430918, 0.00011030733)],
                    3: [(0.6609675, 0, 0.7504145, 0), (0.9990549, 0.005688817, -0.04309124, 0.0002453701)],
                    4: [(0.6609675, 0, 0.7504145, 0), (0.9990211, 0.009997092, -0.043089785, 0.00043119464)],
                    5: [(0.6609675, 0, 0.7504145, 0), (0.99895185, 0.015438468, -0.0430868, 0.0006658921)],
                    6: [(0.6609675, 0, 0.7504145, 0), (0.99882954, 0.02196895, -0.043081522, 0.0009475649)],
                    7: [(0.6609675, 0, 0.7504145, 0), (0.9986342, 0.029544279, -0.0430731, 0.0012743041)],
                    8: [(0.6609675, 0, 0.7504145, 0), (0.99834365, 0.03811983, -0.043060567, 0.0016441847)],
                    9: [(0.6609675, 0, 0.7504145, 0), (0.9979341, 0.047650535, -0.0430429, 0.0020552631)],
                    10: [(0.6609675, 0, 0.7504145, 0), (0.99738085, 0.058090817, -0.043019034, 0.0025055734)],
                    11: [(0.6609675, 0, 0.7504145, 0), (0.9966582, 0.06939452, -0.04298787, 0.002993125)],
                    12: [(0.6609675, 0, 0.7504145, 0), (0.9957402, 0.08151483, -0.042948272, 0.003515898)],
                    13: [(0.6609675, 0, 0.7504145, 0), (0.9946009, 0.09440425, -0.04289913, 0.0040718447)],
                    14: [(0.6609675, 0, 0.7504145, 0), (0.99321496, 0.108014606, -0.042839352, 0.004658886)],
                    15: [(0.6609675, 0, 0.7504145, 0), (0.99155766, 0.12229697, -0.042767867, 0.0052749137)],
                    16: [(0.6609675, 0, 0.7504145, 0), (0.98960537, 0.13720173, -0.042683665, 0.0059177857)],
                    17: [(0.6609675, 0, 0.7504145, 0), (0.987336, 0.1526786, -0.04258578, 0.0065853335)],
                    18: [(0.6609675, 0, 0.7504145, 0), (0.98472905, 0.16867661, -0.04247334, 0.0072753606)],
                    19: [(0.6609675, 0, 0.7504145, 0), (0.9817661, 0.18514432, -0.04234554, 0.007985646)],
                    20: [(0.6609675, 0, 0.7504145, 0), (0.9784309, 0.20202973, -0.042201687, 0.008713948)],
                    21: [(0.6609675, 0, 0.7504145, 0), (0.97470975, 0.21928051, -0.042041186, 0.009458008)],
                    22: [(0.6609675, 0, 0.7504145, 0), (0.9705916, 0.23684403, -0.041863564, 0.010215559)],
                    23: [(0.6609675, 0, 0.7504145, 0), (0.9660681, 0.25466755, -0.041668452, 0.010984322)],
                    24: [(0.6609675, 0, 0.7504145, 0), (0.9611341, 0.2726984, -0.041455638, 0.011762029)],
                    25: [(0.6609675, 0, 0.7504145, 0), (0.9557874, 0.290884, -0.041225027, 0.01254641)],
                    26: [(0.6609675, 0, 0.7504145, 0), (0.9500293, 0.30917215, -0.04097667, 0.013335215)],
                    27: [(0.6609675, 0, 0.7504145, 0), (0.94386417, 0.3275112, -0.040710755, 0.014126214)],
                    28: [(0.6609675, 0, 0.7504145, 0), (0.9372997, 0.34585008, -0.040427618, 0.014917208)],
                    29: [(0.6609675, 0, 0.7504145, 0), (0.93034726, 0.36413872, -0.040127743, 0.015706033)],
                    30: [(0.6609675, 0, 0.7504145, 0), (0.9230214, 0.38232797, -0.03981176, 0.016490571)],
                    31: [(0.6609675, 0, 0.7504145, 0), (0.9153398, 0.4003699, -0.039480444, 0.017268758)],
                    32: [(0.6609675, 0, 0.7504145, 0), (0.90732396, 0.41821808, -0.0391347, 0.018038584)],
                    33: [(0.6609675, 0, 0.7504145, 0), (0.89899814, 0.43582737, -0.038775597, 0.01879811)],
                    34: [(0.6609675, 0, 0.7504145, 0), (0.89038986, 0.45315444, -0.0384043, 0.01954546)],
                    35: [(0.6609675, 0, 0.7504145, 0), (0.8815298, 0.4701577, -0.03802215, 0.020278845)],
                    36: [(0.6609675, 0, 0.7504145, 0), (0.8724513, 0.4867975, -0.037630573, 0.020996554)],
                    37: [(0.6609675, 0, 0.7504145, 0), (0.8631904, 0.50303614, -0.037231136, 0.021696957)],
                    38: [(0.6609675, 0, 0.7504145, 0), (0.8537859, 0.51883787, -0.036825497, 0.022378517)],
                    39: [(0.6609675, 0, 0.7504145, 0), (0.84427863, 0.53416914, -0.03641543, 0.023039788)],
                    40: [(0.6609675, 0, 0.7504145, 0), (0.8347118, 0.5489986, -0.036002796, 0.02367941)],
                    41: [(0.6609675, 0, 0.7504145, 0), (0.8251303, 0.5632967, -0.035589524, 0.024296114)],
                    42: [(0.6609675, 0, 0.7504145, 0), (0.81558096, 0.5770362, -0.03517764, 0.024888728)],
                    43: [(0.6609675, 0, 0.7504145, 0), (0.80611205, 0.5901919, -0.03476923, 0.02545616)],
                    44: [(0.6609675, 0, 0.7504145, 0), (0.79677296, 0.6027404, -0.034366414, 0.025997402)],
                    45: [(0.6609675, 0, 0.7504145, 0), (0.78761417, 0.6146601, -0.033971377, 0.026511524)],
                    46: [(0.6609675, 0, 0.7504145, 0), (0.7786869, 0.62593114, -0.033586327, 0.026997667)],
                    47: [(0.6609675, 0, 0.7504145, 0), (0.7700429, 0.63653517, -0.033213496, 0.027455037)],
                    48: [(0.6609675, 0, 0.7504145, 0), (0.7617343, 0.64645493, -0.032855127, 0.027882896)],
                    49: [(0.6609675, 0, 0.7504145, 0), (0.75381315, 0.65567446, -0.032513473, 0.028280554)],
                    50: [(0.6609675, 0, 0.7504145, 0), (0.74633116, 0.6641784, -0.03219076, 0.028647345)],
                    51: [(0.6609675, 0, 0.7504145, 0), (0.73934, 0.67195195, -0.031889215, 0.028982636)],
                    52: [(0.6609675, 0, 0.7504145, 0), (0.7328903, 0.67898077, -0.03161103, 0.029285802)],
                    53: [(0.6609675, 0, 0.7504145, 0), (0.72703195, 0.68525004, -0.031358346, 0.02955621)],
                    54: [(0.6609675, 0, 0.7504145, 0), (0.72181356, 0.69074476, -0.031133266, 0.029793207)],
                    55: [(0.6609675, 0, 0.7504145, 0), (0.71728224, 0.69544894, -0.030937823, 0.029996108)],
                    56: [(0.6609675, 0, 0.7504145, 0), (0.7134836, 0.6993456, -0.030773979, 0.030164177)],
                    57: [(0.6609675, 0, 0.7504145, 0), (0.7104611, 0.7024159, -0.030643612, 0.030296607)],
                    58: [(0.6609675, 0, 0.7504145, 0), (0.70825607, 0.7046393, -0.030548504, 0.030392507)],
                    59: [(0.6609675, 0, 0.7504145, 0), (0.70690703, 0.7059926, -0.030490318, 0.030450875)],
                    60: [(0.6609675, 0, 0.7504145, 0), (0.70645, 0.70645, -0.030470604, 0.030470604)],
                }
                half3[] scales = [(1, 1, 1), (1, 1, 1)]
                float3[] translations = [(0, 0, 0), (0, 4, 0)]
            }
        }
    }

    def Scope "Looks"
    {
        def Material "initialShadingGroup"
        {
        }
    }
}

